PublicSans-Black.ufo
<glyph name="exclam" format="2">
  <advance width="620"/>
  <unicode hex="0021"/>
  <outline>
    <contour>
      <point x="180" y="518" type="line"/>
      <point x="418" y="518" type="line"/>
      <point x="520" y="1446" type="line"/>
      <point x="70" y="1446" type="line"/>
    </contour>
    <contour>
      <point x="90" y="0" type="line"/>
      <point x="500" y="0" type="line"/>
      <point x="500" y="384" type="line"/>
      <point x="90" y="384" type="line"/>
    </contour>
  </outline>
</glyph>
<glyph name="numbersign" format="2">
  <advance width="1256"/>
  <unicode hex="0023"/>
  <outline>
    <contour>
      <point x="828" y="-6" type="line"/>
      <point x="1036" y="1432" type="line"/>
      <point x="848" y="1450" type="line"/>
      <point x="638" y="18" type="line"/>
    </contour>
    <contour>
      <point x="40" y="432" type="line"/>
      <point x="1132" y="432" type="line"/>
      <point x="1132" y="620" type="line"/>
      <point x="40" y="620" type="line"/>
    </contour>
    <contour>
      <point x="390" y="-6" type="line"/>
      <point x="598" y="1432" type="line"/>
      <point x="412" y="1450" type="line"/>
      <point x="202" y="18" type="line"/>
    </contour>
    <contour>
      <point x="104" y="842" type="line"/>
      <point x="1196" y="842" type="line"/>
      <point x="1196" y="1030" type="line"/>
      <point x="104" y="1030" type="line"/>
    </contour>
  </outline>
</glyph>
<glyph name="dollar" format="2">
  <advance width="1402"/>
  <unicode hex="0024"/>
  <outline>
    <contour>
      <point x="734" y="-20" type="curve" smooth="yes"/>
      <point x="1096" y="-20"/>
      <point x="1322" y="144"/>
      <point x="1322" y="410" type="curve" smooth="yes"/>
      <point x="1322" y="654"/>
      <point x="1202" y="820"/>
      <point x="922" y="878" type="curve" smooth="yes"/>
      <point x="696" y="924" type="line" smooth="yes"/>
      <point x="570" y="950"/>
      <point x="538" y="984"/>
      <point x="538" y="1050" type="curve" smooth="yes"/>
      <point x="538" y="1102"/>
      <point x="584" y="1164"/>
      <point x="736" y="1164" type="curve" smooth="yes"/>
      <point x="872" y="1164"/>
      <point x="896" y="1096"/>
      <point x="904" y="1008" type="curve"/>
      <point x="1298" y="1008" type="line"/>
      <point x="1312" y="1266"/>
      <point x="1082" y="1464"/>
      <point x="728" y="1464" type="curve" smooth="yes"/>
      <point x="394" y="1464"/>
      <point x="118" y="1294"/>
      <point x="122" y="1002" type="curve" smooth="yes"/>
      <point x="126" y="756"/>
      <point x="276" y="612"/>
      <point x="502" y="576" type="curve" smooth="yes"/>
      <point x="728" y="538" type="line" smooth="yes"/>
      <point x="850" y="518"/>
      <point x="910" y="498"/>
      <point x="910" y="410" type="curve" smooth="yes"/>
      <point x="910" y="340"/>
      <point x="854" y="278"/>
      <point x="732" y="278" type="curve" smooth="yes"/>
      <point x="596" y="278"/>
      <point x="506" y="338"/>
      <point x="484" y="440" type="curve"/>
      <point x="80" y="440" type="line"/>
      <point x="106" y="118"/>
      <point x="350" y="-20"/>
    </contour>
    <contour>
      <point x="566" y="-174" type="line"/>
      <point x="892" y="-174" type="line"/>
      <point x="892" y="86" type="line"/>
      <point x="566" y="86" type="line"/>
    </contour>
    <contour>
      <point x="566" y="1384" type="line"/>
      <point x="892" y="1384" type="line"/>
      <point x="892" y="1644" type="line"/>
      <point x="566" y="1644" type="line"/>
    </contour>
  </outline>
</glyph>
<glyph name="percent" format="2">
  <advance width="1942"/>
  <unicode hex="0025"/>
  <outline>
    <contour>
      <point x="350" y="-8" type="line"/>
      <point x="568" y="-8" type="line"/>
      <point x="1540" y="1462" type="line"/>
      <point x="1327" y="1462" type="line"/>
    </contour>
    <contour>
      <point x="468" y="652" type="curve" smooth="yes"/>
      <point x="686" y="652"/>
      <point x="852" y="844"/>
      <point x="852" y="1054" type="curve" smooth="yes"/>
      <point x="852" y="1268"/>
      <point x="682" y="1468"/>
      <point x="468" y="1468" type="curve" smooth="yes"/>
      <point x="252" y="1468"/>
      <point x="80" y="1268"/>
      <point x="80" y="1054" type="curve" smooth="yes"/>
      <point x="80" y="844"/>
      <point x="248" y="652"/>
    </contour>
    <contour>
      <point x="466" y="842" type="curve" smooth="yes"/>
      <point x="386" y="842"/>
      <point x="362" y="914"/>
      <point x="362" y="1054" type="curve" smooth="yes"/>
      <point x="362" y="1200"/>
      <point x="388" y="1280"/>
      <point x="466" y="1280" type="curve" smooth="yes"/>
      <point x="544" y="1280"/>
      <point x="570" y="1202"/>
      <point x="570" y="1054" type="curve" smooth="yes"/>
      <point x="570" y="914"/>
      <point x="548" y="842"/>
    </contour>
    <contour>
      <point x="1456" y="-20" type="curve" smooth="yes"/>
      <point x="1676" y="-20"/>
      <point x="1842" y="174"/>
      <point x="1842" y="384" type="curve" smooth="yes"/>
      <point x="1842" y="596"/>
      <point x="1672" y="798"/>
      <point x="1456" y="798" type="curve" smooth="yes"/>
      <point x="1240" y="798"/>
      <point x="1068" y="596"/>
      <point x="1068" y="384" type="curve" smooth="yes"/>
      <point x="1068" y="174"/>
      <point x="1236" y="-20"/>
    </contour>
    <contour>
      <point x="1454" y="172" type="curve" smooth="yes"/>
      <point x="1374" y="172"/>
      <point x="1352" y="244"/>
      <point x="1352" y="382" type="curve" smooth="yes"/>
      <point x="1352" y="528"/>
      <point x="1376" y="608"/>
      <point x="1454" y="608" type="curve" smooth="yes"/>
      <point x="1532" y="608"/>
      <point x="1558" y="530"/>
      <point x="1558" y="382" type="curve" smooth="yes"/>
      <point x="1558" y="244"/>
      <point x="1536" y="172"/>
    </contour>
  </outline>
</glyph>
<glyph name="ampersand" format="2">
  <advance width="1704"/>
  <unicode hex="0026"/>
  <outline>
    <contour>
      <point x="594" y="-10" type="curve" smooth="yes"/>
      <point x="730" y="-10"/>
      <point x="908" y="18"/>
      <point x="1072" y="124" type="curve"/>
      <point x="1180" y="0" type="line"/>
      <point x="1624" y="0" type="line"/>
      <point x="1300" y="378" type="line"/>
      <point x="1380" y="530"/>
      <point x="1526" y="708"/>
      <point x="1596" y="860" type="curve"/>
      <point x="1192" y="860" type="line"/>
      <point x="1172" y="774"/>
      <point x="1138" y="664"/>
      <point x="1120" y="598" type="curve"/>
      <point x="976" y="768" type="line"/>
      <point x="1138" y="876"/>
      <point x="1276" y="996"/>
      <point x="1276" y="1148" type="curve" smooth="yes"/>
      <point x="1276" y="1336"/>
      <point x="1068" y="1468"/>
      <point x="792" y="1468" type="curve" smooth="yes"/>
      <point x="510" y="1468"/>
      <point x="316" y="1316"/>
      <point x="316" y="1112" type="curve" smooth="yes"/>
      <point x="316" y="984"/>
      <point x="390" y="922"/>
      <point x="484" y="814" type="curve"/>
      <point x="230" y="680"/>
      <point x="100" y="568"/>
      <point x="100" y="362" type="curve" smooth="yes"/>
      <point x="100" y="146"/>
      <point x="244" y="-10"/>
    </contour>
    <contour>
      <point x="694" y="280" type="curve" smooth="yes"/>
      <point x="640" y="280"/>
      <point x="558" y="312"/>
      <point x="538" y="390" type="curve" smooth="yes"/>
      <point x="516" y="482"/>
      <point x="594" y="554"/>
      <point x="670" y="598" type="curve"/>
      <point x="888" y="348" type="line"/>
      <point x="832" y="298"/>
      <point x="740" y="280"/>
    </contour>
    <contour>
      <point x="820" y="954" type="curve"/>
      <point x="774" y="1002" type="line"/>
      <point x="718" y="1062"/>
      <point x="698" y="1104"/>
      <point x="698" y="1140" type="curve"/>
      <point x="698" y="1198"/>
      <point x="744" y="1240"/>
      <point x="812" y="1244" type="curve" smooth="yes"/>
      <point x="884" y="1248"/>
      <point x="942" y="1206"/>
      <point x="942" y="1128" type="curve" smooth="yes"/>
      <point x="942" y="1068"/>
      <point x="908" y="1016"/>
    </contour>
  </outline>
</glyph>
<glyph name="quotesingle" format="2">
  <advance width="546"/>
  <unicode hex="0027"/>
  <outline>
    <contour>
      <point x="456" y="1446" type="line"/>
      <point x="90" y="1446" type="line"/>
      <point x="182" y="802" type="line"/>
      <point x="364" y="802" type="line"/>
    </contour>
  </outline>
</glyph>
<glyph name="parenleft" format="2">
  <advance width="722"/>
  <unicode hex="0028"/>
  <outline>
    <contour>
      <point x="386" y="-322" type="curve"/>
      <point x="662" y="-322" type="line"/>
      <point x="516" y="-18"/>
      <point x="436" y="248"/>
      <point x="436" y="554" type="curve" smooth="yes"/>
      <point x="436" y="874"/>
      <point x="522" y="1184"/>
      <point x="662" y="1446" type="curve"/>
      <point x="384" y="1446" type="line"/>
      <point x="212" y="1196"/>
      <point x="100" y="890"/>
      <point x="100" y="556" type="curve" smooth="yes"/>
      <point x="100" y="212"/>
      <point x="216" y="-40"/>
    </contour>
  </outline>
</glyph>
<glyph name="parenright" format="2">
  <advance width="722"/>
  <unicode hex="0029"/>
  <outline>
    <contour>
      <point x="10" y="-322" type="curve"/>
      <point x="286" y="-322" type="line"/>
      <point x="456" y="-40"/>
      <point x="572" y="212"/>
      <point x="572" y="556" type="curve" smooth="yes"/>
      <point x="572" y="890"/>
      <point x="460" y="1196"/>
      <point x="288" y="1446" type="curve"/>
      <point x="10" y="1446" type="line"/>
      <point x="150" y="1184"/>
      <point x="236" y="874"/>
      <point x="236" y="554" type="curve" smooth="yes"/>
      <point x="236" y="248"/>
      <point x="156" y="-18"/>
    </contour>
  </outline>
</glyph>
<glyph name="asterisk" format="2">
  <advance width="1090"/>
  <unicode hex="002A"/>
  <outline>
    <contour>
      <point x="358" y="544" type="line"/>
      <point x="532" y="840" type="line"/>
      <point x="706" y="548" type="line"/>
      <point x="906" y="686" type="line"/>
      <point x="688" y="942" type="line"/>
      <point x="1000" y="1026" type="line"/>
      <point x="930" y="1246" type="line"/>
      <point x="622" y="1108" type="line"/>
      <point x="656" y="1446" type="line"/>
      <point x="416" y="1446" type="line"/>
      <point x="442" y="1110" type="line"/>
      <point x="140" y="1248" type="line"/>
      <point x="60" y="1030" type="line"/>
      <point x="382" y="942" type="line"/>
      <point x="160" y="684" type="line"/>
    </contour>
  </outline>
</glyph>
<glyph name="plus" format="2">
  <advance width="1238"/>
  <unicode hex="002B"/>
  <outline>
    <contour>
      <point x="482" y="220" type="line"/>
      <point x="758" y="220" type="line"/>
      <point x="758" y="1238" type="line"/>
      <point x="482" y="1238" type="line"/>
    </contour>
    <contour>
      <point x="110" y="590" type="line"/>
      <point x="1128" y="590" type="line"/>
      <point x="1128" y="866" type="line"/>
      <point x="110" y="866" type="line"/>
    </contour>
  </outline>
</glyph>
<glyph name="comma" format="2">
  <advance width="618"/>
  <unicode hex="002C"/>
  <outline>
    <contour>
      <point x="100" y="-306" type="line"/>
      <point x="228" y="-306" type="line"/>
      <point x="458" y="40" type="line"/>
      <point x="458" y="340" type="line"/>
      <point x="104" y="340" type="line"/>
      <point x="104" y="2" type="line"/>
      <point x="220" y="-12" type="line"/>
    </contour>
  </outline>
</glyph>
<glyph name="hyphen" format="2">
  <advance width="814"/>
  <unicode hex="002D"/>
  <outline>
    <contour>
      <point x="117" y="376" type="line"/>
      <point x="697" y="376" type="line"/>
      <point x="697" y="650" type="line"/>
      <point x="117" y="650" type="line"/>
    </contour>
  </outline>
</glyph>
<glyph name="period" format="2">
  <advance width="620"/>
  <unicode hex="002E"/>
  <outline>
    <contour>
      <point x="90" y="0" type="line"/>
      <point x="500" y="0" type="line"/>
      <point x="500" y="392" type="line"/>
      <point x="90" y="392" type="line"/>
    </contour>
  </outline>
</glyph>
<glyph name="slash" format="2">
  <advance width="818"/>
  <unicode hex="002F"/>
  <outline>
    <contour>
      <point x="20" y="0" type="line"/>
      <point x="278" y="0" type="line"/>
      <point x="788" y="1446" type="line"/>
      <point x="530" y="1446" type="line"/>
    </contour>
  </outline>
</glyph>
<glyph name="zero" format="2">
  <advance width="1349"/>
  <unicode hex="0030"/>
  <outline>
    <contour>
      <point x="677" y="-22" type="curve" smooth="yes"/>
      <point x="1055" y="-22"/>
      <point x="1269" y="252"/>
      <point x="1269" y="720" type="curve" smooth="yes"/>
      <point x="1269" y="1190"/>
      <point x="1049" y="1466"/>
      <point x="677" y="1466" type="curve" smooth="yes"/>
      <point x="303" y="1466"/>
      <point x="80" y="1190"/>
      <point x="80" y="720" type="curve" smooth="yes"/>
      <point x="80" y="252"/>
      <point x="297" y="-22"/>
    </contour>
    <contour>
      <point x="675" y="288" type="curve" smooth="yes"/>
      <point x="532" y="288"/>
      <point x="482" y="404"/>
      <point x="482" y="718" type="curve" smooth="yes"/>
      <point x="482" y="1042"/>
      <point x="534" y="1168"/>
      <point x="675" y="1168" type="curve" smooth="yes"/>
      <point x="815" y="1168"/>
      <point x="866" y="1044"/>
      <point x="866" y="718" type="curve" smooth="yes"/>
      <point x="866" y="402"/>
      <point x="818" y="288"/>
    </contour>
  </outline>
</glyph>
<glyph name="one" format="2">
  <advance width="895"/>
  <unicode hex="0031"/>
  <outline>
    <contour>
      <point x="319" y="0" type="line"/>
      <point x="710" y="0" type="line"/>
      <point x="710" y="1446" type="line"/>
      <point x="460" y="1446" type="line"/>
      <point x="440" y="1316"/>
      <point x="317" y="1226"/>
      <point x="80" y="1226" type="curve"/>
      <point x="80" y="1022" type="line"/>
      <point x="319" y="1022" type="line"/>
    </contour>
  </outline>
</glyph>
<glyph name="two" format="2">
  <advance width="1340"/>
  <unicode hex="0032"/>
  <outline>
    <contour>
      <point x="102" y="0" type="line"/>
      <point x="1250" y="0" type="line"/>
      <point x="1250" y="320" type="line"/>
      <point x="536" y="320" type="line"/>
      <point x="536" y="320" type="line" smooth="yes"/>
      <point x="536" y="552"/>
      <point x="1260" y="500"/>
      <point x="1260" y="1006" type="curve" smooth="yes"/>
      <point x="1260" y="1280"/>
      <point x="1046" y="1466"/>
      <point x="690" y="1466" type="curve" smooth="yes"/>
      <point x="276" y="1466"/>
      <point x="80" y="1236"/>
      <point x="80" y="936" type="curve"/>
      <point x="446" y="936" type="line"/>
      <point x="476" y="1096"/>
      <point x="576" y="1152"/>
      <point x="682" y="1152" type="curve" smooth="yes"/>
      <point x="788" y="1152"/>
      <point x="852" y="1088"/>
      <point x="852" y="1002" type="curve" smooth="yes"/>
      <point x="852" y="756"/>
      <point x="102" y="768"/>
      <point x="102" y="260" type="curve" smooth="yes"/>
      <point x="102" y="172" type="line"/>
    </contour>
  </outline>
</glyph>
<glyph name="three" format="2">
  <advance width="1393"/>
  <unicode hex="0033"/>
  <outline>
    <contour>
      <point x="670" y="-22" type="curve" smooth="yes"/>
      <point x="1011" y="-22"/>
      <point x="1313" y="118"/>
      <point x="1313" y="420" type="curve" smooth="yes"/>
      <point x="1313" y="622"/>
      <point x="1164" y="720"/>
      <point x="1030" y="756" type="curve"/>
      <point x="1216" y="818"/>
      <point x="1284" y="922"/>
      <point x="1284" y="1064" type="curve" smooth="yes"/>
      <point x="1284" y="1352"/>
      <point x="1021" y="1466"/>
      <point x="677" y="1466" type="curve" smooth="yes"/>
      <point x="338" y="1466"/>
      <point x="80" y="1318"/>
      <point x="80" y="980" type="curve"/>
      <point x="446" y="980" type="line"/>
      <point x="462" y="1134"/>
      <point x="544" y="1174"/>
      <point x="666" y="1174" type="curve" smooth="yes"/>
      <point x="771" y="1174"/>
      <point x="872" y="1136"/>
      <point x="872" y="1046" type="curve" smooth="yes"/>
      <point x="872" y="956"/>
      <point x="805" y="908"/>
      <point x="681" y="898" type="curve" smooth="yes"/>
      <point x="555" y="888" type="line"/>
      <point x="555" y="588" type="line"/>
      <point x="700" y="580" type="line" smooth="yes"/>
      <point x="824" y="574"/>
      <point x="900" y="514"/>
      <point x="900" y="436" type="curve" smooth="yes"/>
      <point x="900" y="348"/>
      <point x="818" y="284"/>
      <point x="670" y="284" type="curve" smooth="yes"/>
      <point x="568" y="284"/>
      <point x="477" y="324"/>
      <point x="448" y="476" type="curve"/>
      <point x="80" y="476" type="line"/>
      <point x="80" y="162"/>
      <point x="278" y="-22"/>
    </contour>
  </outline>
</glyph>
<glyph name="four" format="2">
  <advance width="1363"/>
  <unicode hex="0034"/>
  <outline>
    <contour>
      <point x="731" y="0" type="line"/>
      <point x="1102" y="0" type="line"/>
      <point x="1102" y="276" type="line"/>
      <point x="1310" y="276" type="line"/>
      <point x="1310" y="594" type="line"/>
      <point x="1102" y="594" type="line"/>
      <point x="1102" y="1446" type="line"/>
      <point x="726" y="1446" type="line"/>
      <point x="80" y="580" type="line"/>
      <point x="80" y="276" type="line"/>
      <point x="732" y="276" type="line"/>
    </contour>
    <contour>
      <point x="434" y="594" type="line"/>
      <point x="736" y="996" type="line"/>
      <point x="736" y="594" type="line"/>
    </contour>
  </outline>
</glyph>
<glyph name="five" format="2">
  <advance width="1412"/>
  <unicode hex="0035"/>
  <outline>
    <contour>
      <point x="734" y="-22" type="curve" smooth="yes"/>
      <point x="1103" y="-22"/>
      <point x="1332" y="162"/>
      <point x="1332" y="472" type="curve" smooth="yes"/>
      <point x="1332" y="770"/>
      <point x="1118" y="944"/>
      <point x="805" y="944" type="curve" smooth="yes"/>
      <point x="704" y="944"/>
      <point x="637" y="926"/>
      <point x="521" y="894" type="curve"/>
      <point x="542" y="1134" type="line"/>
      <point x="1216" y="1134" type="line"/>
      <point x="1232" y="1446" type="line"/>
      <point x="244" y="1446" type="line"/>
      <point x="177" y="728" type="line"/>
      <point x="440" y="586" type="line" smooth="yes"/>
      <point x="469" y="572"/>
      <point x="471" y="572"/>
      <point x="498" y="584" type="curve" smooth="yes"/>
      <point x="586" y="622"/>
      <point x="632" y="636"/>
      <point x="694" y="636" type="curve" smooth="yes"/>
      <point x="845" y="636"/>
      <point x="927" y="548"/>
      <point x="927" y="458" type="curve" smooth="yes"/>
      <point x="927" y="362"/>
      <point x="832" y="284"/>
      <point x="689" y="284" type="curve" smooth="yes"/>
      <point x="532" y="284"/>
      <point x="456" y="376"/>
      <point x="370" y="486" type="curve"/>
      <point x="80" y="290" type="line"/>
      <point x="187" y="112"/>
      <point x="433" y="-22"/>
    </contour>
  </outline>
</glyph>
<glyph name="six" format="2">
  <advance width="1389"/>
  <unicode hex="0036"/>
  <outline>
    <contour>
      <point x="717" y="-22" type="curve" smooth="yes"/>
      <point x="1059" y="-22"/>
      <point x="1309" y="194"/>
      <point x="1309" y="472" type="curve" smooth="yes"/>
      <point x="1309" y="726"/>
      <point x="1106" y="902"/>
      <point x="805" y="902" type="curve" smooth="yes"/>
      <point x="700" y="902"/>
      <point x="593" y="884"/>
      <point x="515" y="836" type="curve"/>
      <point x="484" y="1004"/>
      <point x="570" y="1166"/>
      <point x="734" y="1166" type="curve" smooth="yes"/>
      <point x="837" y="1166"/>
      <point x="900" y="1120"/>
      <point x="933" y="1012" type="curve"/>
      <point x="1284" y="1012" type="line"/>
      <point x="1284" y="1298"/>
      <point x="1024" y="1466"/>
      <point x="725" y="1466" type="curve" smooth="yes"/>
      <point x="332" y="1466"/>
      <point x="80" y="1176"/>
      <point x="80" y="690" type="curve" smooth="yes"/>
      <point x="80" y="270"/>
      <point x="316" y="-22"/>
    </contour>
    <contour>
      <point x="700" y="266" type="curve" smooth="yes"/>
      <point x="589" y="266"/>
      <point x="511" y="348"/>
      <point x="511" y="516" type="curve"/>
      <point x="511" y="552"/>
      <point x="612" y="622"/>
      <point x="702" y="622" type="curve" smooth="yes"/>
      <point x="795" y="622"/>
      <point x="900" y="578"/>
      <point x="900" y="454" type="curve" smooth="yes"/>
      <point x="900" y="346"/>
      <point x="803" y="266"/>
    </contour>
  </outline>
</glyph>
<glyph name="seven" format="2">
  <advance width="1299"/>
  <unicode hex="0037"/>
  <outline>
    <contour>
      <point x="345" y="0" type="curve"/>
      <point x="763" y="0" type="line"/>
      <point x="754" y="356"/>
      <point x="1017" y="910"/>
      <point x="1219" y="1134" type="curve"/>
      <point x="1219" y="1446" type="line"/>
      <point x="80" y="1446" type="line"/>
      <point x="80" y="1134" type="line"/>
      <point x="822" y="1134" type="line"/>
      <point x="460" y="696"/>
      <point x="345" y="208"/>
    </contour>
  </outline>
</glyph>
<glyph name="eight" format="2">
  <advance width="1384"/>
  <unicode hex="0038"/>
  <outline>
    <contour>
      <point x="692" y="-21" type="curve" smooth="yes"/>
      <point x="1058" y="-21"/>
      <point x="1304" y="144"/>
      <point x="1304" y="410" type="curve" smooth="yes"/>
      <point x="1304" y="574"/>
      <point x="1166" y="720"/>
      <point x="1044" y="748" type="curve"/>
      <point x="1150" y="804"/>
      <point x="1242" y="906"/>
      <point x="1242" y="1048" type="curve" smooth="yes"/>
      <point x="1242" y="1320"/>
      <point x="1006" y="1466"/>
      <point x="692" y="1466" type="curve" smooth="yes"/>
      <point x="378" y="1466"/>
      <point x="142" y="1320"/>
      <point x="142" y="1048" type="curve" smooth="yes"/>
      <point x="142" y="906"/>
      <point x="234" y="804"/>
      <point x="340" y="748" type="curve"/>
      <point x="218" y="720"/>
      <point x="80" y="574"/>
      <point x="80" y="410" type="curve" smooth="yes"/>
      <point x="80" y="144"/>
      <point x="326" y="-21"/>
    </contour>
    <contour>
      <point x="692" y="264" type="curve" smooth="yes"/>
      <point x="565" y="264"/>
      <point x="492" y="328"/>
      <point x="492" y="424" type="curve" smooth="yes"/>
      <point x="492" y="522"/>
      <point x="565" y="588"/>
      <point x="692" y="588" type="curve" smooth="yes"/>
      <point x="820" y="588"/>
      <point x="892" y="522"/>
      <point x="892" y="424" type="curve" smooth="yes"/>
      <point x="892" y="328"/>
      <point x="820" y="264"/>
    </contour>
    <contour>
      <point x="692" y="892" type="curve" smooth="yes"/>
      <point x="600" y="892"/>
      <point x="526" y="954"/>
      <point x="526" y="1054" type="curve" smooth="yes"/>
      <point x="526" y="1154"/>
      <point x="600" y="1216"/>
      <point x="692" y="1216" type="curve" smooth="yes"/>
      <point x="784" y="1216"/>
      <point x="858" y="1154"/>
      <point x="858" y="1054" type="curve" smooth="yes"/>
      <point x="858" y="954"/>
      <point x="784" y="892"/>
    </contour>
  </outline>
</glyph>
<glyph name="nine" format="2">
  <advance width="1380"/>
  <unicode hex="0039"/>
  <outline>
    <contour>
      <point x="653" y="-22" type="curve" smooth="yes"/>
      <point x="1046" y="-22"/>
      <point x="1300" y="214"/>
      <point x="1300" y="760" type="curve" smooth="yes"/>
      <point x="1300" y="1182"/>
      <point x="1064" y="1466"/>
      <point x="664" y="1466" type="curve" smooth="yes"/>
      <point x="321" y="1466"/>
      <point x="80" y="1258"/>
      <point x="80" y="978" type="curve" smooth="yes"/>
      <point x="80" y="706"/>
      <point x="300" y="528"/>
      <point x="602" y="528" type="curve" smooth="yes"/>
      <point x="744" y="528"/>
      <point x="844" y="564"/>
      <point x="908" y="630" type="curve"/>
      <point x="934" y="366"/>
      <point x="800" y="278"/>
      <point x="636" y="278" type="curve" smooth="yes"/>
      <point x="534" y="278"/>
      <point x="470" y="344"/>
      <point x="454" y="438" type="curve"/>
      <point x="88" y="438" type="line"/>
      <point x="90" y="164"/>
      <point x="354" y="-22"/>
    </contour>
    <contour>
      <point x="678" y="828" type="curve" smooth="yes"/>
      <point x="586" y="828"/>
      <point x="496" y="884"/>
      <point x="496" y="996" type="curve" smooth="yes"/>
      <point x="496" y="1106"/>
      <point x="578" y="1182"/>
      <point x="680" y="1182" type="curve" smooth="yes"/>
      <point x="792" y="1182"/>
      <point x="870" y="1104"/>
      <point x="870" y="934" type="curve"/>
      <point x="870" y="898"/>
      <point x="768" y="828"/>
    </contour>
  </outline>
</glyph>
<glyph name="colon" format="2">
  <advance width="620"/>
  <unicode hex="003A"/>
  <outline>
    <contour>
      <point x="90" y="640" type="line"/>
      <point x="500" y="640" type="line"/>
      <point x="500" y="1024" type="line"/>
      <point x="90" y="1024" type="line"/>
    </contour>
    <contour>
      <point x="90" y="6" type="line"/>
      <point x="500" y="6" type="line"/>
      <point x="500" y="390" type="line"/>
      <point x="90" y="390" type="line"/>
    </contour>
  </outline>
</glyph>
<glyph name="semicolon" format="2">
  <advance width="626"/>
  <unicode hex="003B"/>
  <outline>
    <contour>
      <point x="90" y="-330" type="line"/>
      <point x="244" y="-330" type="line"/>
      <point x="506" y="44" type="line"/>
      <point x="506" y="386" type="line"/>
      <point x="96" y="386" type="line"/>
      <point x="96" y="0" type="line"/>
      <point x="236" y="0" type="line"/>
    </contour>
    <contour>
      <point x="96" y="626" type="line"/>
      <point x="506" y="626" type="line"/>
      <point x="506" y="1018" type="line"/>
      <point x="96" y="1018" type="line"/>
    </contour>
  </outline>
</glyph>
<glyph name="equal" format="2">
  <advance width="1238"/>
  <unicode hex="003D"/>
  <outline>
    <contour>
      <point x="110" y="778" type="line"/>
      <point x="1128" y="778" type="line"/>
      <point x="1128" y="1054" type="line"/>
      <point x="110" y="1054" type="line"/>
    </contour>
    <contour>
      <point x="110" y="308" type="line"/>
      <point x="1128" y="308" type="line"/>
      <point x="1128" y="584" type="line"/>
      <point x="110" y="584" type="line"/>
    </contour>
  </outline>
</glyph>
<glyph name="greater" format="2">
  <advance width="1214"/>
  <unicode hex="003E"/>
  <outline>
    <contour>
      <point x="110" y="144" type="line"/>
      <point x="1104" y="526" type="line"/>
      <point x="1104" y="836" type="line"/>
      <point x="110" y="1218" type="line"/>
      <point x="110" y="898" type="line"/>
      <point x="692" y="678" type="line"/>
      <point x="110" y="468" type="line"/>
    </contour>
  </outline>
</glyph>
<glyph name="question" format="2">
  <advance width="1094"/>
  <unicode hex="003F"/>
  <outline>
    <contour>
      <point x="366" y="524" type="curve"/>
      <point x="670" y="524" type="line"/>
      <point x="670" y="804"/>
      <point x="1044" y="818"/>
      <point x="1044" y="1132" type="curve" smooth="yes"/>
      <point x="1044" y="1308"/>
      <point x="842" y="1466"/>
      <point x="540" y="1466" type="curve" smooth="yes"/>
      <point x="270" y="1466"/>
      <point x="86" y="1340"/>
      <point x="0" y="1102" type="curve"/>
      <point x="324" y="1032" type="line"/>
      <point x="368" y="1148"/>
      <point x="448" y="1212"/>
      <point x="536" y="1212" type="curve" smooth="yes"/>
      <point x="604" y="1212"/>
      <point x="664" y="1172"/>
      <point x="664" y="1110" type="curve" smooth="yes"/>
      <point x="664" y="956"/>
      <point x="366" y="884"/>
    </contour>
    <contour>
      <point x="312" y="0" type="line"/>
      <point x="722" y="0" type="line"/>
      <point x="722" y="384" type="line"/>
      <point x="312" y="384" type="line"/>
    </contour>
  </outline>
</glyph>
<glyph name="at" format="2">
  <advance width="1648"/>
  <unicode hex="0040"/>
  <outline>
    <contour>
      <point x="829" y="-220" type="curve" smooth="yes"/>
      <point x="1060" y="-220"/>
      <point x="1241" y="-144"/>
      <point x="1329" y="-68" type="curve"/>
      <point x="1224" y="74" type="line"/>
      <point x="1128" y="10"/>
      <point x="1046" y="-40"/>
      <point x="864" y="-40" type="curve" smooth="yes"/>
      <point x="514" y="-40"/>
      <point x="280" y="144"/>
      <point x="280" y="516" type="curve" smooth="yes"/>
      <point x="280" y="826"/>
      <point x="442" y="1092"/>
      <point x="873" y="1092" type="curve" smooth="yes"/>
      <point x="1138" y="1092"/>
      <point x="1376" y="990"/>
      <point x="1376" y="648" type="curve" smooth="yes"/>
      <point x="1376" y="444"/>
      <point x="1294" y="360"/>
      <point x="1226" y="360" type="curve" smooth="yes"/>
      <point x="1192" y="360"/>
      <point x="1166" y="382"/>
      <point x="1180" y="458" type="curve" smooth="yes"/>
      <point x="1250" y="876" type="line"/>
      <point x="1042" y="876" type="line"/>
      <point x="1037" y="852" type="line" smooth="yes"/>
      <point x="1035" y="838"/>
      <point x="1028" y="836"/>
      <point x="1020" y="844" type="curve" smooth="yes"/>
      <point x="974" y="886"/>
      <point x="928" y="926"/>
      <point x="818" y="926" type="curve" smooth="yes"/>
      <point x="566" y="926"/>
      <point x="411" y="708"/>
      <point x="411" y="476" type="curve" smooth="yes"/>
      <point x="409" y="266"/>
      <point x="542" y="130"/>
      <point x="722" y="130" type="curve" smooth="yes"/>
      <point x="825" y="130"/>
      <point x="916" y="176"/>
      <point x="974" y="240" type="curve" smooth="yes"/>
      <point x="986" y="254"/>
      <point x="988" y="256"/>
      <point x="1000" y="242" type="curve" smooth="yes"/>
      <point x="1024" y="214"/>
      <point x="1075" y="158"/>
      <point x="1198" y="158" type="curve" smooth="yes"/>
      <point x="1432" y="158"/>
      <point x="1588" y="364"/>
      <point x="1588" y="660" type="curve" smooth="yes"/>
      <point x="1588" y="1102"/>
      <point x="1236" y="1288"/>
      <point x="873" y="1288" type="curve" smooth="yes"/>
      <point x="367" y="1288"/>
      <point x="60" y="930"/>
      <point x="60" y="510" type="curve" smooth="yes"/>
      <point x="60" y="108"/>
      <point x="346" y="-220"/>
    </contour>
    <contour>
      <point x="792" y="348" type="curve" smooth="yes"/>
      <point x="705" y="348"/>
      <point x="668" y="426"/>
      <point x="668" y="504" type="curve" smooth="yes"/>
      <point x="668" y="620"/>
      <point x="750" y="710"/>
      <point x="838" y="710" type="curve" smooth="yes"/>
      <point x="922" y="710"/>
      <point x="964" y="630"/>
      <point x="964" y="552" type="curve" smooth="yes"/>
      <point x="964" y="452"/>
      <point x="892" y="348"/>
    </contour>
  </outline>
</glyph>
<glyph name="A" format="2">
  <advance width="1482"/>
  <unicode hex="0041"/>
  <guideline x="1452" y="0" angle="108.62"/>
  <guideline x="30" y="0" angle="251.38"/>
  <anchor x="742" y="0" name="bottom"/>
  <anchor x="1406" y="10" name="ogonek"/>
  <anchor x="742" y="1446" name="top"/>
  <outline>
    <contour>
      <point x="30" y="0" type="line"/>
      <point x="418" y="0" type="line"/>
      <point x="516" y="280" type="line"/>
      <point x="972" y="280" type="line"/>
      <point x="1068" y="0" type="line"/>
      <point x="1452" y="0" type="line"/>
      <point x="940" y="1446" type="line"/>
      <point x="542" y="1446" type="line"/>
    </contour>
    <contour>
      <point x="598" y="612" type="line"/>
      <point x="742" y="1074" type="line"/>
      <point x="884" y="612" type="line"/>
    </contour>
  </outline>
</glyph>
<glyph name="B" format="2">
  <advance width="1395"/>
  <unicode hex="0042"/>
  <outline>
    <contour>
      <point x="135" y="0" type="line"/>
      <point x="745" y="0" type="line" smooth="yes"/>
      <point x="1165" y="0"/>
      <point x="1327" y="124"/>
      <point x="1327" y="394" type="curve"/>
      <point x="1327" y="502"/>
      <point x="1312" y="668"/>
      <point x="1059" y="744" type="curve"/>
      <point x="1237" y="832"/>
      <point x="1293" y="930"/>
      <point x="1293" y="1064" type="curve" smooth="yes"/>
      <point x="1293" y="1310"/>
      <point x="1117" y="1446"/>
      <point x="713" y="1446" type="curve" smooth="yes"/>
      <point x="135" y="1446" type="line"/>
    </contour>
    <contour>
      <point x="524" y="292" type="line"/>
      <point x="524" y="582" type="line"/>
      <point x="769" y="582" type="line"/>
      <point x="867" y="582"/>
      <point x="931" y="522"/>
      <point x="931" y="442" type="curve" smooth="yes"/>
      <point x="931" y="366"/>
      <point x="873" y="292"/>
      <point x="759" y="292" type="curve"/>
    </contour>
    <contour>
      <point x="524" y="882" type="line"/>
      <point x="524" y="1154" type="line"/>
      <point x="755" y="1154" type="line" smooth="yes"/>
      <point x="847" y="1154"/>
      <point x="919" y="1100"/>
      <point x="919" y="1014" type="curve" smooth="yes"/>
      <point x="919" y="938"/>
      <point x="861" y="882"/>
      <point x="769" y="882" type="curve" smooth="yes"/>
    </contour>
  </outline>
</glyph>
<glyph name="C" format="2">
  <advance width="1490"/>
  <unicode hex="0043"/>
  <anchor x="777" y="0" name="bottom"/>
  <anchor x="777" y="1446" name="top"/>
  <outline>
    <contour>
      <point x="777" y="-20" type="curve" smooth="yes"/>
      <point x="1239" y="-20"/>
      <point x="1365" y="240"/>
      <point x="1405" y="540" type="curve"/>
      <point x="999" y="540" type="line"/>
      <point x="977" y="406"/>
      <point x="897" y="292"/>
      <point x="764" y="292" type="curve" smooth="yes"/>
      <point x="617" y="292"/>
      <point x="512" y="414"/>
      <point x="512" y="736" type="curve" smooth="yes"/>
      <point x="512" y="1054"/>
      <point x="617" y="1154"/>
      <point x="764" y="1154" type="curve" smooth="yes"/>
      <point x="897" y="1154"/>
      <point x="977" y="1070"/>
      <point x="999" y="936" type="curve"/>
      <point x="1405" y="936" type="line"/>
      <point x="1373" y="1248"/>
      <point x="1121" y="1466"/>
      <point x="777" y="1466" type="curve" smooth="yes"/>
      <point x="355" y="1466"/>
      <point x="85" y="1182"/>
      <point x="85" y="742" type="curve" smooth="yes"/>
      <point x="85" y="302"/>
      <point x="359" y="-20"/>
    </contour>
  </outline>
</glyph>
<glyph name="D" format="2">
  <advance width="1488"/>
  <unicode hex="0044"/>
  <anchor x="705" y="0" name="bottom"/>
  <anchor x="743" y="724" name="center"/>
  <anchor x="743" y="1446" name="top"/>
  <outline>
    <contour>
      <point x="135" y="0" type="line"/>
      <point x="653" y="0" type="line" smooth="yes"/>
      <point x="1165" y="0"/>
      <point x="1403" y="306"/>
      <point x="1403" y="728" type="curve" smooth="yes"/>
      <point x="1403" y="1138"/>
      <point x="1177" y="1426"/>
      <point x="655" y="1444" type="curve" smooth="yes"/>
      <point x="529" y="1448"/>
      <point x="177" y="1446"/>
      <point x="135" y="1446" type="curve"/>
    </contour>
    <contour>
      <point x="524" y="306" type="line"/>
      <point x="524" y="1140" type="line"/>
      <point x="665" y="1140" type="line" smooth="yes"/>
      <point x="863" y="1140"/>
      <point x="997" y="1000"/>
      <point x="997" y="734" type="curve" smooth="yes"/>
      <point x="997" y="420"/>
      <point x="812" y="306"/>
      <point x="665" y="306" type="curve" smooth="yes"/>
    </contour>
  </outline>
</glyph>
<glyph name="E" format="2">
  <advance width="1295"/>
  <unicode hex="0045"/>
  <anchor x="669" y="0" name="bottom"/>
  <anchor x="1203" y="20" name="ogonek"/>
  <anchor x="669" y="1446" name="top"/>
  <outline>
    <contour>
      <point x="135" y="0" type="line"/>
      <point x="1205" y="0" type="line"/>
      <point x="1205" y="324" type="line"/>
      <point x="524" y="324" type="line"/>
      <point x="524" y="570" type="line"/>
      <point x="1091" y="570" type="line"/>
      <point x="1091" y="884" type="line"/>
      <point x="527" y="884" type="line"/>
      <point x="527" y="1124" type="line"/>
      <point x="1201" y="1124" type="line"/>
      <point x="1203" y="1446" type="line"/>
      <point x="135" y="1446" type="line"/>
    </contour>
  </outline>
</glyph>
<glyph name="F" format="2">
  <advance width="1263"/>
  <unicode hex="0046"/>
  <outline>
    <contour>
      <point x="135" y="0" type="line"/>
      <point x="524" y="0" type="line"/>
      <point x="524" y="558" type="line"/>
      <point x="1083" y="558" type="line"/>
      <point x="1083" y="868" type="line"/>
      <point x="524" y="868" type="line"/>
      <point x="524" y="1128" type="line"/>
      <point x="1193" y="1128" type="line"/>
      <point x="1195" y="1446" type="line"/>
      <point x="135" y="1446" type="line"/>
    </contour>
  </outline>
</glyph>
<glyph name="G" format="2">
  <advance width="1565"/>
  <unicode hex="0047"/>
  <anchor x="773" y="0" name="bottom"/>
  <anchor x="781" y="1446" name="top"/>
  <outline>
    <contour>
      <point x="769" y="-20" type="curve" smooth="yes"/>
      <point x="1008" y="-20"/>
      <point x="1109" y="86"/>
      <point x="1182" y="160" type="curve"/>
      <point x="1182" y="0" type="line"/>
      <point x="1437" y="0" type="line"/>
      <point x="1437" y="764" type="line"/>
      <point x="775" y="768" type="line"/>
      <point x="775" y="506" type="line"/>
      <point x="1027" y="506" type="line"/>
      <point x="1010" y="454" type="line"/>
      <point x="989" y="388"/>
      <point x="909" y="318"/>
      <point x="800" y="318" type="curve" smooth="yes"/>
      <point x="676" y="318"/>
      <point x="510" y="376"/>
      <point x="510" y="730" type="curve" smooth="yes"/>
      <point x="510" y="1042"/>
      <point x="640" y="1144"/>
      <point x="783" y="1144" type="curve" smooth="yes"/>
      <point x="919" y="1144"/>
      <point x="993" y="1054"/>
      <point x="1019" y="936" type="curve"/>
      <point x="1426" y="936" type="line"/>
      <point x="1421" y="1206"/>
      <point x="1182" y="1466"/>
      <point x="793" y="1466" type="curve" smooth="yes"/>
      <point x="377" y="1466"/>
      <point x="85" y="1168"/>
      <point x="85" y="718" type="curve" smooth="yes"/>
      <point x="85" y="282"/>
      <point x="357" y="-20"/>
    </contour>
  </outline>
</glyph>
<glyph name="H" format="2">
  <advance width="1547"/>
  <unicode hex="0048"/>
  <anchor x="774" y="0" name="bottom"/>
  <anchor x="777" y="1446" name="top"/>
  <outline>
    <contour>
      <point x="135" y="0" type="line"/>
      <point x="524" y="0" type="line"/>
      <point x="524" y="580" type="line"/>
      <point x="1023" y="580" type="line"/>
      <point x="1023" y="0" type="line"/>
      <point x="1412" y="0" type="line"/>
      <point x="1412" y="1446" type="line"/>
      <point x="1023" y="1446" type="line"/>
      <point x="1023" y="898" type="line"/>
      <point x="524" y="898" type="line"/>
      <point x="524" y="1446" type="line"/>
      <point x="135" y="1446" type="line"/>
    </contour>
  </outline>
</glyph>
<glyph name="I" format="2">
  <advance width="659"/>
  <unicode hex="0049"/>
  <anchor x="351" y="0" name="bottom"/>
  <anchor x="477" y="8" name="ogonek"/>
  <anchor x="331" y="1446" name="top"/>
  <outline>
    <contour>
      <point x="135" y="0" type="line"/>
      <point x="524" y="0" type="line"/>
      <point x="524" y="1446" type="line"/>
      <point x="135" y="1446" type="line"/>
    </contour>
  </outline>
</glyph>
<glyph name="J" format="2">
  <advance width="828"/>
  <unicode hex="004A"/>
  <anchor x="516" y="1446" name="top"/>
  <outline>
    <contour>
      <point x="292" y="-20" type="curve" smooth="yes"/>
      <point x="642" y="-20"/>
      <point x="720" y="138"/>
      <point x="720" y="458" type="curve" smooth="yes"/>
      <point x="720" y="1446" type="line"/>
      <point x="330" y="1446" type="line"/>
      <point x="330" y="558" type="line" smooth="yes"/>
      <point x="330" y="408"/>
      <point x="296" y="340"/>
      <point x="158" y="340" type="curve" smooth="yes"/>
      <point x="116" y="340"/>
      <point x="66" y="346"/>
      <point x="30" y="350" type="curve"/>
      <point x="30" y="0" type="line"/>
      <point x="90" y="-12"/>
      <point x="210" y="-20"/>
    </contour>
  </outline>
</glyph>
<glyph name="K" format="2">
  <advance width="1497"/>
  <unicode hex="004B"/>
  <anchor x="719" y="0" name="bottom"/>
  <anchor x="745" y="1446" name="top"/>
  <outline>
    <contour>
      <point x="135" y="0" type="line"/>
      <point x="539" y="0" type="line"/>
      <point x="539" y="378" type="line"/>
      <point x="719" y="610" type="line"/>
      <point x="1041" y="0" type="line"/>
      <point x="1459" y="0" type="line"/>
      <point x="997" y="894" type="line"/>
      <point x="1394" y="1446" type="line"/>
      <point x="957" y="1446" type="line"/>
      <point x="539" y="862" type="line"/>
      <point x="539" y="1446" type="line"/>
      <point x="135" y="1446" type="line"/>
    </contour>
  </outline>
</glyph>
<glyph name="L" format="2">
  <advance width="1156"/>
  <unicode hex="004C"/>
  <anchor x="613" y="0" name="bottom"/>
  <anchor x="701" y="1446" name="caron"/>
  <anchor x="321" y="1446" name="top"/>
  <outline>
    <contour>
      <point x="135" y="0" type="line"/>
      <point x="1102" y="0" type="line"/>
      <point x="1102" y="320" type="line"/>
      <point x="524" y="320" type="line"/>
      <point x="524" y="1446" type="line"/>
      <point x="135" y="1446" type="line"/>
    </contour>
  </outline>
</glyph>
<glyph name="M" format="2">
  <advance width="1894"/>
  <unicode hex="004D"/>
  <outline>
    <contour>
      <point x="135" y="0" type="line"/>
      <point x="524" y="0" type="line"/>
      <point x="524" y="1048" type="line"/>
      <point x="807" y="0" type="line"/>
      <point x="1087" y="0" type="line"/>
      <point x="1369" y="1048" type="line"/>
      <point x="1369" y="0" type="line"/>
      <point x="1759" y="0" type="line"/>
      <point x="1759" y="1446" type="line"/>
      <point x="1183" y="1446" type="line"/>
      <point x="947" y="564" type="line"/>
      <point x="713" y="1446" type="line"/>
      <point x="135" y="1446" type="line"/>
    </contour>
  </outline>
</glyph>
<glyph name="N" format="2">
  <advance width="1615"/>
  <unicode hex="004E"/>
  <anchor x="807" y="0" name="bottom"/>
  <anchor x="807" y="1446" name="top"/>
  <outline>
    <contour>
      <point x="135" y="0" type="line"/>
      <point x="524" y="0" type="line"/>
      <point x="524" y="862" type="line"/>
      <point x="1129" y="0" type="line"/>
      <point x="1480" y="0" type="line"/>
      <point x="1480" y="1446" type="line"/>
      <point x="1091" y="1446" type="line"/>
      <point x="1091" y="640" type="line"/>
      <point x="527" y="1446" type="line"/>
      <point x="135" y="1446" type="line"/>
    </contour>
  </outline>
</glyph>
<glyph name="O" format="2">
  <advance width="1570"/>
  <unicode hex="004F"/>
  <guideline x="-513" y="389" angle="90"/>
  <anchor x="789" y="0" name="bottom"/>
  <anchor x="1275" y="1094" name="horn"/>
  <anchor x="968" y="20" name="ogonek"/>
  <anchor x="785" y="1446" name="top"/>
  <outline>
    <contour>
      <point x="787" y="-20" type="curve" smooth="yes"/>
      <point x="1213" y="-20"/>
      <point x="1485" y="272"/>
      <point x="1485" y="720" type="curve" smooth="yes"/>
      <point x="1485" y="1172"/>
      <point x="1207" y="1466"/>
      <point x="787" y="1466" type="curve" smooth="yes"/>
      <point x="365" y="1466"/>
      <point x="85" y="1172"/>
      <point x="85" y="720" type="curve" smooth="yes"/>
      <point x="85" y="270"/>
      <point x="357" y="-20"/>
    </contour>
    <contour>
      <point x="787" y="292" type="curve" smooth="yes"/>
      <point x="627" y="292"/>
      <point x="510" y="402"/>
      <point x="510" y="714" type="curve" smooth="yes"/>
      <point x="510" y="1036"/>
      <point x="627" y="1154"/>
      <point x="787" y="1154" type="curve" smooth="yes"/>
      <point x="947" y="1154"/>
      <point x="1063" y="1036"/>
      <point x="1063" y="714" type="curve" smooth="yes"/>
      <point x="1063" y="402"/>
      <point x="947" y="292"/>
    </contour>
  </outline>
</glyph>
<glyph name="P" format="2">
  <advance width="1334"/>
  <unicode hex="0050"/>
  <outline>
    <contour>
      <point x="135" y="0" type="line"/>
      <point x="524" y="0" type="line"/>
      <point x="524" y="498" type="line"/>
      <point x="757" y="498" type="line" smooth="yes"/>
      <point x="1075" y="498"/>
      <point x="1274" y="670"/>
      <point x="1274" y="956" type="curve" smooth="yes"/>
      <point x="1274" y="1270"/>
      <point x="1027" y="1446"/>
      <point x="707" y="1446" type="curve" smooth="yes"/>
      <point x="135" y="1446" type="line"/>
    </contour>
    <contour>
      <point x="520" y="788" type="line"/>
      <point x="520" y="1158" type="line"/>
      <point x="745" y="1158" type="line" smooth="yes"/>
      <point x="831" y="1158"/>
      <point x="917" y="1076"/>
      <point x="917" y="976" type="curve" smooth="yes"/>
      <point x="917" y="882"/>
      <point x="843" y="788"/>
      <point x="745" y="788" type="curve" smooth="yes"/>
    </contour>
  </outline>
</glyph>
<glyph name="Q" format="2">
  <advance width="1593"/>
  <unicode hex="0051"/>
  <outline>
    <contour>
      <point x="1487" y="-250" type="curve"/>
      <point x="1487" y="54" type="line"/>
      <point x="1390" y="54"/>
      <point x="1300" y="104"/>
      <point x="1283" y="160" type="curve"/>
      <point x="1413" y="300"/>
      <point x="1487" y="486"/>
      <point x="1487" y="720" type="curve" smooth="yes"/>
      <point x="1487" y="1172"/>
      <point x="1209" y="1466"/>
      <point x="787" y="1466" type="curve" smooth="yes"/>
      <point x="365" y="1466"/>
      <point x="85" y="1172"/>
      <point x="85" y="720" type="curve" smooth="yes"/>
      <point x="85" y="270"/>
      <point x="357" y="-20"/>
      <point x="787" y="-20" type="curve" smooth="yes"/>
      <point x="837" y="-20"/>
      <point x="877" y="-18"/>
      <point x="947" y="-10" type="curve"/>
      <point x="1119" y="-226"/>
      <point x="1255" y="-250"/>
    </contour>
    <contour>
      <point x="787" y="292" type="curve" smooth="yes"/>
      <point x="615" y="292"/>
      <point x="512" y="402"/>
      <point x="512" y="716" type="curve" smooth="yes"/>
      <point x="512" y="1038"/>
      <point x="619" y="1154"/>
      <point x="787" y="1154" type="curve" smooth="yes"/>
      <point x="955" y="1154"/>
      <point x="1063" y="1038"/>
      <point x="1063" y="716" type="curve" smooth="yes"/>
      <point x="1063" y="402"/>
      <point x="959" y="292"/>
    </contour>
  </outline>
</glyph>
<glyph name="R" format="2">
  <advance width="1427"/>
  <unicode hex="0052"/>
  <anchor x="719" y="0" name="bottom"/>
  <anchor x="699" y="1446" name="top"/>
  <outline>
    <contour>
      <point x="135" y="0" type="line"/>
      <point x="524" y="0" type="line"/>
      <point x="524" y="498" type="line"/>
      <point x="728" y="498" type="line"/>
      <point x="938" y="0" type="line"/>
      <point x="1337" y="0" type="line"/>
      <point x="1083" y="560" type="line"/>
      <point x="1217" y="642"/>
      <point x="1312" y="758"/>
      <point x="1312" y="980" type="curve" smooth="yes"/>
      <point x="1312" y="1242"/>
      <point x="1167" y="1446"/>
      <point x="791" y="1446" type="curve" smooth="yes"/>
      <point x="135" y="1446" type="line"/>
    </contour>
    <contour>
      <point x="524" y="788" type="line"/>
      <point x="524" y="1158" type="line"/>
      <point x="747" y="1158" type="line" smooth="yes"/>
      <point x="835" y="1158"/>
      <point x="921" y="1076"/>
      <point x="921" y="976" type="curve" smooth="yes"/>
      <point x="921" y="882"/>
      <point x="847" y="788"/>
      <point x="747" y="788" type="curve" smooth="yes"/>
    </contour>
  </outline>
</glyph>
<glyph name="S" format="2">
  <advance width="1424"/>
  <unicode hex="0053"/>
  <anchor x="720" y="0" name="bottom"/>
  <anchor x="720" y="1446" name="top"/>
  <outline>
    <contour>
      <point x="726" y="-20" type="curve" smooth="yes"/>
      <point x="1081" y="-20"/>
      <point x="1347" y="164"/>
      <point x="1347" y="446" type="curve" smooth="yes"/>
      <point x="1347" y="678"/>
      <point x="1213" y="837"/>
      <point x="911" y="886" type="curve" smooth="yes"/>
      <point x="696" y="921" type="line" smooth="yes"/>
      <point x="574" y="941"/>
      <point x="534" y="984"/>
      <point x="534" y="1044" type="curve" smooth="yes"/>
      <point x="534" y="1102"/>
      <point x="584" y="1164"/>
      <point x="728" y="1164" type="curve" smooth="yes"/>
      <point x="861" y="1164"/>
      <point x="940" y="1117"/>
      <point x="952" y="1008" type="curve"/>
      <point x="1338" y="1008" type="line"/>
      <point x="1332" y="1276"/>
      <point x="1116" y="1464"/>
      <point x="739" y="1464" type="curve" smooth="yes"/>
      <point x="392" y="1464"/>
      <point x="126" y="1294"/>
      <point x="126" y="1002" type="curve" smooth="yes"/>
      <point x="126" y="756"/>
      <point x="277" y="617"/>
      <point x="536" y="571" type="curve" smooth="yes"/>
      <point x="783" y="527" type="line" smooth="yes"/>
      <point x="878" y="510"/>
      <point x="958" y="488"/>
      <point x="958" y="404" type="curve" smooth="yes"/>
      <point x="958" y="308"/>
      <point x="843" y="278"/>
      <point x="750" y="278" type="curve" smooth="yes"/>
      <point x="591" y="278"/>
      <point x="503" y="338"/>
      <point x="481" y="440" type="curve"/>
      <point x="85" y="440" type="line"/>
      <point x="110" y="128"/>
      <point x="428" y="-20"/>
    </contour>
  </outline>
</glyph>
<glyph name="T" format="2">
  <advance width="1274"/>
  <unicode hex="0054"/>
  <anchor x="654" y="0" name="bottom"/>
  <anchor x="654" y="1446" name="top"/>
  <outline>
    <contour>
      <point x="30" y="1104" type="line"/>
      <point x="440" y="1104" type="line"/>
      <point x="440" y="0" type="line"/>
      <point x="830" y="0" type="line"/>
      <point x="830" y="1104" type="line"/>
      <point x="1244" y="1104" type="line"/>
      <point x="1244" y="1446" type="line"/>
      <point x="30" y="1446" type="line"/>
    </contour>
  </outline>
</glyph>
<glyph name="U" format="2">
  <advance width="1491"/>
  <unicode hex="0055"/>
  <anchor x="759" y="0" name="bottom"/>
  <anchor x="1314" y="1094" name="horn"/>
  <anchor x="917" y="24" name="ogonek"/>
  <anchor x="759" y="1446" name="top"/>
  <outline>
    <contour>
      <point x="759" y="-20" type="curve" smooth="yes"/>
      <point x="1225" y="-20"/>
      <point x="1383" y="230"/>
      <point x="1383" y="598" type="curve" smooth="yes"/>
      <point x="1383" y="1446" type="line"/>
      <point x="989" y="1446" type="line"/>
      <point x="989" y="582" type="line" smooth="yes"/>
      <point x="989" y="382"/>
      <point x="879" y="306"/>
      <point x="759" y="306" type="curve" smooth="yes"/>
      <point x="637" y="306"/>
      <point x="529" y="382"/>
      <point x="529" y="582" type="curve" smooth="yes"/>
      <point x="529" y="1446" type="line"/>
      <point x="135" y="1446" type="line"/>
      <point x="135" y="598" type="line" smooth="yes"/>
      <point x="135" y="230"/>
      <point x="293" y="-20"/>
    </contour>
  </outline>
</glyph>
<glyph name="V" format="2">
  <advance width="1464"/>
  <unicode hex="0056"/>
  <guideline x="946" y="0" angle="251.38"/>
  <outline>
    <contour>
      <point x="1434" y="1446" type="line"/>
      <point x="1066" y="1446" type="line"/>
      <point x="732" y="456" type="line"/>
      <point x="397" y="1446" type="line"/>
      <point x="30" y="1446" type="line"/>
      <point x="518" y="0" type="line"/>
      <point x="946" y="0" type="line"/>
    </contour>
  </outline>
</glyph>
<glyph name="W" format="2">
  <advance width="1964"/>
  <unicode hex="0057"/>
  <anchor x="982" y="1446" name="top"/>
  <outline>
    <contour>
      <point x="466" y="0" type="line"/>
      <point x="752" y="0" type="line"/>
      <point x="982" y="786" type="line"/>
      <point x="1212" y="0" type="line"/>
      <point x="1502" y="0" type="line"/>
      <point x="1934" y="1446" type="line"/>
      <point x="1558" y="1446" type="line"/>
      <point x="1342" y="670" type="line"/>
      <point x="1118" y="1446" type="line"/>
      <point x="846" y="1446" type="line"/>
      <point x="630" y="670" type="line"/>
      <point x="406" y="1446" type="line"/>
      <point x="30" y="1446" type="line"/>
    </contour>
  </outline>
</glyph>
<glyph name="X" format="2">
  <advance width="1486"/>
  <unicode hex="0058"/>
  <outline>
    <contour>
      <point x="1456" y="0" type="line"/>
      <point x="946" y="786" type="line"/>
      <point x="1378" y="1446" type="line"/>
      <point x="970" y="1446" type="line"/>
      <point x="748" y="1054" type="line"/>
      <point x="524" y="1446" type="line"/>
      <point x="42" y="1446" type="line"/>
      <point x="502" y="730" type="line"/>
      <point x="30" y="0" type="line"/>
      <point x="444" y="0" type="line"/>
      <point x="704" y="454" type="line"/>
      <point x="970" y="0" type="line"/>
    </contour>
  </outline>
</glyph>
<glyph name="Y" format="2">
  <advance width="1444"/>
  <unicode hex="0059"/>
  <anchor x="721" y="0" name="bottom"/>
  <anchor x="771" y="1446" name="top"/>
  <outline>
    <contour>
      <point x="524" y="0" type="line"/>
      <point x="914" y="0" type="line"/>
      <point x="914" y="602" type="line"/>
      <point x="1429" y="1446" type="line"/>
      <point x="1004" y="1446" type="line"/>
      <point x="721" y="932" type="line"/>
      <point x="435" y="1446" type="line"/>
      <point x="15" y="1446" type="line"/>
      <point x="524" y="602" type="line"/>
    </contour>
  </outline>
</glyph>
<glyph name="Z" format="2">
  <advance width="1399"/>
  <unicode hex="005A"/>
  <anchor x="716" y="0" name="bottom"/>
  <anchor x="762" y="1446" name="top"/>
  <outline>
    <contour>
      <point x="90" y="0" type="line"/>
      <point x="1319" y="0" type="line"/>
      <point x="1319" y="324" type="line"/>
      <point x="636" y="324" type="line"/>
      <point x="1331" y="1276" type="line"/>
      <point x="1331" y="1446" type="line"/>
      <point x="153" y="1446" type="line"/>
      <point x="153" y="1126" type="line"/>
      <point x="771" y="1126" type="line"/>
      <point x="90" y="178" type="line"/>
    </contour>
  </outline>
</glyph>
<glyph name="bracketleft" format="2">
  <advance width="736"/>
  <unicode hex="005B"/>
  <outline>
    <contour>
      <point x="120" y="-322" type="line"/>
      <point x="656" y="-322" type="line"/>
      <point x="656" y="-114" type="line"/>
      <point x="430" y="-114" type="line"/>
      <point x="430" y="1238" type="line"/>
      <point x="656" y="1238" type="line"/>
      <point x="656" y="1446" type="line"/>
      <point x="120" y="1446" type="line"/>
    </contour>
  </outline>
</glyph>
<glyph name="backslash" format="2">
  <advance width="818"/>
  <unicode hex="005C"/>
  <outline>
    <contour>
      <point x="530" y="0" type="line"/>
      <point x="788" y="0" type="line"/>
      <point x="278" y="1446" type="line"/>
      <point x="20" y="1446" type="line"/>
    </contour>
  </outline>
</glyph>
<glyph name="bracketright" format="2">
  <advance width="736"/>
  <unicode hex="005D"/>
  <outline>
    <contour>
      <point x="80" y="-322" type="line"/>
      <point x="616" y="-322" type="line"/>
      <point x="616" y="1446" type="line"/>
      <point x="80" y="1446" type="line"/>
      <point x="80" y="1238" type="line"/>
      <point x="306" y="1238" type="line"/>
      <point x="306" y="-114" type="line"/>
      <point x="80" y="-114" type="line"/>
    </contour>
  </outline>
</glyph>
<glyph name="asciicircum" format="2">
  <advance width="988"/>
  <unicode hex="005E"/>
  <outline>
    <contour>
      <point x="664" y="234" type="line"/>
      <point x="908" y="234" type="line"/>
      <point x="588" y="984" type="line" smooth="yes"/>
      <point x="546" y="1078"/>
      <point x="414" y="1072"/>
      <point x="374" y="982" type="curve" smooth="yes"/>
      <point x="50" y="234" type="line"/>
      <point x="296" y="234" type="line"/>
      <point x="480" y="678" type="line"/>
    </contour>
  </outline>
</glyph>
<glyph name="underscore" format="2">
  <advance width="1170"/>
  <unicode hex="005F"/>
  <outline>
    <contour>
      <point x="1050" y="-40" type="line"/>
      <point x="110" y="-40" type="line"/>
      <point x="110" y="-312" type="line"/>
      <point x="1050" y="-312" type="line"/>
    </contour>
  </outline>
</glyph>
<glyph name="a" format="2">
  <advance width="1157"/>
  <unicode hex="0061"/>
  <anchor x="597" y="0" name="bottom"/>
  <anchor x="1011" y="20" name="ogonek"/>
  <anchor x="604" y="1034" name="top"/>
  <outline>
    <contour>
      <point x="423" y="-20" type="curve" smooth="yes"/>
      <point x="564" y="-20"/>
      <point x="649" y="24"/>
      <point x="711" y="164" type="curve"/>
      <point x="745" y="0" type="line"/>
      <point x="1067" y="0" type="line"/>
      <point x="1067" y="732" type="line" smooth="yes"/>
      <point x="1067" y="922"/>
      <point x="959" y="1054"/>
      <point x="599" y="1054" type="curve" smooth="yes"/>
      <point x="333" y="1054"/>
      <point x="117" y="956"/>
      <point x="106" y="712" type="curve"/>
      <point x="421" y="712" type="line"/>
      <point x="453" y="782"/>
      <point x="527" y="800"/>
      <point x="581" y="802" type="curve" smooth="yes"/>
      <point x="659" y="804"/>
      <point x="695" y="774"/>
      <point x="695" y="708" type="curve" smooth="yes"/>
      <point x="695" y="664" type="line"/>
      <point x="615" y="664" type="line" smooth="yes"/>
      <point x="239" y="664"/>
      <point x="66" y="534"/>
      <point x="66" y="310" type="curve" smooth="yes"/>
      <point x="66" y="96"/>
      <point x="228" y="-20"/>
    </contour>
    <contour>
      <point x="560" y="226" type="curve" smooth="yes"/>
      <point x="493" y="226"/>
      <point x="431" y="272"/>
      <point x="431" y="350" type="curve" smooth="yes"/>
      <point x="431" y="452"/>
      <point x="571" y="480"/>
      <point x="633" y="480" type="curve" smooth="yes"/>
      <point x="695" y="480" type="line"/>
      <point x="695" y="350" type="line"/>
      <point x="693" y="284"/>
      <point x="635" y="226"/>
    </contour>
  </outline>
</glyph>
<glyph name="b" format="2">
  <advance width="1238"/>
  <unicode hex="0062"/>
  <anchor x="730" y="0" name="bottom"/>
  <outline>
    <contour>
      <point x="734" y="-20" type="curve" smooth="yes"/>
      <point x="1020" y="-20"/>
      <point x="1178" y="194"/>
      <point x="1178" y="524" type="curve" smooth="yes"/>
      <point x="1178" y="850"/>
      <point x="1030" y="1054"/>
      <point x="776" y="1054" type="curve" smooth="yes"/>
      <point x="673" y="1054"/>
      <point x="554" y="1022"/>
      <point x="490" y="916" type="curve"/>
      <point x="490" y="1486" type="line"/>
      <point x="100" y="1486" type="line"/>
      <point x="100" y="0" type="line"/>
      <point x="375" y="0" type="line"/>
      <point x="421" y="212" type="line"/>
      <point x="468" y="68"/>
      <point x="566" y="-20"/>
    </contour>
    <contour>
      <point x="642" y="252" type="curve"/>
      <point x="551" y="252"/>
      <point x="490" y="320"/>
      <point x="490" y="524" type="curve" smooth="yes"/>
      <point x="490" y="708"/>
      <point x="551" y="780"/>
      <point x="642" y="780" type="curve" smooth="yes"/>
      <point x="730" y="780"/>
      <point x="802" y="716"/>
      <point x="802" y="524" type="curve" smooth="yes"/>
      <point x="802" y="320"/>
      <point x="730" y="252"/>
    </contour>
  </outline>
</glyph>
<glyph name="c" format="2">
  <advance width="1101"/>
  <unicode hex="0063"/>
  <anchor x="579" y="0" name="bottom"/>
  <anchor x="578" y="1034" name="top"/>
  <outline>
    <contour>
      <point x="581" y="-20" type="curve" smooth="yes"/>
      <point x="864" y="-20"/>
      <point x="1030" y="180"/>
      <point x="1030" y="400" type="curve"/>
      <point x="724" y="400" type="line"/>
      <point x="718" y="358"/>
      <point x="690" y="248"/>
      <point x="592" y="248" type="curve" smooth="yes"/>
      <point x="491" y="248"/>
      <point x="418" y="346"/>
      <point x="418" y="516" type="curve" smooth="yes"/>
      <point x="418" y="682"/>
      <point x="484" y="766"/>
      <point x="584" y="766" type="curve" smooth="yes"/>
      <point x="684" y="766"/>
      <point x="712" y="670"/>
      <point x="720" y="612" type="curve"/>
      <point x="1035" y="612" type="line"/>
      <point x="1030" y="844"/>
      <point x="873" y="1054"/>
      <point x="581" y="1054" type="curve" smooth="yes"/>
      <point x="282" y="1054"/>
      <point x="60" y="832"/>
      <point x="60" y="512" type="curve" smooth="yes"/>
      <point x="60" y="196"/>
      <point x="285" y="-20"/>
    </contour>
  </outline>
</glyph>
<glyph name="d" format="2">
  <advance width="1238"/>
  <unicode hex="0064"/>
  <anchor x="544" y="0" name="bottom"/>
  <anchor x="1138" y="1486" name="caron"/>
  <anchor x="607" y="516" name="center"/>
  <outline>
    <contour>
      <point x="504" y="-20" type="curve" smooth="yes"/>
      <point x="672" y="-20"/>
      <point x="770" y="68"/>
      <point x="817" y="212" type="curve"/>
      <point x="863" y="0" type="line"/>
      <point x="1138" y="0" type="line"/>
      <point x="1138" y="1486" type="line"/>
      <point x="748" y="1486" type="line"/>
      <point x="748" y="916" type="line"/>
      <point x="684" y="1022"/>
      <point x="565" y="1054"/>
      <point x="462" y="1054" type="curve" smooth="yes"/>
      <point x="208" y="1054"/>
      <point x="60" y="850"/>
      <point x="60" y="524" type="curve" smooth="yes"/>
      <point x="60" y="194"/>
      <point x="218" y="-20"/>
    </contour>
    <contour>
      <point x="596" y="252" type="curve"/>
      <point x="508" y="252"/>
      <point x="436" y="320"/>
      <point x="436" y="524" type="curve" smooth="yes"/>
      <point x="436" y="716"/>
      <point x="508" y="780"/>
      <point x="596" y="780" type="curve" smooth="yes"/>
      <point x="687" y="780"/>
      <point x="748" y="708"/>
      <point x="748" y="524" type="curve" smooth="yes"/>
      <point x="748" y="320"/>
      <point x="687" y="252"/>
    </contour>
  </outline>
</glyph>
<glyph name="e" format="2">
  <advance width="1170"/>
  <unicode hex="0065"/>
  <anchor x="600" y="0" name="bottom"/>
  <anchor x="850" y="50" name="ogonek"/>
  <anchor x="594" y="1034" name="top"/>
  <outline>
    <contour>
      <point x="608" y="-20" type="curve" smooth="yes"/>
      <point x="837" y="-20"/>
      <point x="1072" y="122"/>
      <point x="1104" y="352" type="curve"/>
      <point x="760" y="352" type="line"/>
      <point x="728" y="272"/>
      <point x="669" y="252"/>
      <point x="598" y="252" type="curve" smooth="yes"/>
      <point x="514" y="252"/>
      <point x="446" y="304"/>
      <point x="448" y="428" type="curve"/>
      <point x="1100" y="428" type="line"/>
      <point x="1100" y="518" type="line"/>
      <point x="1100" y="824"/>
      <point x="930" y="1054"/>
      <point x="592" y="1054" type="curve" smooth="yes"/>
      <point x="260" y="1054"/>
      <point x="66" y="800"/>
      <point x="66" y="504" type="curve" smooth="yes"/>
      <point x="66" y="190"/>
      <point x="285" y="-20"/>
    </contour>
    <contour>
      <point x="446" y="646" type="line"/>
      <point x="446" y="724"/>
      <point x="512" y="792"/>
      <point x="592" y="792" type="curve" smooth="yes"/>
      <point x="690" y="792"/>
      <point x="741" y="724"/>
      <point x="741" y="646" type="curve"/>
    </contour>
  </outline>
</glyph>
<glyph name="f" format="2">
  <advance width="794"/>
  <unicode hex="0066"/>
  <outline>
    <contour>
      <point x="196" y="0" type="line"/>
      <point x="586" y="0" type="line"/>
      <point x="586" y="770" type="line"/>
      <point x="774" y="770" type="line"/>
      <point x="774" y="1034" type="line"/>
      <point x="578" y="1034" type="line"/>
      <point x="578" y="1094" type="line" smooth="yes"/>
      <point x="578" y="1170"/>
      <point x="600" y="1194"/>
      <point x="664" y="1194" type="curve" smooth="yes"/>
      <point x="784" y="1194" type="line"/>
      <point x="782" y="1446" type="line"/>
      <point x="506" y="1446" type="line" smooth="yes"/>
      <point x="316" y="1446"/>
      <point x="196" y="1342"/>
      <point x="196" y="1172" type="curve" smooth="yes"/>
      <point x="196" y="1034" type="line"/>
      <point x="30" y="1034" type="line"/>
      <point x="30" y="770" type="line"/>
      <point x="196" y="770" type="line"/>
    </contour>
  </outline>
</glyph>
<glyph name="g" format="2">
  <advance width="1268"/>
  <unicode hex="0067"/>
  <anchor x="616" y="1034" name="top"/>
  <outline>
    <contour>
      <point x="618" y="-342" type="curve" smooth="yes"/>
      <point x="1010" y="-342"/>
      <point x="1208" y="-194"/>
      <point x="1208" y="6" type="curve" smooth="yes"/>
      <point x="1208" y="166"/>
      <point x="1082" y="296"/>
      <point x="796" y="316" type="curve" smooth="yes"/>
      <point x="708" y="322"/>
      <point x="626" y="326"/>
      <point x="590" y="328" type="curve" smooth="yes"/>
      <point x="488" y="334"/>
      <point x="424" y="334"/>
      <point x="424" y="362" type="curve"/>
      <point x="424" y="372"/>
      <point x="432" y="376"/>
      <point x="452" y="380" type="curve"/>
      <point x="486" y="376"/>
      <point x="558" y="374"/>
      <point x="590" y="374" type="curve" smooth="yes"/>
      <point x="918" y="374"/>
      <point x="1092" y="554"/>
      <point x="1092" y="730" type="curve" smooth="yes"/>
      <point x="1092" y="742"/>
      <point x="1088" y="780"/>
      <point x="1080" y="810" type="curve"/>
      <point x="1256" y="834" type="line"/>
      <point x="1258" y="1110" type="line"/>
      <point x="1144" y="1062"/>
      <point x="996" y="1006"/>
      <point x="918" y="976" type="curve"/>
      <point x="842" y="1016"/>
      <point x="762" y="1050"/>
      <point x="614" y="1050" type="curve" smooth="yes"/>
      <point x="332" y="1050"/>
      <point x="88" y="936"/>
      <point x="88" y="728" type="curve" smooth="yes"/>
      <point x="88" y="618"/>
      <point x="160" y="486"/>
      <point x="310" y="420" type="curve"/>
      <point x="148" y="398"/>
      <point x="72" y="320"/>
      <point x="72" y="238" type="curve" smooth="yes"/>
      <point x="72" y="124"/>
      <point x="188" y="80"/>
      <point x="218" y="64" type="curve"/>
      <point x="202" y="60"/>
      <point x="12" y="30"/>
      <point x="12" y="-104" type="curve" smooth="yes"/>
      <point x="12" y="-236"/>
      <point x="210" y="-342"/>
    </contour>
    <contour>
      <point x="678" y="-138" type="curve" smooth="yes"/>
      <point x="480" y="-138"/>
      <point x="390" y="-124"/>
      <point x="390" y="-58" type="curve" smooth="yes"/>
      <point x="390" y="-24"/>
      <point x="416" y="22"/>
      <point x="524" y="16" type="curve" smooth="yes"/>
      <point x="712" y="4" type="line" smooth="yes"/>
      <point x="792" y="-2"/>
      <point x="840" y="-30"/>
      <point x="840" y="-74" type="curve" smooth="yes"/>
      <point x="840" y="-112"/>
      <point x="814" y="-138"/>
    </contour>
    <contour>
      <point x="602" y="578" type="curve" smooth="yes"/>
      <point x="528" y="578"/>
      <point x="478" y="636"/>
      <point x="478" y="714" type="curve" smooth="yes"/>
      <point x="478" y="792"/>
      <point x="528" y="860"/>
      <point x="602" y="860" type="curve" smooth="yes"/>
      <point x="676" y="860"/>
      <point x="726" y="792"/>
      <point x="726" y="714" type="curve" smooth="yes"/>
      <point x="726" y="636"/>
      <point x="676" y="578"/>
    </contour>
  </outline>
</glyph>
<glyph name="h" format="2">
  <advance width="1213"/>
  <unicode hex="0068"/>
  <anchor x="613" y="0" name="bottom"/>
  <anchor x="291" y="1446" name="top"/>
  <outline>
    <contour>
      <point x="100" y="0" type="line"/>
      <point x="489" y="0" type="line"/>
      <point x="489" y="633" type="line"/>
      <point x="489" y="701"/>
      <point x="554" y="740"/>
      <point x="611" y="740" type="curve" smooth="yes"/>
      <point x="669" y="740"/>
      <point x="733" y="706"/>
      <point x="733" y="638" type="curve" smooth="yes"/>
      <point x="733" y="0" type="line"/>
      <point x="1123" y="0" type="line"/>
      <point x="1123" y="688" type="line" smooth="yes"/>
      <point x="1123" y="914"/>
      <point x="955" y="1034"/>
      <point x="762" y="1034" type="curve" smooth="yes"/>
      <point x="600" y="1034"/>
      <point x="537" y="946"/>
      <point x="489" y="887" type="curve"/>
      <point x="489" y="1486" type="line"/>
      <point x="100" y="1486" type="line"/>
    </contour>
  </outline>
</glyph>
<glyph name="i" format="2">
  <advance width="570"/>
  <unicode hex="0069"/>
  <anchor x="285" y="0" name="bottom"/>
  <outline>
    <contour>
      <point x="100" y="0" type="line"/>
      <point x="470" y="0" type="line"/>
      <point x="470" y="1034" type="line"/>
      <point x="100" y="1034" type="line"/>
    </contour>
    <contour>
      <point x="100" y="1118" type="line"/>
      <point x="470" y="1118" type="line"/>
      <point x="470" y="1446" type="line"/>
      <point x="100" y="1446" type="line"/>
    </contour>
  </outline>
</glyph>
<glyph name="j" format="2">
  <advance width="624"/>
  <unicode hex="006A"/>
  <outline>
    <contour>
      <point x="117" y="-332" type="curve"/>
      <point x="393" y="-332"/>
      <point x="524" y="-200"/>
      <point x="524" y="56" type="curve" smooth="yes"/>
      <point x="524" y="1034" type="line"/>
      <point x="135" y="1034" type="line"/>
      <point x="135" y="56" type="line"/>
      <point x="135" y="14"/>
      <point x="114" y="-12"/>
      <point x="41" y="-28" type="curve"/>
      <point x="-20" y="-38" type="line"/>
      <point x="-18" y="-298" type="line"/>
      <point x="-18" y="-298"/>
      <point x="13" y="-332"/>
    </contour>
    <contour>
      <point x="135" y="1118" type="line"/>
      <point x="524" y="1118" type="line"/>
      <point x="524" y="1446" type="line"/>
      <point x="135" y="1446" type="line"/>
    </contour>
  </outline>
</glyph>
<glyph name="k" format="2">
  <advance width="1192"/>
  <unicode hex="006B"/>
  <anchor x="606" y="0" name="bottom"/>
  <outline>
    <contour>
      <point x="100" y="0" type="line"/>
      <point x="489" y="0" type="line"/>
      <point x="489" y="292" type="line"/>
      <point x="565" y="380" type="line"/>
      <point x="804" y="0" type="line"/>
      <point x="1182" y="0" type="line"/>
      <point x="802" y="606" type="line"/>
      <point x="1180" y="1034" type="line"/>
      <point x="773" y="1034" type="line"/>
      <point x="489" y="686" type="line"/>
      <point x="489" y="1486" type="line"/>
      <point x="100" y="1486" type="line"/>
    </contour>
  </outline>
</glyph>
<glyph name="l" format="2">
  <advance width="705"/>
  <unicode hex="006C"/>
  <anchor x="266" y="0" name="bottom"/>
  <anchor x="481" y="1486" name="caron"/>
  <anchor x="293" y="1530" name="top"/>
  <outline>
    <contour>
      <point x="493" y="-22" type="curve" smooth="yes"/>
      <point x="543" y="-22"/>
      <point x="593" y="-8"/>
      <point x="640" y="10" type="curve"/>
      <point x="640" y="246" type="line"/>
      <point x="598" y="250" type="line"/>
      <point x="493" y="264"/>
      <point x="481" y="314"/>
      <point x="481" y="364" type="curve" smooth="yes"/>
      <point x="481" y="1486" type="line"/>
      <point x="100" y="1486" type="line"/>
      <point x="100" y="312" type="line"/>
      <point x="100" y="160"/>
      <point x="111" y="-22"/>
    </contour>
  </outline>
</glyph>
<glyph name="m" format="2">
  <advance width="1847"/>
  <unicode hex="006D"/>
  <outline>
    <contour>
      <point x="100" y="0" type="line"/>
      <point x="489" y="0" type="line"/>
      <point x="489" y="635" type="line"/>
      <point x="489" y="703"/>
      <point x="553" y="742"/>
      <point x="611" y="742" type="curve" smooth="yes"/>
      <point x="670" y="742"/>
      <point x="733" y="703"/>
      <point x="733" y="635" type="curve" smooth="yes"/>
      <point x="733" y="0" type="line"/>
      <point x="1121" y="0" type="line"/>
      <point x="1121" y="635" type="line" smooth="yes"/>
      <point x="1121" y="703"/>
      <point x="1185" y="742"/>
      <point x="1243" y="742" type="curve" smooth="yes"/>
      <point x="1302" y="742"/>
      <point x="1367" y="703"/>
      <point x="1367" y="635" type="curve" smooth="yes"/>
      <point x="1367" y="0" type="line"/>
      <point x="1757" y="0" type="line"/>
      <point x="1757" y="688" type="line" smooth="yes"/>
      <point x="1757" y="943"/>
      <point x="1578" y="1054"/>
      <point x="1418" y="1054" type="curve" smooth="yes"/>
      <point x="1287" y="1054"/>
      <point x="1175" y="979"/>
      <point x="1107" y="891" type="curve"/>
      <point x="1039" y="998"/>
      <point x="923" y="1054"/>
      <point x="823" y="1054" type="curve" smooth="yes"/>
      <point x="661" y="1054"/>
      <point x="551" y="982"/>
      <point x="483" y="891" type="curve"/>
      <point x="483" y="1034" type="line"/>
      <point x="100" y="1034" type="line"/>
    </contour>
  </outline>
</glyph>
<glyph name="n" format="2">
  <advance width="1215"/>
  <unicode hex="006E"/>
  <anchor x="611" y="0" name="bottom"/>
  <anchor x="611" y="1034" name="top"/>
  <outline>
    <contour>
      <point x="100" y="0" type="line"/>
      <point x="489" y="0" type="line"/>
      <point x="489" y="635" type="line"/>
      <point x="489" y="703"/>
      <point x="558" y="740"/>
      <point x="615" y="740" type="curve" smooth="yes"/>
      <point x="673" y="740"/>
      <point x="735" y="703"/>
      <point x="735" y="635" type="curve" smooth="yes"/>
      <point x="735" y="0" type="line"/>
      <point x="1125" y="0" type="line"/>
      <point x="1125" y="688" type="line" smooth="yes"/>
      <point x="1125" y="940"/>
      <point x="945" y="1038"/>
      <point x="764" y="1038" type="curve" smooth="yes"/>
      <point x="602" y="1038"/>
      <point x="529" y="956"/>
      <point x="485" y="891" type="curve"/>
      <point x="485" y="1034" type="line"/>
      <point x="100" y="1034" type="line"/>
    </contour>
  </outline>
</glyph>
<glyph name="o" format="2">
  <advance width="1170"/>
  <unicode hex="006F"/>
  <anchor x="579" y="0" name="bottom"/>
  <anchor x="953" y="714" name="horn"/>
  <anchor x="738" y="20" name="ogonek"/>
  <anchor x="586" y="1034" name="top"/>
  <outline>
    <contour>
      <point x="584" y="-20" type="curve" smooth="yes"/>
      <point x="906" y="-20"/>
      <point x="1110" y="202"/>
      <point x="1110" y="510" type="curve" smooth="yes"/>
      <point x="1110" y="824"/>
      <point x="909" y="1054"/>
      <point x="586" y="1054" type="curve" smooth="yes"/>
      <point x="278" y="1054"/>
      <point x="60" y="836"/>
      <point x="60" y="510" type="curve" smooth="yes"/>
      <point x="60" y="200"/>
      <point x="264" y="-20"/>
    </contour>
    <contour>
      <point x="586" y="262" type="curve" smooth="yes"/>
      <point x="460" y="262"/>
      <point x="438" y="414"/>
      <point x="438" y="524" type="curve" smooth="yes"/>
      <point x="438" y="636"/>
      <point x="460" y="776"/>
      <point x="586" y="776" type="curve" smooth="yes"/>
      <point x="710" y="776"/>
      <point x="732" y="636"/>
      <point x="732" y="524" type="curve" smooth="yes"/>
      <point x="732" y="414"/>
      <point x="710" y="262"/>
    </contour>
  </outline>
</glyph>
<glyph name="p" format="2">
  <advance width="1235"/>
  <unicode hex="0070"/>
  <outline>
    <contour>
      <point x="100" y="-322" type="line"/>
      <point x="489" y="-322" type="line"/>
      <point x="489" y="126" type="line"/>
      <point x="557" y="20"/>
      <point x="668" y="-20"/>
      <point x="753" y="-20" type="curve" smooth="yes"/>
      <point x="973" y="-20"/>
      <point x="1175" y="126"/>
      <point x="1175" y="520" type="curve" smooth="yes"/>
      <point x="1175" y="886"/>
      <point x="1011" y="1054"/>
      <point x="795" y="1054" type="curve" smooth="yes"/>
      <point x="698" y="1054"/>
      <point x="569" y="1020"/>
      <point x="491" y="914" type="curve"/>
      <point x="491" y="1034" type="line"/>
      <point x="100" y="1034" type="line"/>
    </contour>
    <contour>
      <point x="651" y="258" type="curve"/>
      <point x="537" y="258"/>
      <point x="489" y="393"/>
      <point x="489" y="520" type="curve"/>
      <point x="489" y="660"/>
      <point x="537" y="780"/>
      <point x="651" y="780" type="curve" smooth="yes"/>
      <point x="737" y="780"/>
      <point x="815" y="688"/>
      <point x="815" y="520" type="curve" smooth="yes"/>
      <point x="815" y="334"/>
      <point x="737" y="258"/>
    </contour>
  </outline>
</glyph>
<glyph name="q" format="2">
  <advance width="1235"/>
  <unicode hex="0071"/>
  <outline>
    <contour>
      <point x="746" y="-322" type="line"/>
      <point x="1135" y="-322" type="line"/>
      <point x="1135" y="1034" type="line"/>
      <point x="744" y="1034" type="line"/>
      <point x="744" y="914" type="line"/>
      <point x="666" y="1020"/>
      <point x="537" y="1054"/>
      <point x="440" y="1054" type="curve" smooth="yes"/>
      <point x="224" y="1054"/>
      <point x="60" y="886"/>
      <point x="60" y="520" type="curve" smooth="yes"/>
      <point x="60" y="126"/>
      <point x="262" y="-20"/>
      <point x="482" y="-20" type="curve" smooth="yes"/>
      <point x="567" y="-20"/>
      <point x="678" y="20"/>
      <point x="746" y="126" type="curve"/>
    </contour>
    <contour>
      <point x="584" y="258" type="curve"/>
      <point x="498" y="258"/>
      <point x="420" y="334"/>
      <point x="420" y="520" type="curve" smooth="yes"/>
      <point x="420" y="688"/>
      <point x="498" y="780"/>
      <point x="584" y="780" type="curve" smooth="yes"/>
      <point x="698" y="780"/>
      <point x="746" y="660"/>
      <point x="746" y="520" type="curve"/>
      <point x="746" y="393"/>
      <point x="698" y="258"/>
    </contour>
  </outline>
</glyph>
<glyph name="r" format="2">
  <advance width="863"/>
  <unicode hex="0072"/>
  <anchor x="293" y="0" name="bottom"/>
  <anchor x="472" y="1034" name="top"/>
  <outline>
    <contour>
      <point x="100" y="0" type="line"/>
      <point x="489" y="0" type="line"/>
      <point x="489" y="496" type="line" smooth="yes"/>
      <point x="489" y="604"/>
      <point x="535" y="718"/>
      <point x="825" y="688" type="curve"/>
      <point x="832" y="687"/>
      <point x="834" y="687"/>
      <point x="838" y="686" type="curve"/>
      <point x="838" y="1054" type="line"/>
      <point x="838" y="1054"/>
      <point x="832" y="1054"/>
      <point x="823" y="1054" type="curve"/>
      <point x="631" y="1054"/>
      <point x="523" y="914"/>
      <point x="476" y="748" type="curve"/>
      <point x="476" y="1034" type="line"/>
      <point x="100" y="1034" type="line"/>
    </contour>
  </outline>
</glyph>
<glyph name="s" format="2">
  <advance width="1092"/>
  <unicode hex="0073"/>
  <anchor x="558" y="0" name="bottom"/>
  <anchor x="560" y="1034" name="top"/>
  <outline>
    <contour>
      <point x="556" y="-20" type="curve" smooth="yes"/>
      <point x="820" y="-20"/>
      <point x="1026" y="98"/>
      <point x="1026" y="320" type="curve" smooth="yes"/>
      <point x="1026" y="406"/>
      <point x="980" y="580"/>
      <point x="714" y="644" type="curve"/>
      <point x="581" y="668" type="line"/>
      <point x="470" y="686"/>
      <point x="426" y="706"/>
      <point x="426" y="742" type="curve" smooth="yes"/>
      <point x="426" y="782"/>
      <point x="483" y="804"/>
      <point x="555" y="804" type="curve" smooth="yes"/>
      <point x="626" y="804"/>
      <point x="688" y="774"/>
      <point x="703" y="712" type="curve"/>
      <point x="1020" y="712" type="line"/>
      <point x="1020" y="922"/>
      <point x="842" y="1054"/>
      <point x="560" y="1054" type="curve" smooth="yes"/>
      <point x="258" y="1054"/>
      <point x="88" y="902"/>
      <point x="90" y="710" type="curve" smooth="yes"/>
      <point x="92" y="524"/>
      <point x="224" y="430"/>
      <point x="422" y="394" type="curve"/>
      <point x="575" y="370" type="line"/>
      <point x="668" y="356"/>
      <point x="699" y="336"/>
      <point x="699" y="298" type="curve" smooth="yes"/>
      <point x="699" y="256"/>
      <point x="640" y="236"/>
      <point x="554" y="236" type="curve" smooth="yes"/>
      <point x="520" y="236"/>
      <point x="416" y="248"/>
      <point x="390" y="348" type="curve"/>
      <point x="60" y="348" type="line"/>
      <point x="104" y="84"/>
      <point x="340" y="-20"/>
    </contour>
  </outline>
</glyph>
<glyph name="t" format="2">
  <advance width="882"/>
  <unicode hex="0074"/>
  <anchor x="506" y="18" name="bottom"/>
  <anchor x="544" y="1586" name="caron"/>
  <anchor x="434" y="516" name="center"/>
  <outline>
    <contour>
      <point x="606" y="-16" type="curve" smooth="yes"/>
      <point x="730" y="-16"/>
      <point x="784" y="2"/>
      <point x="812" y="16" type="curve"/>
      <point x="812" y="246" type="line"/>
      <point x="650" y="246" type="line" smooth="yes"/>
      <point x="616" y="246"/>
      <point x="588" y="256"/>
      <point x="588" y="302" type="curve" smooth="yes"/>
      <point x="586" y="770" type="line"/>
      <point x="812" y="770" type="line"/>
      <point x="812" y="1036" type="line"/>
      <point x="586" y="1036" type="line"/>
      <point x="586" y="1356" type="line"/>
      <point x="312" y="1356" type="line"/>
      <point x="212" y="1034" type="line"/>
      <point x="30" y="1034" type="line"/>
      <point x="30" y="770" type="line"/>
      <point x="198" y="770" type="line"/>
      <point x="198" y="284" type="line" smooth="yes"/>
      <point x="198" y="118"/>
      <point x="280" y="-16"/>
    </contour>
  </outline>
</glyph>
<glyph name="u" format="2">
  <advance width="1217"/>
  <unicode hex="0075"/>
  <anchor x="613" y="0" name="bottom"/>
  <anchor x="1062" y="714" name="horn"/>
  <anchor x="1064" y="20" name="ogonek"/>
  <anchor x="606" y="1034" name="top"/>
  <outline>
    <contour>
      <point x="481" y="-20" type="curve" smooth="yes"/>
      <point x="581" y="-20"/>
      <point x="745" y="6"/>
      <point x="783" y="212" type="curve"/>
      <point x="829" y="0" type="line"/>
      <point x="1117" y="0" type="line"/>
      <point x="1117" y="1034" type="line"/>
      <point x="731" y="1034" type="line"/>
      <point x="731" y="360" type="line"/>
      <point x="731" y="300"/>
      <point x="683" y="254"/>
      <point x="605" y="254" type="curve" smooth="yes"/>
      <point x="526" y="254"/>
      <point x="480" y="300"/>
      <point x="480" y="360" type="curve" smooth="yes"/>
      <point x="480" y="1034" type="line"/>
      <point x="90" y="1034" type="line"/>
      <point x="90" y="306" type="line" smooth="yes"/>
      <point x="90" y="98"/>
      <point x="314" y="-20"/>
    </contour>
  </outline>
</glyph>
<glyph name="v" format="2">
  <advance width="1070"/>
  <unicode hex="0076"/>
  <outline>
    <contour>
      <point x="1063" y="1034" type="line"/>
      <point x="710" y="1034" type="line"/>
      <point x="536" y="506" type="line"/>
      <point x="536" y="506" type="line"/>
      <point x="354" y="1034" type="line"/>
      <point x="8" y="1034" type="line"/>
      <point x="410" y="0" type="line"/>
      <point x="660" y="0" type="line"/>
    </contour>
  </outline>
</glyph>
<glyph name="w" format="2">
  <advance width="1595"/>
  <unicode hex="0077"/>
  <anchor x="806" y="1034" name="top"/>
  <outline>
    <contour>
      <point x="1586" y="1034" type="line"/>
      <point x="1239" y="1034" type="line"/>
      <point x="1079" y="530" type="line"/>
      <point x="1079" y="530" type="line"/>
      <point x="932" y="1034" type="line"/>
      <point x="661" y="1034" type="line"/>
      <point x="510" y="532" type="line"/>
      <point x="510" y="532" type="line"/>
      <point x="348" y="1034" type="line"/>
      <point x="10" y="1034" type="line"/>
      <point x="359" y="0" type="line"/>
      <point x="626" y="0" type="line"/>
      <point x="789" y="502" type="line"/>
      <point x="943" y="0" type="line"/>
      <point x="1222" y="0" type="line"/>
    </contour>
  </outline>
</glyph>
<glyph name="x" format="2">
  <advance width="1218"/>
  <unicode hex="0078"/>
  <outline>
    <contour>
      <point x="10" y="0" type="line"/>
      <point x="410" y="0" type="line"/>
      <point x="610" y="274" type="line"/>
      <point x="808" y="0" type="line"/>
      <point x="1208" y="0" type="line"/>
      <point x="812" y="540" type="line"/>
      <point x="1176" y="1034" type="line"/>
      <point x="776" y="1034" type="line"/>
      <point x="612" y="810" type="line"/>
      <point x="446" y="1034" type="line"/>
      <point x="46" y="1034" type="line"/>
      <point x="406" y="540" type="line"/>
    </contour>
  </outline>
</glyph>
<glyph name="y" format="2">
  <advance width="1177"/>
  <unicode hex="0079"/>
  <anchor x="586" y="1034" name="top"/>
  <outline>
    <contour>
      <point x="315" y="-330" type="curve" smooth="yes"/>
      <point x="493" y="-330"/>
      <point x="632" y="-266"/>
      <point x="766" y="60" type="curve" smooth="yes"/>
      <point x="1170" y="1034" type="line"/>
      <point x="789" y="1034" type="line"/>
      <point x="586" y="472" type="line"/>
      <point x="390" y="1034" type="line"/>
      <point x="8" y="1034" type="line"/>
      <point x="409" y="60" type="line"/>
      <point x="405" y="40" type="line"/>
      <point x="401" y="28"/>
      <point x="392" y="-62"/>
      <point x="189" y="-46" type="curve" smooth="yes"/>
      <point x="90" y="-40" type="line"/>
      <point x="90" y="-286" type="line" smooth="yes"/>
      <point x="90" y="-286"/>
      <point x="155" y="-330"/>
    </contour>
  </outline>
</glyph>
<glyph name="z" format="2">
  <advance width="1021"/>
  <unicode hex="007A"/>
  <anchor x="510" y="0" name="bottom"/>
  <anchor x="510" y="1034" name="top"/>
  <outline>
    <contour>
      <point x="50" y="0" type="line"/>
      <point x="971" y="0" type="line"/>
      <point x="971" y="266" type="line"/>
      <point x="524" y="266" type="line"/>
      <point x="969" y="828" type="line"/>
      <point x="969" y="1034" type="line"/>
      <point x="77" y="1034" type="line"/>
      <point x="77" y="768" type="line"/>
      <point x="494" y="768" type="line"/>
      <point x="50" y="206" type="line"/>
    </contour>
  </outline>
</glyph>
<glyph name="braceleft" format="2">
  <advance width="872"/>
  <unicode hex="007B"/>
  <outline>
    <contour>
      <point x="612" y="-322" type="curve" smooth="yes"/>
      <point x="792" y="-322" type="line"/>
      <point x="792" y="-114" type="line"/>
      <point x="690" y="-114" type="line" smooth="yes"/>
      <point x="594" y="-114"/>
      <point x="566" y="-84"/>
      <point x="566" y="-10" type="curve" smooth="yes"/>
      <point x="566" y="364" type="line" smooth="yes"/>
      <point x="560" y="528"/>
      <point x="434" y="560"/>
      <point x="344" y="568" type="curve" smooth="yes"/>
      <point x="326" y="570"/>
      <point x="328" y="578"/>
      <point x="344" y="580" type="curve" smooth="yes"/>
      <point x="436" y="590"/>
      <point x="560" y="632"/>
      <point x="566" y="764" type="curve" smooth="yes"/>
      <point x="566" y="1134" type="line" smooth="yes"/>
      <point x="566" y="1186"/>
      <point x="566" y="1238"/>
      <point x="690" y="1238" type="curve" smooth="yes"/>
      <point x="792" y="1238" type="line"/>
      <point x="792" y="1446" type="line"/>
      <point x="606" y="1446" type="line" smooth="yes"/>
      <point x="452" y="1446"/>
      <point x="256" y="1364"/>
      <point x="256" y="1182" type="curve" smooth="yes"/>
      <point x="256" y="828" type="line" smooth="yes"/>
      <point x="256" y="712"/>
      <point x="194" y="664"/>
      <point x="30" y="664" type="curve"/>
      <point x="30" y="484" type="line"/>
      <point x="192" y="484"/>
      <point x="256" y="422"/>
      <point x="256" y="328" type="curve" smooth="yes"/>
      <point x="256" y="-56" type="line" smooth="yes"/>
      <point x="256" y="-242"/>
      <point x="452" y="-322"/>
    </contour>
  </outline>
</glyph>
<glyph name="braceright" format="2">
  <advance width="862"/>
  <unicode hex="007D"/>
  <outline>
    <contour>
      <point x="20" y="-322" type="line"/>
      <point x="200" y="-322" type="line" smooth="yes"/>
      <point x="360" y="-322"/>
      <point x="556" y="-242"/>
      <point x="556" y="-56" type="curve" smooth="yes"/>
      <point x="556" y="328" type="line" smooth="yes"/>
      <point x="556" y="422"/>
      <point x="620" y="484"/>
      <point x="782" y="484" type="curve"/>
      <point x="782" y="664" type="line"/>
      <point x="618" y="664"/>
      <point x="556" y="712"/>
      <point x="556" y="828" type="curve" smooth="yes"/>
      <point x="556" y="1182" type="line" smooth="yes"/>
      <point x="556" y="1364"/>
      <point x="360" y="1446"/>
      <point x="206" y="1446" type="curve" smooth="yes"/>
      <point x="20" y="1446" type="line"/>
      <point x="20" y="1238" type="line"/>
      <point x="122" y="1238" type="line" smooth="yes"/>
      <point x="246" y="1238"/>
      <point x="246" y="1186"/>
      <point x="246" y="1134" type="curve" smooth="yes"/>
      <point x="246" y="764" type="line" smooth="yes"/>
      <point x="252" y="632"/>
      <point x="376" y="590"/>
      <point x="468" y="580" type="curve" smooth="yes"/>
      <point x="484" y="578"/>
      <point x="486" y="570"/>
      <point x="468" y="568" type="curve" smooth="yes"/>
      <point x="378" y="560"/>
      <point x="252" y="528"/>
      <point x="246" y="364" type="curve" smooth="yes"/>
      <point x="246" y="-10" type="line" smooth="yes"/>
      <point x="246" y="-84"/>
      <point x="218" y="-114"/>
      <point x="122" y="-114" type="curve" smooth="yes"/>
      <point x="20" y="-114" type="line"/>
    </contour>
  </outline>
</glyph>
<glyph name="asciitilde" format="2">
  <advance width="1304"/>
  <unicode hex="007E"/>
  <outline>
    <contour>
      <point x="220" y="510" type="line"/>
      <point x="292" y="594"/>
      <point x="360" y="678"/>
      <point x="462" y="678" type="curve" smooth="yes"/>
      <point x="594" y="678"/>
      <point x="682" y="538"/>
      <point x="846" y="538" type="curve" smooth="yes"/>
      <point x="960" y="538"/>
      <point x="1090" y="608"/>
      <point x="1174" y="762" type="curve"/>
      <point x="1062" y="942" type="line"/>
      <point x="1010" y="848"/>
      <point x="930" y="774"/>
      <point x="838" y="774" type="curve" smooth="yes"/>
      <point x="716" y="774"/>
      <point x="640" y="912"/>
      <point x="468" y="912" type="curve" smooth="yes"/>
      <point x="328" y="912"/>
      <point x="228" y="820"/>
      <point x="110" y="694" type="curve"/>
    </contour>
  </outline>
</glyph>
<glyph name="exclamdown" format="2">
  <advance width="622"/>
  <unicode hex="00A1"/>
  <outline>
    <contour>
      <point x="500" y="650" type="line"/>
      <point x="500" y="1034" type="line"/>
      <point x="90" y="1034" type="line"/>
      <point x="90" y="650" type="line"/>
    </contour>
    <contour>
      <point x="522" y="-322" type="line"/>
      <point x="416" y="514" type="line"/>
      <point x="180" y="514" type="line"/>
      <point x="70" y="-322" type="line"/>
    </contour>
  </outline>
</glyph>
<glyph name="cent" format="2">
  <advance width="1155"/>
  <unicode hex="00A2"/>
  <anchor x="619" y="222" name="bottom"/>
  <anchor x="618" y="1256" name="top"/>
  <outline>
    <contour>
      <point x="744" y="0" type="line"/>
      <point x="744" y="382" type="line"/>
      <point x="500" y="382" type="line"/>
      <point x="500" y="0" type="line"/>
    </contour>
    <contour>
      <point x="744" y="1064" type="line"/>
      <point x="744" y="1446" type="line"/>
      <point x="500" y="1446" type="line"/>
      <point x="500" y="1064" type="line"/>
    </contour>
    <component base="c" xOffset="40" yOffset="222"/>
  </outline>
</glyph>
<glyph name="sterling" format="2">
  <advance width="1360"/>
  <unicode hex="00A3"/>
  <outline>
    <contour>
      <point x="50" y="0" type="line"/>
      <point x="798" y="0" type="line" smooth="yes"/>
      <point x="1066" y="0"/>
      <point x="1224" y="140"/>
      <point x="1290" y="412" type="curve"/>
      <point x="964" y="476" type="line"/>
      <point x="924" y="362"/>
      <point x="888" y="320"/>
      <point x="766" y="320" type="curve" smooth="yes"/>
      <point x="568" y="320" type="line"/>
      <point x="638" y="382"/>
      <point x="664" y="410"/>
      <point x="684" y="474" type="curve" smooth="yes"/>
      <point x="704" y="534"/>
      <point x="706" y="580"/>
      <point x="704" y="668" type="curve"/>
      <point x="942" y="668" type="line"/>
      <point x="942" y="870" type="line"/>
      <point x="676" y="870" type="line"/>
      <point x="662" y="962"/>
      <point x="656" y="1008"/>
      <point x="656" y="1046" type="curve" smooth="yes"/>
      <point x="656" y="1122"/>
      <point x="692" y="1166"/>
      <point x="752" y="1166" type="curve" smooth="yes"/>
      <point x="808" y="1166"/>
      <point x="834" y="1132"/>
      <point x="874" y="1038" type="curve"/>
      <point x="1210" y="1134" type="line"/>
      <point x="1116" y="1354"/>
      <point x="930" y="1466"/>
      <point x="690" y="1466" type="curve" smooth="yes"/>
      <point x="426" y="1466"/>
      <point x="182" y="1332"/>
      <point x="202" y="1064" type="curve" smooth="yes"/>
      <point x="212" y="870" type="line"/>
      <point x="50" y="870" type="line"/>
      <point x="50" y="668" type="line"/>
      <point x="256" y="668" type="line"/>
      <point x="268" y="564"/>
      <point x="274" y="522"/>
      <point x="274" y="462" type="curve" smooth="yes"/>
      <point x="274" y="356"/>
      <point x="210" y="318"/>
      <point x="112" y="318" type="curve" smooth="yes"/>
      <point x="50" y="318" type="line"/>
    </contour>
  </outline>
</glyph>
<glyph name="currency" format="2">
  <advance width="1226"/>
  <unicode hex="00A4"/>
  <outline>
    <contour>
      <point x="202" y="178" type="line"/>
      <point x="332" y="306" type="line" smooth="yes"/>
      <point x="340" y="314"/>
      <point x="352" y="318"/>
      <point x="366" y="310" type="curve" smooth="yes"/>
      <point x="438" y="268"/>
      <point x="522" y="246"/>
      <point x="608" y="246" type="curve" smooth="yes"/>
      <point x="698" y="246"/>
      <point x="782" y="274"/>
      <point x="860" y="322" type="curve"/>
      <point x="984" y="196" type="line"/>
      <point x="1136" y="352" type="line"/>
      <point x="1014" y="472" type="line" smooth="yes"/>
      <point x="1012" y="474"/>
      <point x="1012" y="478"/>
      <point x="1014" y="482" type="curve" smooth="yes"/>
      <point x="1062" y="552"/>
      <point x="1084" y="642"/>
      <point x="1084" y="728" type="curve" smooth="yes"/>
      <point x="1084" y="820"/>
      <point x="1058" y="902"/>
      <point x="1010" y="980" type="curve"/>
      <point x="1136" y="1104" type="line"/>
      <point x="984" y="1260" type="line"/>
      <point x="870" y="1144" type="line" smooth="yes"/>
      <point x="864" y="1138"/>
      <point x="856" y="1138"/>
      <point x="848" y="1142" type="curve" smooth="yes"/>
      <point x="772" y="1186"/>
      <point x="686" y="1210"/>
      <point x="598" y="1210" type="curve" smooth="yes"/>
      <point x="512" y="1210"/>
      <point x="424" y="1180"/>
      <point x="348" y="1134" type="curve"/>
      <point x="202" y="1280" type="line"/>
      <point x="50" y="1122" type="line"/>
      <point x="178" y="994" type="line" smooth="yes"/>
      <point x="190" y="982"/>
      <point x="190" y="976"/>
      <point x="182" y="960" type="curve" smooth="yes"/>
      <point x="140" y="888"/>
      <point x="122" y="814"/>
      <point x="122" y="726" type="curve" smooth="yes"/>
      <point x="122" y="626"/>
      <point x="146" y="556"/>
      <point x="194" y="476" type="curve"/>
      <point x="50" y="334" type="line"/>
    </contour>
    <contour>
      <point x="602" y="488" type="curve" smooth="yes"/>
      <point x="466" y="488"/>
      <point x="362" y="600"/>
      <point x="362" y="728" type="curve" smooth="yes"/>
      <point x="362" y="854"/>
      <point x="466" y="968"/>
      <point x="602" y="968" type="curve" smooth="yes"/>
      <point x="740" y="968"/>
      <point x="842" y="854"/>
      <point x="842" y="728" type="curve" smooth="yes"/>
      <point x="842" y="600"/>
      <point x="740" y="488"/>
    </contour>
  </outline>
</glyph>
<glyph name="yen" format="2">
  <advance width="1404"/>
  <unicode hex="00A5"/>
  <outline>
    <contour>
      <point x="488" y="0" type="line"/>
      <point x="930" y="0" type="line"/>
      <point x="930" y="638" type="line"/>
      <point x="1434" y="1446" type="line"/>
      <point x="1028" y="1446" type="line"/>
      <point x="754" y="942" type="line"/>
      <point x="474" y="1446" type="line"/>
      <point x="-30" y="1446" type="line"/>
      <point x="488" y="602" type="line"/>
    </contour>
    <contour>
      <point x="196" y="186" type="line"/>
      <point x="1222" y="186" type="line"/>
      <point x="1222" y="382" type="line"/>
      <point x="196" y="382" type="line"/>
    </contour>
    <contour>
      <point x="196" y="516" type="line"/>
      <point x="1222" y="516" type="line"/>
      <point x="1222" y="714" type="line"/>
      <point x="196" y="714" type="line"/>
    </contour>
  </outline>
</glyph>
<glyph name="brokenbar" format="2">
  <advance width="546"/>
  <unicode hex="00A6"/>
  <outline>
    <contour>
      <point x="135" y="824" type="line"/>
      <point x="411" y="824" type="line"/>
      <point x="411" y="1652" type="line"/>
      <point x="135" y="1652" type="line"/>
    </contour>
    <contour>
      <point x="135" y="-322" type="line"/>
      <point x="411" y="-322" type="line"/>
      <point x="411" y="506" type="line"/>
      <point x="135" y="506" type="line"/>
    </contour>
  </outline>
</glyph>
<glyph name="section" format="2">
  <advance width="1066"/>
  <unicode hex="00A7"/>
  <outline>
    <contour>
      <point x="526" y="-166" type="curve" smooth="yes"/>
      <point x="838" y="-166"/>
      <point x="996" y="-20"/>
      <point x="996" y="190" type="curve" smooth="yes"/>
      <point x="996" y="300"/>
      <point x="952" y="374"/>
      <point x="830" y="442" type="curve"/>
      <point x="924" y="502"/>
      <point x="978" y="586"/>
      <point x="978" y="706" type="curve" smooth="yes"/>
      <point x="978" y="876"/>
      <point x="874" y="962"/>
      <point x="638" y="1050" type="curve"/>
      <point x="492" y="1104" type="line"/>
      <point x="468" y="1112"/>
      <point x="418" y="1132"/>
      <point x="418" y="1170" type="curve"/>
      <point x="418" y="1214"/>
      <point x="456" y="1242"/>
      <point x="516" y="1242" type="curve" smooth="yes"/>
      <point x="612" y="1242"/>
      <point x="672" y="1178"/>
      <point x="726" y="1122" type="curve"/>
      <point x="958" y="1232" type="line"/>
      <point x="902" y="1352"/>
      <point x="734" y="1466"/>
      <point x="508" y="1466" type="curve" smooth="yes"/>
      <point x="238" y="1466"/>
      <point x="78" y="1320"/>
      <point x="78" y="1132" type="curve" smooth="yes"/>
      <point x="78" y="1038"/>
      <point x="118" y="964"/>
      <point x="216" y="898" type="curve"/>
      <point x="116" y="846"/>
      <point x="58" y="756"/>
      <point x="58" y="634" type="curve" smooth="yes"/>
      <point x="58" y="464"/>
      <point x="162" y="378"/>
      <point x="398" y="290" type="curve" smooth="yes"/>
      <point x="534" y="240" type="line" smooth="yes"/>
      <point x="630" y="204"/>
      <point x="658" y="176"/>
      <point x="658" y="136" type="curve" smooth="yes"/>
      <point x="658" y="82"/>
      <point x="600" y="58"/>
      <point x="516" y="58" type="curve" smooth="yes"/>
      <point x="382" y="58"/>
      <point x="322" y="122"/>
      <point x="272" y="180" type="curve"/>
      <point x="40" y="68" type="line"/>
      <point x="96" y="-50"/>
      <point x="266" y="-166"/>
    </contour>
    <contour>
      <point x="584" y="552" type="curve"/>
      <point x="502" y="584" type="line" smooth="yes"/>
      <point x="388" y="626"/>
      <point x="364" y="646"/>
      <point x="364" y="692" type="curve" smooth="yes"/>
      <point x="364" y="738"/>
      <point x="388" y="778"/>
      <point x="462" y="784" type="curve"/>
      <point x="534" y="756" type="line" smooth="yes"/>
      <point x="622" y="724"/>
      <point x="662" y="692"/>
      <point x="670" y="654" type="curve" smooth="yes"/>
      <point x="680" y="594"/>
      <point x="648" y="544"/>
    </contour>
  </outline>
</glyph>
<glyph name="copyright" format="2">
  <advance width="1686"/>
  <unicode hex="00A9"/>
  <outline>
    <contour>
      <point x="832" y="-20" type="curve" smooth="yes"/>
      <point x="1242" y="-20"/>
      <point x="1576" y="310"/>
      <point x="1576" y="724" type="curve" smooth="yes"/>
      <point x="1576" y="1132"/>
      <point x="1242" y="1466"/>
      <point x="832" y="1466" type="curve" smooth="yes"/>
      <point x="422" y="1466"/>
      <point x="90" y="1132"/>
      <point x="90" y="724" type="curve" smooth="yes"/>
      <point x="90" y="310"/>
      <point x="422" y="-20"/>
    </contour>
    <contour>
      <point x="838" y="314" type="curve" smooth="yes"/>
      <point x="1086" y="314"/>
      <point x="1188" y="508"/>
      <point x="1202" y="594" type="curve"/>
      <point x="1018" y="630" type="line"/>
      <point x="982" y="558"/>
      <point x="950" y="502"/>
      <point x="864" y="502" type="curve" smooth="yes"/>
      <point x="778" y="502"/>
      <point x="728" y="560"/>
      <point x="728" y="728" type="curve" smooth="yes"/>
      <point x="728" y="888"/>
      <point x="774" y="950"/>
      <point x="846" y="950" type="curve" smooth="yes"/>
      <point x="920" y="950"/>
      <point x="936" y="880"/>
      <point x="942" y="832" type="curve"/>
      <point x="1204" y="846" type="line"/>
      <point x="1180" y="978"/>
      <point x="1058" y="1138"/>
      <point x="838" y="1138" type="curve" smooth="yes"/>
      <point x="602" y="1138"/>
      <point x="426" y="972"/>
      <point x="426" y="724" type="curve" smooth="yes"/>
      <point x="426" y="482"/>
      <point x="600" y="314"/>
    </contour>
    <contour>
      <point x="832" y="178" type="curve" smooth="yes"/>
      <point x="510" y="178"/>
      <point x="308" y="390"/>
      <point x="308" y="724" type="curve" smooth="yes"/>
      <point x="308" y="1054"/>
      <point x="510" y="1272"/>
      <point x="832" y="1272" type="curve" smooth="yes"/>
      <point x="1150" y="1272"/>
      <point x="1358" y="1054"/>
      <point x="1358" y="724" type="curve" smooth="yes"/>
      <point x="1358" y="390"/>
      <point x="1150" y="178"/>
    </contour>
  </outline>
</glyph>
<glyph name="ordfeminine" format="2">
  <advance width="809"/>
  <unicode hex="00AA"/>
  <outline>
    <contour>
      <point x="278" y="796" type="curve" smooth="yes"/>
      <point x="354" y="796"/>
      <point x="398" y="820"/>
      <point x="467" y="864" type="curve"/>
      <point x="482" y="808" type="line"/>
      <point x="719" y="808" type="line"/>
      <point x="705" y="856" type="line"/>
      <point x="698" y="886"/>
      <point x="698" y="988"/>
      <point x="698" y="1002" type="curve" smooth="yes"/>
      <point x="698" y="1098"/>
      <point x="698" y="1152"/>
      <point x="698" y="1266" type="curve" smooth="yes"/>
      <point x="698" y="1390"/>
      <point x="631" y="1464"/>
      <point x="402" y="1466" type="curve" smooth="yes"/>
      <point x="205" y="1466"/>
      <point x="133" y="1404"/>
      <point x="81" y="1286" type="curve"/>
      <point x="291" y="1246" type="line"/>
      <point x="314" y="1306"/>
      <point x="356" y="1320"/>
      <point x="396" y="1320" type="curve" smooth="yes"/>
      <point x="419" y="1320"/>
      <point x="467" y="1312"/>
      <point x="467" y="1250" type="curve"/>
      <point x="467" y="1210" type="line"/>
      <point x="419" y="1210" type="line" smooth="yes"/>
      <point x="203" y="1210"/>
      <point x="66" y="1114"/>
      <point x="66" y="982" type="curve" smooth="yes"/>
      <point x="66" y="872"/>
      <point x="139" y="796"/>
    </contour>
    <contour>
      <point x="375" y="940" type="curve" smooth="yes"/>
      <point x="327" y="940"/>
      <point x="301" y="964"/>
      <point x="301" y="998" type="curve" smooth="yes"/>
      <point x="301" y="1054"/>
      <point x="356" y="1090"/>
      <point x="427" y="1090" type="curve" smooth="yes"/>
      <point x="467" y="1090" type="line"/>
      <point x="467" y="1002" type="line" smooth="yes"/>
      <point x="467" y="982"/>
      <point x="459" y="974"/>
      <point x="448" y="964" type="curve" smooth="yes"/>
      <point x="431" y="950"/>
      <point x="404" y="940"/>
    </contour>
  </outline>
</glyph>
<glyph name="guillemetleft" format="2">
  <advance width="1080"/>
  <unicode hex="00AB"/>
  <outline>
    <contour>
      <point x="740" y="118" type="line"/>
      <point x="940" y="118" type="line"/>
      <point x="812" y="502" type="line"/>
      <point x="940" y="902" type="line"/>
      <point x="738" y="902" type="line"/>
      <point x="524" y="502" type="line"/>
    </contour>
    <contour>
      <point x="334" y="118" type="line"/>
      <point x="534" y="118" type="line"/>
      <point x="406" y="502" type="line"/>
      <point x="534" y="902" type="line"/>
      <point x="332" y="902" type="line"/>
      <point x="120" y="502" type="line"/>
    </contour>
  </outline>
</glyph>
<glyph name="logicalnot" format="2">
  <advance width="1238"/>
  <unicode hex="00AC"/>
  <outline>
    <contour>
      <point x="110" y="590" type="line"/>
      <point x="1128" y="590" type="line"/>
      <point x="1128" y="866" type="line"/>
      <point x="110" y="866" type="line"/>
    </contour>
    <contour>
      <point x="816" y="274" type="line"/>
      <point x="1128" y="274" type="line"/>
      <point x="1128" y="766" type="line"/>
      <point x="816" y="766" type="line"/>
    </contour>
  </outline>
</glyph>
<glyph name="softhyphen" format="2">
  <advance width="814"/>
  <unicode hex="00AD"/>
  <outline>
    <contour>
      <point x="117" y="376" type="line"/>
      <point x="697" y="376" type="line"/>
      <point x="697" y="650" type="line"/>
      <point x="117" y="650" type="line"/>
    </contour>
  </outline>
</glyph>
<glyph name="registered" format="2">
  <advance width="1130"/>
  <unicode hex="00AE"/>
  <outline>
    <contour>
      <point x="556" y="536" type="curve" smooth="yes"/>
      <point x="812" y="536"/>
      <point x="1020" y="742"/>
      <point x="1020" y="1000" type="curve" smooth="yes"/>
      <point x="1020" y="1258"/>
      <point x="812" y="1466"/>
      <point x="556" y="1466" type="curve" smooth="yes"/>
      <point x="296" y="1466"/>
      <point x="90" y="1258"/>
      <point x="90" y="1000" type="curve" smooth="yes"/>
      <point x="90" y="742"/>
      <point x="296" y="536"/>
    </contour>
    <contour>
      <point x="556" y="674" type="curve" smooth="yes"/>
      <point x="362" y="674"/>
      <point x="242" y="802"/>
      <point x="242" y="1000" type="curve" smooth="yes"/>
      <point x="242" y="1198"/>
      <point x="362" y="1328"/>
      <point x="556" y="1328" type="curve" smooth="yes"/>
      <point x="746" y="1328"/>
      <point x="868" y="1198"/>
      <point x="868" y="1000" type="curve" smooth="yes"/>
      <point x="868" y="802"/>
      <point x="746" y="674"/>
    </contour>
    <contour>
      <point x="360" y="768" type="line"/>
      <point x="500" y="768" type="line"/>
      <point x="500" y="960" type="line"/>
      <point x="558" y="960" type="line"/>
      <point x="622" y="768" type="line"/>
      <point x="776" y="768" type="line"/>
      <point x="684" y="976" type="line"/>
      <point x="736" y="998"/>
      <point x="774" y="1042"/>
      <point x="774" y="1100" type="curve" smooth="yes"/>
      <point x="774" y="1182"/>
      <point x="702" y="1228"/>
      <point x="584" y="1228" type="curve" smooth="yes"/>
      <point x="360" y="1228" type="line"/>
    </contour>
    <contour>
      <point x="500" y="1052" type="line"/>
      <point x="500" y="1136" type="line"/>
      <point x="576" y="1136" type="line" smooth="yes"/>
      <point x="602" y="1136"/>
      <point x="628" y="1122"/>
      <point x="628" y="1094" type="curve"/>
      <point x="628" y="1070"/>
      <point x="610" y="1052"/>
      <point x="582" y="1052" type="curve"/>
    </contour>
  </outline>
</glyph>
<glyph name="degree" format="2">
  <advance width="968"/>
  <unicode hex="00B0"/>
  <outline>
    <contour>
      <point x="474" y="962" type="curve" smooth="yes"/>
      <point x="676" y="962"/>
      <point x="828" y="1108"/>
      <point x="828" y="1316" type="curve" smooth="yes"/>
      <point x="828" y="1522"/>
      <point x="676" y="1672"/>
      <point x="474" y="1672" type="curve" smooth="yes"/>
      <point x="270" y="1672"/>
      <point x="120" y="1522"/>
      <point x="120" y="1316" type="curve" smooth="yes"/>
      <point x="120" y="1108"/>
      <point x="270" y="962"/>
    </contour>
    <contour>
      <point x="472" y="1168" type="curve" smooth="yes"/>
      <point x="386" y="1168"/>
      <point x="334" y="1228"/>
      <point x="332" y="1314" type="curve" smooth="yes"/>
      <point x="330" y="1398"/>
      <point x="386" y="1458"/>
      <point x="470" y="1458" type="curve" smooth="yes"/>
      <point x="556" y="1458"/>
      <point x="610" y="1398"/>
      <point x="610" y="1314" type="curve" smooth="yes"/>
      <point x="610" y="1228"/>
      <point x="556" y="1168"/>
    </contour>
  </outline>
</glyph>
<glyph name="plusminus" format="2">
  <advance width="1238"/>
  <unicode hex="00B1"/>
  <outline>
    <contour>
      <point x="110" y="30" type="line"/>
      <point x="1128" y="30" type="line"/>
      <point x="1128" y="304" type="line"/>
      <point x="110" y="304" type="line"/>
    </contour>
    <contour>
      <point x="758" y="1052" type="line"/>
      <point x="758" y="1424" type="line"/>
      <point x="482" y="1424" type="line"/>
      <point x="482" y="1052" type="line"/>
      <point x="110" y="1052" type="line"/>
      <point x="110" y="776" type="line"/>
      <point x="482" y="776" type="line"/>
      <point x="482" y="406" type="line"/>
      <point x="758" y="406" type="line"/>
      <point x="758" y="776" type="line"/>
      <point x="1128" y="776" type="line"/>
      <point x="1128" y="1052" type="line"/>
    </contour>
  </outline>
</glyph>
<glyph name="micro" format="2">
  <advance width="1242"/>
  <unicode hex="00B5"/>
  <outline>
    <contour>
      <point x="90" y="-330" type="line"/>
      <point x="489" y="-330" type="line"/>
      <point x="489" y="68" type="line"/>
      <point x="535" y="60"/>
      <point x="586" y="64"/>
      <point x="628" y="78" type="curve" smooth="yes"/>
      <point x="676" y="94"/>
      <point x="718" y="124"/>
      <point x="743" y="164" type="curve"/>
      <point x="743" y="0" type="line"/>
      <point x="1134" y="0" type="line"/>
      <point x="1142" y="1060" type="line"/>
      <point x="737" y="1060" type="line"/>
      <point x="737" y="458" type="line"/>
      <point x="733" y="394"/>
      <point x="686" y="352"/>
      <point x="617" y="352" type="curve" smooth="yes"/>
      <point x="541" y="352"/>
      <point x="489" y="394"/>
      <point x="489" y="458" type="curve"/>
      <point x="489" y="1060" type="line"/>
      <point x="90" y="1060" type="line"/>
    </contour>
  </outline>
</glyph>
<glyph name="paragraph" format="2">
  <advance width="1270"/>
  <unicode hex="00B6"/>
  <outline>
    <contour>
      <point x="1180" y="1234" type="line"/>
      <point x="1180" y="1446" type="line"/>
      <point x="532" y="1446" type="line" smooth="yes"/>
      <point x="230" y="1446"/>
      <point x="60" y="1264"/>
      <point x="60" y="1024" type="curve" smooth="yes"/>
      <point x="60" y="746"/>
      <point x="258" y="624"/>
      <point x="462" y="600" type="curve"/>
      <point x="462" y="-166" type="line"/>
      <point x="692" y="-166" type="line"/>
      <point x="692" y="1234" type="line"/>
      <point x="822" y="1234" type="line"/>
      <point x="822" y="-166" type="line"/>
      <point x="1052" y="-166" type="line"/>
      <point x="1052" y="1234" type="line"/>
    </contour>
  </outline>
</glyph>
<glyph name="periodcentered" format="2">
  <advance width="572"/>
  <unicode hex="00B7"/>
  <outline>
    <contour>
      <point x="452" y="902" type="line"/>
      <point x="90" y="902" type="line"/>
      <point x="90" y="554" type="line"/>
      <point x="452" y="554" type="line"/>
    </contour>
  </outline>
</glyph>
<glyph name="ordmasculine" format="2">
  <advance width="801"/>
  <unicode hex="00BA"/>
  <outline>
    <contour>
      <point x="400" y="796" type="curve" smooth="yes"/>
      <point x="600" y="796"/>
      <point x="741" y="934"/>
      <point x="741" y="1128" type="curve" smooth="yes"/>
      <point x="741" y="1324"/>
      <point x="604" y="1466"/>
      <point x="400" y="1466" type="curve" smooth="yes"/>
      <point x="208" y="1466"/>
      <point x="60" y="1330"/>
      <point x="60" y="1128" type="curve" smooth="yes"/>
      <point x="60" y="934"/>
      <point x="199" y="796"/>
    </contour>
    <contour>
      <point x="400" y="952" type="curve" smooth="yes"/>
      <point x="336" y="952"/>
      <point x="306" y="1006"/>
      <point x="306" y="1132" type="curve" smooth="yes"/>
      <point x="306" y="1260"/>
      <point x="336" y="1314"/>
      <point x="400" y="1314" type="curve" smooth="yes"/>
      <point x="466" y="1314"/>
      <point x="495" y="1260"/>
      <point x="495" y="1132" type="curve" smooth="yes"/>
      <point x="495" y="1006"/>
      <point x="466" y="952"/>
    </contour>
  </outline>
</glyph>
<glyph name="guillemetright" format="2">
  <advance width="1080"/>
  <unicode hex="00BB"/>
  <outline>
    <contour>
      <point x="524" y="118" type="line"/>
      <point x="726" y="118" type="line"/>
      <point x="940" y="502" type="line"/>
      <point x="728" y="902" type="line"/>
      <point x="524" y="902" type="line"/>
      <point x="654" y="502" type="line"/>
    </contour>
    <contour>
      <point x="120" y="118" type="line"/>
      <point x="320" y="118" type="line"/>
      <point x="534" y="502" type="line"/>
      <point x="322" y="902" type="line"/>
      <point x="120" y="902" type="line"/>
      <point x="248" y="502" type="line"/>
    </contour>
  </outline>
</glyph>
<glyph name="questiondown" format="2">
  <advance width="1134"/>
  <unicode hex="00BF"/>
  <outline>
    <contour>
      <point x="574" y="-342" type="curve" smooth="yes"/>
      <point x="844" y="-342"/>
      <point x="1028" y="-214"/>
      <point x="1114" y="24" type="curve"/>
      <point x="790" y="92" type="line"/>
      <point x="748" y="-14"/>
      <point x="666" y="-78"/>
      <point x="578" y="-78" type="curve" smooth="yes"/>
      <point x="510" y="-78"/>
      <point x="450" y="-38"/>
      <point x="450" y="16" type="curve" smooth="yes"/>
      <point x="450" y="172"/>
      <point x="748" y="230"/>
      <point x="748" y="528" type="curve"/>
      <point x="442" y="528" type="line"/>
      <point x="442" y="310"/>
      <point x="70" y="312"/>
      <point x="70" y="-6" type="curve" smooth="yes"/>
      <point x="70" y="-184"/>
      <point x="232" y="-342"/>
    </contour>
    <contour>
      <point x="392" y="650" type="line"/>
      <point x="802" y="650" type="line"/>
      <point x="802" y="1034" type="line"/>
      <point x="392" y="1034" type="line"/>
    </contour>
  </outline>
</glyph>
<glyph name="AE" format="2">
  <advance width="2200"/>
  <unicode hex="00C6"/>
  <anchor x="1382" y="1446" name="top"/>
  <outline>
    <contour>
      <point x="0" y="0" type="line"/>
      <point x="388" y="0" type="line"/>
      <point x="526" y="280" type="line"/>
      <point x="966" y="280" type="line"/>
      <point x="966" y="0" type="line"/>
      <point x="2110" y="0" type="line"/>
      <point x="2110" y="320" type="line"/>
      <point x="1410" y="320" type="line"/>
      <point x="1410" y="570" type="line"/>
      <point x="1980" y="570" type="line"/>
      <point x="1980" y="884" type="line"/>
      <point x="1410" y="884" type="line"/>
      <point x="1410" y="1128" type="line"/>
      <point x="2090" y="1128" type="line"/>
      <point x="2092" y="1446" type="line"/>
      <point x="750" y="1446" type="line"/>
    </contour>
    <contour>
      <point x="668" y="612" type="line"/>
      <point x="966" y="1202" type="line"/>
      <point x="966" y="612" type="line"/>
    </contour>
  </outline>
</glyph>
<glyph name="Eth" format="2">
  <advance width="1574"/>
  <unicode hex="00D0"/>
  <anchor x="791" y="0" name="bottom"/>
  <anchor x="829" y="724" name="center"/>
  <anchor x="829" y="1446" name="top"/>
  <outline>
    <contour>
      <point x="70" y="577" type="line"/>
      <point x="866" y="577" type="line"/>
      <point x="866" y="851" type="line"/>
      <point x="70" y="851" type="line"/>
    </contour>
    <component base="D" xOffset="86"/>
  </outline>
</glyph>
<glyph name="multiply" format="2">
  <advance width="1220"/>
  <unicode hex="00D7"/>
  <outline>
    <contour>
      <point x="304" y="230" type="line"/>
      <point x="1110" y="1032" type="line"/>
      <point x="914" y="1228" type="line"/>
      <point x="112" y="426" type="line"/>
    </contour>
    <contour>
      <point x="910" y="230" type="line"/>
      <point x="1106" y="426" type="line"/>
      <point x="302" y="1228" type="line"/>
      <point x="110" y="1032" type="line"/>
    </contour>
  </outline>
</glyph>
<glyph name="Oslash" format="2">
  <advance width="1598"/>
  <unicode hex="00D8"/>
  <anchor x="788" y="1446" name="top"/>
  <outline>
    <contour>
      <point x="186" y="-28" type="line"/>
      <point x="342" y="122" type="line"/>
      <point x="458" y="32"/>
      <point x="610" y="-20"/>
      <point x="790" y="-20" type="curve" smooth="yes"/>
      <point x="1216" y="-20"/>
      <point x="1488" y="272"/>
      <point x="1488" y="720" type="curve" smooth="yes"/>
      <point x="1488" y="884"/>
      <point x="1452" y="1026"/>
      <point x="1384" y="1140" type="curve"/>
      <point x="1558" y="1312" type="line"/>
      <point x="1406" y="1472" type="line"/>
      <point x="1242" y="1314" type="line"/>
      <point x="1126" y="1412"/>
      <point x="972" y="1466"/>
      <point x="790" y="1466" type="curve" smooth="yes"/>
      <point x="366" y="1466"/>
      <point x="88" y="1172"/>
      <point x="88" y="720" type="curve" smooth="yes"/>
      <point x="88" y="552"/>
      <point x="126" y="408"/>
      <point x="194" y="292" type="curve"/>
      <point x="30" y="134" type="line"/>
    </contour>
    <contour>
      <point x="790" y="284" type="curve" smooth="yes"/>
      <point x="704" y="284"/>
      <point x="644" y="314"/>
      <point x="606" y="380" type="curve"/>
      <point x="1024" y="790" type="line"/>
      <point x="1024" y="670"/>
      <point x="1018" y="576"/>
      <point x="1002" y="502" type="curve" smooth="yes"/>
      <point x="972" y="348"/>
      <point x="904" y="284"/>
    </contour>
    <contour>
      <point x="552" y="640" type="line"/>
      <point x="552" y="740"/>
      <point x="556" y="824"/>
      <point x="568" y="894" type="curve" smooth="yes"/>
      <point x="596" y="1084"/>
      <point x="666" y="1166"/>
      <point x="790" y="1166" type="curve" smooth="yes"/>
      <point x="876" y="1166"/>
      <point x="936" y="1132"/>
      <point x="974" y="1052" type="curve"/>
    </contour>
  </outline>
</glyph>
<glyph name="Thorn" format="2">
  <advance width="1416"/>
  <unicode hex="00DE"/>
  <outline>
    <contour>
      <point x="135" y="0" type="line"/>
      <point x="524" y="0" type="line"/>
      <point x="524" y="276" type="line"/>
      <point x="788" y="276" type="line" smooth="yes"/>
      <point x="1118" y="276"/>
      <point x="1356" y="444"/>
      <point x="1356" y="727" type="curve" smooth="yes"/>
      <point x="1356" y="1032"/>
      <point x="1118" y="1186"/>
      <point x="788" y="1186" type="curve" smooth="yes"/>
      <point x="524" y="1186" type="line"/>
      <point x="524" y="1446" type="line"/>
      <point x="135" y="1446" type="line"/>
    </contour>
    <contour>
      <point x="524" y="588" type="line"/>
      <point x="524" y="875" type="line"/>
      <point x="770" y="875" type="line" smooth="yes"/>
      <point x="881" y="875"/>
      <point x="950" y="833"/>
      <point x="950" y="729" type="curve" smooth="yes"/>
      <point x="950" y="625"/>
      <point x="881" y="588"/>
      <point x="770" y="588" type="curve" smooth="yes"/>
    </contour>
  </outline>
</glyph>
<glyph name="germandbls" format="2">
  <advance width="1323"/>
  <unicode hex="00DF"/>
  <outline>
    <contour>
      <point x="808" y="-20" type="curve" smooth="yes"/>
      <point x="1083" y="-20"/>
      <point x="1257" y="108"/>
      <point x="1257" y="350" type="curve" smooth="yes"/>
      <point x="1257" y="610"/>
      <point x="1054" y="702"/>
      <point x="835" y="800" type="curve" smooth="yes"/>
      <point x="825" y="804"/>
      <point x="821" y="810"/>
      <point x="821" y="816" type="curve" smooth="yes"/>
      <point x="821" y="820"/>
      <point x="825" y="826"/>
      <point x="831" y="828" type="curve" smooth="yes"/>
      <point x="1033" y="910"/>
      <point x="1109" y="996"/>
      <point x="1109" y="1132" type="curve" smooth="yes"/>
      <point x="1109" y="1340"/>
      <point x="938" y="1446"/>
      <point x="651" y="1446" type="curve" smooth="yes"/>
      <point x="233" y="1446"/>
      <point x="109" y="1202"/>
      <point x="100" y="968" type="curve"/>
      <point x="102" y="0" type="line"/>
      <point x="483" y="0" type="line"/>
      <point x="483" y="1044" type="line" smooth="yes"/>
      <point x="483" y="1132"/>
      <point x="535" y="1204"/>
      <point x="638" y="1204" type="curve" smooth="yes"/>
      <point x="720" y="1204"/>
      <point x="762" y="1160"/>
      <point x="762" y="1108" type="curve" smooth="yes"/>
      <point x="762" y="1044"/>
      <point x="703" y="998"/>
      <point x="648" y="940" type="curve" smooth="yes"/>
      <point x="598" y="888"/>
      <point x="547" y="820"/>
      <point x="547" y="718" type="curve" smooth="yes"/>
      <point x="547" y="576"/>
      <point x="640" y="486"/>
      <point x="764" y="430" type="curve" smooth="yes"/>
      <point x="865" y="386"/>
      <point x="913" y="364"/>
      <point x="913" y="308" type="curve" smooth="yes"/>
      <point x="913" y="246"/>
      <point x="859" y="220"/>
      <point x="799" y="220" type="curve" smooth="yes"/>
      <point x="730" y="220"/>
      <point x="684" y="254"/>
      <point x="651" y="276" type="curve"/>
      <point x="545" y="44" type="line"/>
      <point x="606" y="8"/>
      <point x="688" y="-20"/>
    </contour>
  </outline>
</glyph>
<glyph name="ae" format="2">
  <advance width="1826"/>
  <unicode hex="00E6"/>
  <anchor x="597" y="0" name="bottom"/>
  <anchor x="1011" y="20" name="ogonek"/>
  <anchor x="856" y="1034" name="top"/>
  <outline>
    <contour>
      <point x="423" y="-20" type="curve" smooth="yes"/>
      <point x="657" y="-20"/>
      <point x="771" y="50"/>
      <point x="827" y="175" type="curve"/>
      <point x="922" y="52"/>
      <point x="1075" y="-20"/>
      <point x="1264" y="-20" type="curve" smooth="yes"/>
      <point x="1493" y="-20"/>
      <point x="1728" y="122"/>
      <point x="1760" y="352" type="curve"/>
      <point x="1416" y="352" type="line"/>
      <point x="1384" y="272"/>
      <point x="1325" y="252"/>
      <point x="1254" y="252" type="curve" smooth="yes"/>
      <point x="1170" y="252"/>
      <point x="1102" y="304"/>
      <point x="1104" y="428" type="curve"/>
      <point x="1756" y="428" type="line"/>
      <point x="1756" y="518" type="line" smooth="yes"/>
      <point x="1756" y="824"/>
      <point x="1586" y="1054"/>
      <point x="1248" y="1054" type="curve" smooth="yes"/>
      <point x="1134" y="1054"/>
      <point x="1036" y="1024"/>
      <point x="957" y="973" type="curve"/>
      <point x="884" y="1024"/>
      <point x="770" y="1054"/>
      <point x="599" y="1054" type="curve" smooth="yes"/>
      <point x="333" y="1054"/>
      <point x="117" y="956"/>
      <point x="106" y="712" type="curve"/>
      <point x="421" y="712" type="line"/>
      <point x="453" y="782"/>
      <point x="528" y="800"/>
      <point x="581" y="802" type="curve" smooth="yes"/>
      <point x="659" y="804"/>
      <point x="696" y="774"/>
      <point x="696" y="708" type="curve" smooth="yes"/>
      <point x="696" y="664" type="line"/>
      <point x="616" y="664" type="line" smooth="yes"/>
      <point x="240" y="664"/>
      <point x="66" y="534"/>
      <point x="66" y="310" type="curve" smooth="yes"/>
      <point x="66" y="96"/>
      <point x="228" y="-20"/>
    </contour>
    <contour>
      <point x="560" y="226" type="curve" smooth="yes"/>
      <point x="493" y="226"/>
      <point x="431" y="272"/>
      <point x="431" y="350" type="curve" smooth="yes"/>
      <point x="431" y="452"/>
      <point x="572" y="480"/>
      <point x="633" y="480" type="curve" smooth="yes"/>
      <point x="696" y="480" type="line"/>
      <point x="696" y="350" type="line" smooth="yes"/>
      <point x="694" y="284"/>
      <point x="635" y="226"/>
    </contour>
    <contour>
      <point x="1102" y="646" type="line"/>
      <point x="1102" y="724"/>
      <point x="1168" y="792"/>
      <point x="1248" y="792" type="curve" smooth="yes"/>
      <point x="1346" y="792"/>
      <point x="1397" y="724"/>
      <point x="1397" y="646" type="curve"/>
    </contour>
  </outline>
</glyph>
<glyph name="ccedilla" format="2">
  <advance width="1101"/>
  <unicode hex="00E7"/>
  <anchor x="579" y="0" name="_bottom"/>
  <anchor x="579" y="0" name="bottom"/>
  <anchor x="578" y="1034" name="top"/>
  <outline>
    <contour>
      <point x="589" y="-438" type="curve" smooth="yes"/>
      <point x="727" y="-438"/>
      <point x="849" y="-372"/>
      <point x="849" y="-268" type="curve" smooth="yes"/>
      <point x="849" y="-194"/>
      <point x="789" y="-104"/>
      <point x="625" y="-104" type="curve"/>
      <point x="667" y="10" type="line"/>
      <point x="509" y="10" type="line"/>
      <point x="435" y="-162" type="line" smooth="yes"/>
      <point x="425" y="-184"/>
      <point x="435" y="-186"/>
      <point x="455" y="-186" type="curve" smooth="yes"/>
      <point x="589" y="-186"/>
      <point x="633" y="-214"/>
      <point x="633" y="-262" type="curve" smooth="yes"/>
      <point x="633" y="-294"/>
      <point x="595" y="-314"/>
      <point x="541" y="-314" type="curve" smooth="yes"/>
      <point x="483" y="-314"/>
      <point x="419" y="-288"/>
      <point x="371" y="-262" type="curve"/>
      <point x="323" y="-380" type="line"/>
      <point x="401" y="-426"/>
      <point x="495" y="-438"/>
    </contour>
    <component base="c"/>
  </outline>
</glyph>
<glyph name="eth" format="2">
  <advance width="1208"/>
  <unicode hex="00F0"/>
  <outline>
    <contour>
      <point x="602" y="-20" type="curve" smooth="yes"/>
      <point x="928" y="-20"/>
      <point x="1148" y="208"/>
      <point x="1148" y="560" type="curve" smooth="yes"/>
      <point x="1148" y="1002"/>
      <point x="1004" y="1349"/>
      <point x="740" y="1481" type="curve"/>
      <point x="277" y="1481" type="line"/>
      <point x="361" y="1414"/>
      <point x="711" y="1278"/>
      <point x="892" y="853" type="curve"/>
      <point x="813" y="964"/>
      <point x="687" y="1016"/>
      <point x="559" y="1016" type="curve" smooth="yes"/>
      <point x="314" y="1016"/>
      <point x="60" y="851"/>
      <point x="60" y="492" type="curve" smooth="yes"/>
      <point x="60" y="200"/>
      <point x="283" y="-20"/>
    </contour>
    <contour>
      <point x="586" y="262" type="curve" smooth="yes"/>
      <point x="460" y="262"/>
      <point x="438" y="414"/>
      <point x="438" y="524" type="curve" smooth="yes"/>
      <point x="438" y="636"/>
      <point x="460" y="776"/>
      <point x="586" y="776" type="curve" smooth="yes"/>
      <point x="710" y="776"/>
      <point x="732" y="636"/>
      <point x="732" y="524" type="curve" smooth="yes"/>
      <point x="732" y="414"/>
      <point x="710" y="262"/>
    </contour>
    <contour>
      <point x="277" y="1021" type="line"/>
      <point x="1053" y="1254" type="line"/>
      <point x="1053" y="1487" type="line"/>
      <point x="277" y="1255" type="line"/>
    </contour>
  </outline>
</glyph>
<glyph name="divide" format="2">
  <advance width="1238"/>
  <unicode hex="00F7"/>
  <outline>
    <contour>
      <point x="110" y="590" type="line"/>
      <point x="1128" y="590" type="line"/>
      <point x="1128" y="866" type="line"/>
      <point x="110" y="866" type="line"/>
    </contour>
    <contour>
      <point x="436" y="118" type="line"/>
      <point x="806" y="118" type="line"/>
      <point x="806" y="474" type="line"/>
      <point x="436" y="474" type="line"/>
    </contour>
    <contour>
      <point x="436" y="982" type="line"/>
      <point x="806" y="982" type="line"/>
      <point x="806" y="1338" type="line"/>
      <point x="436" y="1338" type="line"/>
    </contour>
  </outline>
</glyph>
<glyph name="oslash" format="2">
  <advance width="1270"/>
  <unicode hex="00F8"/>
  <anchor x="626" y="1034" name="top"/>
  <anchor x="655" y="0" name="bottom"/>
  <anchor x="1029" y="714" name="horn"/>
  <anchor x="814" y="20" name="ogonek"/>
  <outline>
    <contour>
      <point x="176" y="-18" type="line"/>
      <point x="1190" y="926" type="line"/>
      <point x="1076" y="1050" type="line"/>
      <point x="60" y="106" type="line"/>
    </contour>
    <component base="o" xOffset="76"/>
  </outline>
</glyph>
<glyph name="thorn" format="2">
  <advance width="1235"/>
  <unicode hex="00FE"/>
  <outline>
    <contour>
      <point x="100" y="-322" type="line"/>
      <point x="489" y="-322" type="line"/>
      <point x="489" y="70" type="line" smooth="yes"/>
      <point x="489" y="110"/>
      <point x="497" y="108"/>
      <point x="529" y="80" type="curve" smooth="yes"/>
      <point x="611" y="2"/>
      <point x="691" y="-20"/>
      <point x="779" y="-20" type="curve" smooth="yes"/>
      <point x="997" y="-20"/>
      <point x="1175" y="126"/>
      <point x="1175" y="520" type="curve" smooth="yes"/>
      <point x="1175" y="886"/>
      <point x="1009" y="1054"/>
      <point x="793" y="1054" type="curve" smooth="yes"/>
      <point x="657" y="1054"/>
      <point x="573" y="1002"/>
      <point x="491" y="914" type="curve"/>
      <point x="491" y="1446" type="line"/>
      <point x="100" y="1446" type="line"/>
    </contour>
    <contour>
      <point x="625" y="216" type="curve" smooth="yes"/>
      <point x="564" y="216"/>
      <point x="522" y="248"/>
      <point x="489" y="294" type="curve"/>
      <point x="489" y="708" type="line" smooth="yes"/>
      <point x="489" y="770"/>
      <point x="549" y="818"/>
      <point x="625" y="818" type="curve" smooth="yes"/>
      <point x="728" y="818"/>
      <point x="781" y="758"/>
      <point x="781" y="532" type="curve" smooth="yes"/>
      <point x="781" y="282"/>
      <point x="724" y="216"/>
    </contour>
  </outline>
</glyph>
<glyph name="dcroat" format="2">
  <advance width="1318"/>
  <unicode hex="0111"/>
  <anchor x="544" y="0" name="bottom"/>
  <anchor x="1138" y="1486" name="caron"/>
  <anchor x="607" y="516" name="center"/>
  <outline>
    <contour>
      <point x="534" y="1132" type="line"/>
      <point x="1258" y="1132" type="line"/>
      <point x="1258" y="1340" type="line"/>
      <point x="534" y="1340" type="line"/>
    </contour>
    <component base="d"/>
  </outline>
</glyph>
<glyph name="eogonek" format="2">
  <advance width="1170"/>
  <unicode hex="0119"/>
  <anchor x="600" y="0" name="bottom"/>
  <anchor x="850" y="50" name="ogonek"/>
  <anchor x="594" y="1034" name="top"/>
  <outline>
    <contour>
      <point x="682" y="-310" type="curve" smooth="yes"/>
      <point x="782" y="-310"/>
      <point x="874" y="-282"/>
      <point x="914" y="-256" type="curve"/>
      <point x="914" y="-92" type="line"/>
      <point x="866" y="-120"/>
      <point x="826" y="-142"/>
      <point x="768" y="-142" type="curve" smooth="yes"/>
      <point x="732" y="-142"/>
      <point x="714" y="-124"/>
      <point x="714" y="-86" type="curve" smooth="yes"/>
      <point x="714" y="-46"/>
      <point x="762" y="-16"/>
      <point x="857" y="37" type="curve" smooth="yes"/>
      <point x="1006" y="120"/>
      <point x="1085" y="214"/>
      <point x="1104" y="352" type="curve"/>
      <point x="760" y="352" type="line"/>
      <point x="728" y="272"/>
      <point x="669" y="252"/>
      <point x="598" y="252" type="curve" smooth="yes"/>
      <point x="514" y="252"/>
      <point x="446" y="304"/>
      <point x="448" y="428" type="curve"/>
      <point x="1100" y="428" type="line"/>
      <point x="1100" y="518" type="line" smooth="yes"/>
      <point x="1100" y="824"/>
      <point x="930" y="1054"/>
      <point x="592" y="1054" type="curve" smooth="yes"/>
      <point x="260" y="1054"/>
      <point x="66" y="800"/>
      <point x="66" y="504" type="curve" smooth="yes"/>
      <point x="66" y="221"/>
      <point x="243" y="23"/>
      <point x="514" y="-14" type="curve"/>
      <point x="459" y="-53"/>
      <point x="446" y="-96"/>
      <point x="446" y="-140" type="curve" smooth="yes"/>
      <point x="446" y="-256"/>
      <point x="540" y="-310"/>
    </contour>
    <contour>
      <point x="446" y="646" type="line"/>
      <point x="446" y="724"/>
      <point x="512" y="792"/>
      <point x="592" y="792" type="curve" smooth="yes"/>
      <point x="690" y="792"/>
      <point x="741" y="724"/>
      <point x="741" y="646" type="curve"/>
    </contour>
  </outline>
</glyph>
<glyph name="Hbar" format="2">
  <advance width="1708"/>
  <unicode hex="0126"/>
  <anchor x="864" y="0" name="bottom"/>
  <anchor x="867" y="1446" name="top"/>
  <outline>
    <contour>
      <point x="40" y="1082" type="line"/>
      <point x="1668" y="1082" type="line"/>
      <point x="1668" y="1284" type="line"/>
      <point x="40" y="1284" type="line"/>
    </contour>
    <component base="H" xOffset="90"/>
  </outline>
</glyph>
<glyph name="idotless" format="2">
  <advance width="571"/>
  <unicode hex="0131"/>
  <anchor x="434" y="18" name="ogonek"/>
  <anchor x="292" y="1034" name="top"/>
  <outline>
    <contour>
      <point x="471" y="1034" type="line"/>
      <point x="100" y="1034" type="line"/>
      <point x="100" y="0" type="line"/>
      <point x="471" y="0" type="line"/>
    </contour>
  </outline>
</glyph>
<glyph name="kgreenlandic" format="2">
  <advance width="1254"/>
  <unicode hex="0138"/>
  <outline>
    <contour>
      <point x="100" y="0" type="line"/>
      <point x="489" y="0" type="line"/>
      <point x="489" y="292" type="line"/>
      <point x="628" y="422" type="line"/>
      <point x="804" y="0" type="line"/>
      <point x="1244" y="0" type="line"/>
      <point x="884" y="700" type="line"/>
      <point x="1216" y="1034" type="line"/>
      <point x="834" y="1034" type="line"/>
      <point x="489" y="644" type="line"/>
      <point x="489" y="1034" type="line"/>
      <point x="100" y="1034" type="line"/>
    </contour>
  </outline>
</glyph>
<glyph name="Lslash" format="2">
  <advance width="1196"/>
  <unicode hex="0141"/>
  <anchor x="653" y="0" name="bottom"/>
  <anchor x="741" y="1446" name="caron"/>
  <anchor x="361" y="1446" name="top"/>
  <outline>
    <contour>
      <point x="0" y="538" type="line"/>
      <point x="874" y="786" type="line"/>
      <point x="874" y="1088" type="line"/>
      <point x="0" y="856" type="line"/>
    </contour>
    <component base="L" xOffset="40"/>
  </outline>
</glyph>
<glyph name="lslash" format="2">
  <advance width="775"/>
  <unicode hex="0142"/>
  <anchor x="336" y="0" name="bottom"/>
  <anchor x="551" y="1486" name="caron"/>
  <anchor x="363" y="1530" name="top"/>
  <outline>
    <contour>
      <point x="70" y="284" type="line"/>
      <point x="702" y="698" type="line"/>
      <point x="702" y="1004" type="line"/>
      <point x="70" y="608" type="line"/>
    </contour>
    <component base="l" xOffset="70"/>
  </outline>
</glyph>
<glyph name="Eng" format="2">
  <advance width="1615"/>
  <unicode hex="014A"/>
  <anchor x="807" y="0" name="bottom"/>
  <anchor x="807" y="1446" name="top"/>
  <outline>
    <contour>
      <point x="1051" y="-480" type="curve" smooth="yes"/>
      <point x="1373" y="-480"/>
      <point x="1479" y="-356"/>
      <point x="1479" y="0" type="curve" smooth="yes"/>
      <point x="1480" y="1446" type="line"/>
      <point x="1091" y="1446" type="line"/>
      <point x="1091" y="640" type="line"/>
      <point x="527" y="1446" type="line"/>
      <point x="135" y="1446" type="line"/>
      <point x="135" y="0" type="line"/>
      <point x="524" y="0" type="line"/>
      <point x="524" y="862" type="line"/>
      <point x="1088" y="58" type="line"/>
      <point x="1088" y="30" type="line" smooth="yes"/>
      <point x="1088" y="-73"/>
      <point x="1032" y="-120"/>
      <point x="917" y="-120" type="curve" smooth="yes"/>
      <point x="875" y="-120"/>
      <point x="825" y="-114"/>
      <point x="789" y="-110" type="curve"/>
      <point x="789" y="-460" type="line"/>
      <point x="849" y="-472"/>
      <point x="969" y="-480"/>
    </contour>
  </outline>
</glyph>
<glyph name="eng" format="2">
  <advance width="1227"/>
  <unicode hex="014B"/>
  <outline>
    <contour>
      <point x="730" y="-332" type="curve" smooth="yes"/>
      <point x="963" y="-332"/>
      <point x="1127" y="-184"/>
      <point x="1127" y="56" type="curve" smooth="yes"/>
      <point x="1127" y="738" type="line" smooth="yes"/>
      <point x="1127" y="930"/>
      <point x="1003" y="1054"/>
      <point x="821" y="1054" type="curve" smooth="yes"/>
      <point x="691" y="1054"/>
      <point x="573" y="976"/>
      <point x="487" y="872" type="curve"/>
      <point x="487" y="1034" type="line"/>
      <point x="106" y="1034" type="line"/>
      <point x="100" y="0" type="line"/>
      <point x="493" y="0" type="line"/>
      <point x="493" y="680" type="line"/>
      <point x="529" y="746"/>
      <point x="573" y="778"/>
      <point x="636" y="778" type="curve" smooth="yes"/>
      <point x="697" y="778"/>
      <point x="737" y="742"/>
      <point x="737" y="684" type="curve" smooth="yes"/>
      <point x="737" y="50" type="line"/>
      <point x="737" y="0"/>
      <point x="711" y="-20"/>
      <point x="651" y="-30" type="curve"/>
      <point x="604" y="-36" type="line"/>
      <point x="604" y="-306" type="line"/>
      <point x="604" y="-306"/>
      <point x="617" y="-332"/>
    </contour>
  </outline>
</glyph>
<glyph name="Tcedilla" format="2">
  <advance width="1274"/>
  <unicode hex="0162"/>
  <anchor x="654" y="0" name="_bottom"/>
  <anchor x="654" y="0" name="bottom"/>
  <anchor x="654" y="1446" name="top"/>
  <outline>
    <contour>
      <point x="664" y="-438" type="curve" smooth="yes"/>
      <point x="802" y="-438"/>
      <point x="924" y="-372"/>
      <point x="924" y="-268" type="curve" smooth="yes"/>
      <point x="924" y="-194"/>
      <point x="864" y="-104"/>
      <point x="700" y="-104" type="curve"/>
      <point x="742" y="10" type="line"/>
      <point x="584" y="10" type="line"/>
      <point x="510" y="-162" type="line" smooth="yes"/>
      <point x="500" y="-184"/>
      <point x="510" y="-186"/>
      <point x="530" y="-186" type="curve" smooth="yes"/>
      <point x="664" y="-186"/>
      <point x="708" y="-214"/>
      <point x="708" y="-262" type="curve" smooth="yes"/>
      <point x="708" y="-294"/>
      <point x="670" y="-314"/>
      <point x="616" y="-314" type="curve" smooth="yes"/>
      <point x="558" y="-314"/>
      <point x="494" y="-288"/>
      <point x="446" y="-262" type="curve"/>
      <point x="398" y="-380" type="line"/>
      <point x="476" y="-426"/>
      <point x="570" y="-438"/>
    </contour>
    <component base="T"/>
  </outline>
</glyph>
<glyph name="Tbar" format="2">
  <advance width="1274"/>
  <unicode hex="0166"/>
  <anchor x="654" y="0" name="bottom"/>
  <anchor x="654" y="1446" name="top"/>
  <outline>
    <contour>
      <point x="208" y="548" type="line"/>
      <point x="1062" y="548" type="line"/>
      <point x="1062" y="822" type="line"/>
      <point x="208" y="822" type="line"/>
    </contour>
    <component base="T"/>
  </outline>
</glyph>
<glyph name="tbar" format="2">
  <advance width="882"/>
  <unicode hex="0167"/>
  <anchor x="506" y="18" name="bottom"/>
  <anchor x="544" y="1586" name="caron"/>
  <anchor x="434" y="516" name="center"/>
  <outline>
    <contour>
      <point x="58" y="450" type="line"/>
      <point x="783" y="450" type="line"/>
      <point x="783" y="660" type="line"/>
      <point x="58" y="660" type="line"/>
    </contour>
    <component base="t"/>
  </outline>
</glyph>
<glyph name="Schwa" format="2">
  <advance width="1566"/>
  <unicode hex="018F"/>
  <outline>
    <contour>
      <point x="778" y="-20" type="curve" smooth="yes"/>
      <point x="1178" y="-20"/>
      <point x="1481" y="218"/>
      <point x="1481" y="742" type="curve" smooth="yes"/>
      <point x="1481" y="1208"/>
      <point x="1216" y="1466"/>
      <point x="778" y="1466" type="curve" smooth="yes"/>
      <point x="353" y="1466"/>
      <point x="85" y="1172"/>
      <point x="85" y="932" type="curve"/>
      <point x="519" y="932" type="line"/>
      <point x="519" y="1015"/>
      <point x="619" y="1108"/>
      <point x="769" y="1108" type="curve" smooth="yes"/>
      <point x="919" y="1108"/>
      <point x="1014" y="1008"/>
      <point x="1014" y="828" type="curve"/>
      <point x="85" y="828" type="line"/>
      <point x="85" y="221"/>
      <point x="378" y="-20"/>
    </contour>
    <contour>
      <point x="778" y="314" type="curve" smooth="yes"/>
      <point x="639" y="314"/>
      <point x="560" y="408"/>
      <point x="560" y="556" type="curve"/>
      <point x="1010" y="554" type="line"/>
      <point x="1010" y="408"/>
      <point x="930" y="314"/>
    </contour>
  </outline>
</glyph>
<glyph name="florin" format="2">
  <advance width="1152"/>
  <unicode hex="0192"/>
  <outline>
    <contour>
      <point x="20" y="-336" type="line"/>
      <point x="304" y="-336" type="line" smooth="yes"/>
      <point x="494" y="-336"/>
      <point x="632" y="-230"/>
      <point x="662" y="-60" type="curve" smooth="yes"/>
      <point x="808" y="770" type="line"/>
      <point x="994" y="770" type="line"/>
      <point x="1042" y="1034" type="line"/>
      <point x="844" y="1034" type="line"/>
      <point x="854" y="1094" type="line" smooth="yes"/>
      <point x="864" y="1148"/>
      <point x="914" y="1194"/>
      <point x="960" y="1194" type="curve" smooth="yes"/>
      <point x="1080" y="1194" type="line"/>
      <point x="1122" y="1446" type="line"/>
      <point x="844" y="1446" type="line" smooth="yes"/>
      <point x="656" y="1446"/>
      <point x="520" y="1342"/>
      <point x="488" y="1172" type="curve" smooth="yes"/>
      <point x="464" y="1034" type="line"/>
      <point x="296" y="1034" type="line"/>
      <point x="250" y="770" type="line"/>
      <point x="418" y="770" type="line"/>
      <point x="288" y="40" type="line" smooth="yes"/>
      <point x="272" y="-60"/>
      <point x="248" y="-82"/>
      <point x="180" y="-82" type="curve" smooth="yes"/>
      <point x="58" y="-82" type="line"/>
    </contour>
  </outline>
</glyph>
<glyph name="Oogonek" format="2">
  <advance width="1570"/>
  <unicode hex="01EA"/>
  <anchor x="968" y="20" name="_ogonek"/>
  <anchor x="789" y="0" name="bottom"/>
  <anchor x="1275" y="1094" name="horn"/>
  <anchor x="968" y="20" name="ogonek"/>
  <anchor x="785" y="1446" name="top"/>
  <outline>
    <contour>
      <point x="800" y="-340" type="curve" smooth="yes"/>
      <point x="900" y="-340"/>
      <point x="992" y="-312"/>
      <point x="1032" y="-286" type="curve"/>
      <point x="1032" y="-122" type="line"/>
      <point x="984" y="-150"/>
      <point x="944" y="-172"/>
      <point x="886" y="-172" type="curve" smooth="yes"/>
      <point x="850" y="-172"/>
      <point x="832" y="-154"/>
      <point x="832" y="-116" type="curve" smooth="yes"/>
      <point x="832" y="-72"/>
      <point x="866" y="-36"/>
      <point x="1012" y="12" type="curve"/>
      <point x="746" y="12" type="line"/>
      <point x="594" y="-42"/>
      <point x="564" y="-104"/>
      <point x="564" y="-170" type="curve" smooth="yes"/>
      <point x="564" y="-286"/>
      <point x="658" y="-340"/>
    </contour>
    <component base="O"/>
  </outline>
</glyph>
<glyph name="oogonek" format="2">
  <advance width="1170"/>
  <unicode hex="01EB"/>
  <anchor x="738" y="20" name="_ogonek"/>
  <anchor x="579" y="0" name="bottom"/>
  <anchor x="953" y="714" name="horn"/>
  <anchor x="738" y="20" name="ogonek"/>
  <anchor x="586" y="1034" name="top"/>
  <outline>
    <contour>
      <point x="570" y="-340" type="curve" smooth="yes"/>
      <point x="670" y="-340"/>
      <point x="762" y="-312"/>
      <point x="802" y="-286" type="curve"/>
      <point x="802" y="-122" type="line"/>
      <point x="754" y="-150"/>
      <point x="714" y="-172"/>
      <point x="656" y="-172" type="curve" smooth="yes"/>
      <point x="620" y="-172"/>
      <point x="602" y="-154"/>
      <point x="602" y="-116" type="curve" smooth="yes"/>
      <point x="602" y="-72"/>
      <point x="636" y="-36"/>
      <point x="782" y="12" type="curve"/>
      <point x="516" y="12" type="line"/>
      <point x="364" y="-42"/>
      <point x="334" y="-104"/>
      <point x="334" y="-170" type="curve" smooth="yes"/>
      <point x="334" y="-286"/>
      <point x="428" y="-340"/>
    </contour>
    <component base="o"/>
  </outline>
</glyph>
<glyph name="jdotless" format="2">
  <advance width="624"/>
  <unicode hex="0237"/>
  <anchor x="329" y="1034" name="top"/>
  <outline>
    <contour>
      <point x="114" y="-332" type="curve"/>
      <point x="391" y="-332"/>
      <point x="524" y="-200"/>
      <point x="524" y="56" type="curve" smooth="yes"/>
      <point x="524" y="1034" type="line"/>
      <point x="135" y="1034" type="line"/>
      <point x="135" y="56" type="line"/>
      <point x="135" y="14"/>
      <point x="112" y="-12"/>
      <point x="39" y="-28" type="curve"/>
      <point x="-20" y="-38" type="line"/>
      <point x="-18" y="-298" type="line"/>
      <point x="-18" y="-298"/>
      <point x="11" y="-332"/>
    </contour>
  </outline>
</glyph>
<glyph name="schwa" format="2">
  <advance width="1170"/>
  <unicode hex="0259"/>
  <anchor x="576" y="0" name="bottom"/>
  <anchor x="320" y="984" name="ogonek"/>
  <anchor x="570" y="1034" name="top"/>
  <outline>
    <contour>
      <point x="578" y="-20" type="curve" smooth="yes"/>
      <point x="910" y="-20"/>
      <point x="1104" y="234"/>
      <point x="1104" y="530" type="curve" smooth="yes"/>
      <point x="1104" y="844"/>
      <point x="885" y="1054"/>
      <point x="562" y="1054" type="curve" smooth="yes"/>
      <point x="333" y="1054"/>
      <point x="98" y="912"/>
      <point x="66" y="682" type="curve"/>
      <point x="410" y="682" type="line"/>
      <point x="442" y="762"/>
      <point x="501" y="782"/>
      <point x="572" y="782" type="curve" smooth="yes"/>
      <point x="656" y="782"/>
      <point x="724" y="730"/>
      <point x="722" y="606" type="curve"/>
      <point x="70" y="606" type="line"/>
      <point x="70" y="516" type="line"/>
      <point x="70" y="210"/>
      <point x="240" y="-20"/>
    </contour>
    <contour>
      <point x="578" y="242" type="curve" smooth="yes"/>
      <point x="480" y="242"/>
      <point x="429" y="310"/>
      <point x="429" y="388" type="curve"/>
      <point x="724" y="388" type="line"/>
      <point x="724" y="310"/>
      <point x="658" y="242"/>
    </contour>
  </outline>
</glyph>
<glyph name="commaturnedmod" format="2">
  <advance width="574"/>
  <unicode hex="02BB"/>
  <outline>
    <contour>
      <point x="100" y="834" type="line"/>
      <point x="454" y="834" type="line"/>
      <point x="454" y="1170" type="line"/>
      <point x="288" y="1188" type="line"/>
      <point x="288" y="1210" type="line"/>
      <point x="288" y="1288"/>
      <point x="364" y="1336"/>
      <point x="426" y="1346" type="curve"/>
      <point x="454" y="1350" type="line"/>
      <point x="454" y="1450" type="line"/>
      <point x="248" y="1490"/>
      <point x="100" y="1308"/>
      <point x="100" y="1132" type="curve"/>
    </contour>
  </outline>
</glyph>
<glyph name="apostrophemod" format="2">
  <advance width="574"/>
  <unicode hex="02BC"/>
  <outline>
    <contour>
      <point x="100" y="840" type="line"/>
      <point x="306" y="800"/>
      <point x="454" y="982"/>
      <point x="454" y="1158" type="curve"/>
      <point x="454" y="1456" type="line"/>
      <point x="100" y="1456" type="line"/>
      <point x="100" y="1120" type="line"/>
      <point x="266" y="1102" type="line"/>
      <point x="266" y="1080" type="line"/>
      <point x="266" y="1002"/>
      <point x="190" y="954"/>
      <point x="128" y="944" type="curve"/>
      <point x="100" y="940" type="line"/>
    </contour>
  </outline>
</glyph>
<glyph name="gravecomb" format="2">
  <unicode hex="0300"/>
  <anchor x="474" y="1034" name="_top"/>
  <outline>
    <contour>
      <point x="328" y="1155" type="line"/>
      <point x="600" y="1155" type="line"/>
      <point x="394" y="1446" type="line"/>
      <point x="11" y="1446" type="line"/>
    </contour>
  </outline>
</glyph>
<glyph name="acutecomb" format="2">
  <unicode hex="0301"/>
  <anchor x="145" y="1034" name="_top"/>
  <outline>
    <contour>
      <point x="10" y="1155" type="line"/>
      <point x="282" y="1155" type="line"/>
      <point x="599" y="1446" type="line"/>
      <point x="216" y="1446" type="line"/>
    </contour>
  </outline>
</glyph>
<glyph name="circumflexcomb" format="2">
  <unicode hex="0302"/>
  <anchor x="432" y="1034" name="_top"/>
  <outline>
    <contour>
      <point x="24" y="1155" type="line"/>
      <point x="288" y="1155" type="line"/>
      <point x="430" y="1304" type="line"/>
      <point x="554" y="1155" type="line"/>
      <point x="832" y="1155" type="line"/>
      <point x="564" y="1446" type="line"/>
      <point x="300" y="1446" type="line"/>
    </contour>
  </outline>
</glyph>
<glyph name="tildecomb" format="2">
  <unicode hex="0303"/>
  <anchor x="468" y="1034" name="_top"/>
  <outline>
    <contour>
      <point x="144" y="1165" type="line"/>
      <point x="206" y="1220"/>
      <point x="248" y="1237"/>
      <point x="316" y="1237" type="curve" smooth="yes"/>
      <point x="428" y="1237"/>
      <point x="516" y="1178"/>
      <point x="632" y="1178" type="curve" smooth="yes"/>
      <point x="726" y="1178"/>
      <point x="812" y="1217"/>
      <point x="860" y="1259" type="curve"/>
      <point x="820" y="1479" type="line"/>
      <point x="776" y="1444"/>
      <point x="708" y="1397"/>
      <point x="630" y="1397" type="curve" smooth="yes"/>
      <point x="538" y="1397"/>
      <point x="430" y="1464"/>
      <point x="306" y="1464" type="curve" smooth="yes"/>
      <point x="202" y="1464"/>
      <point x="142" y="1416"/>
      <point x="90" y="1357" type="curve"/>
    </contour>
  </outline>
</glyph>
<glyph name="macroncomb" format="2">
  <unicode hex="0304"/>
  <anchor x="442" y="1034" name="_top"/>
  <outline>
    <contour>
      <point x="42" y="1178" type="line"/>
      <point x="842" y="1178" type="line"/>
      <point x="842" y="1416" type="line"/>
      <point x="42" y="1416" type="line"/>
    </contour>
  </outline>
</glyph>
<glyph name="brevecomb" format="2">
  <unicode hex="0306"/>
  <anchor x="434" y="1034" name="_top"/>
  <outline>
    <contour>
      <point x="434" y="1156" type="curve" smooth="yes"/>
      <point x="619" y="1156"/>
      <point x="789" y="1251"/>
      <point x="828" y="1446" type="curve"/>
      <point x="599" y="1446" type="line"/>
      <point x="579" y="1378"/>
      <point x="521" y="1330"/>
      <point x="434" y="1330" type="curve" smooth="yes"/>
      <point x="346" y="1330"/>
      <point x="289" y="1378"/>
      <point x="270" y="1446" type="curve"/>
      <point x="40" y="1446" type="line"/>
      <point x="79" y="1251"/>
      <point x="248" y="1156"/>
    </contour>
  </outline>
</glyph>
<glyph name="dotaccentcomb" format="2">
  <unicode hex="0307"/>
  <anchor x="192" y="1034" name="_top"/>
  <outline>
    <contour>
      <point x="10" y="1155" type="line"/>
      <point x="372" y="1155" type="line"/>
      <point x="372" y="1446" type="line"/>
      <point x="10" y="1446" type="line"/>
    </contour>
  </outline>
</glyph>
<glyph name="dieresiscomb" format="2">
  <unicode hex="0308"/>
  <anchor x="459" y="1034" name="_top"/>
  <outline>
    <contour>
      <point x="546" y="1155" type="line"/>
      <point x="904" y="1155" type="line"/>
      <point x="908" y="1446" type="line"/>
      <point x="550" y="1446" type="line"/>
    </contour>
    <contour>
      <point x="10" y="1155" type="line"/>
      <point x="368" y="1155" type="line"/>
      <point x="372" y="1446" type="line"/>
      <point x="14" y="1446" type="line"/>
    </contour>
  </outline>
</glyph>
<glyph name="hookabovecomb" format="2">
  <unicode hex="0309"/>
  <anchor x="564" y="1034" name="_top"/>
  <anchor x="464" y="1198" name="_topviet"/>
  <outline>
    <contour>
      <point x="668" y="1155" type="line"/>
      <point x="818" y="1243"/>
      <point x="841" y="1368"/>
      <point x="762" y="1493" type="curve" smooth="yes"/>
      <point x="696" y="1597"/>
      <point x="550" y="1627"/>
      <point x="420" y="1543" type="curve"/>
      <point x="502" y="1417" type="line"/>
      <point x="544" y="1445"/>
      <point x="600" y="1439"/>
      <point x="622" y="1403" type="curve" smooth="yes"/>
      <point x="650" y="1357"/>
      <point x="634" y="1315"/>
      <point x="586" y="1285" type="curve"/>
    </contour>
  </outline>
</glyph>
<glyph name="ringcomb" format="2">
  <unicode hex="030A"/>
  <anchor x="270" y="1012" name="_top"/>
  <outline>
    <contour>
      <point x="270" y="1096" type="curve" smooth="yes"/>
      <point x="396" y="1096"/>
      <point x="498" y="1196"/>
      <point x="498" y="1324" type="curve" smooth="yes"/>
      <point x="498" y="1448"/>
      <point x="396" y="1548"/>
      <point x="270" y="1548" type="curve" smooth="yes"/>
      <point x="144" y="1548"/>
      <point x="42" y="1450"/>
      <point x="42" y="1328" type="curve" smooth="yes"/>
      <point x="42" y="1198"/>
      <point x="142" y="1096"/>
    </contour>
    <contour>
      <point x="268" y="1226" type="curve" smooth="yes"/>
      <point x="216" y="1226"/>
      <point x="172" y="1272"/>
      <point x="172" y="1322" type="curve" smooth="yes"/>
      <point x="172" y="1374"/>
      <point x="216" y="1414"/>
      <point x="268" y="1414" type="curve" smooth="yes"/>
      <point x="320" y="1414"/>
      <point x="360" y="1374"/>
      <point x="360" y="1322" type="curve" smooth="yes"/>
      <point x="360" y="1272"/>
      <point x="320" y="1226"/>
    </contour>
  </outline>
</glyph>
<glyph name="hungarumlautcomb" format="2">
  <unicode hex="030B"/>
  <anchor x="358" y="1034" name="_top"/>
  <outline>
    <contour>
      <point x="430" y="1155" type="line"/>
      <point x="702" y="1155" type="line"/>
      <point x="1032" y="1446" type="line"/>
      <point x="686" y="1446" type="line"/>
    </contour>
    <contour>
      <point x="10" y="1155" type="line"/>
      <point x="282" y="1155" type="line"/>
      <point x="549" y="1446" type="line"/>
      <point x="216" y="1446" type="line"/>
    </contour>
  </outline>
</glyph>
<glyph name="caroncomb" format="2">
  <unicode hex="030C"/>
  <anchor x="432" y="1034" name="_top"/>
  <outline>
    <contour>
      <point x="298" y="1155" type="line"/>
      <point x="564" y="1155" type="line"/>
      <point x="832" y="1448" type="line"/>
      <point x="554" y="1448" type="line"/>
      <point x="430" y="1284" type="line"/>
      <point x="288" y="1448" type="line"/>
      <point x="24" y="1448" type="line"/>
    </contour>
  </outline>
</glyph>
<glyph name="dblgravecomb" format="2">
  <unicode hex="030F"/>
  <anchor x="691" y="1034" name="_top"/>
  <outline>
    <contour>
      <point x="340" y="1155" type="line"/>
      <point x="612" y="1155" type="line"/>
      <point x="356" y="1446" type="line"/>
      <point x="10" y="1446" type="line"/>
    </contour>
    <contour>
      <point x="760" y="1155" type="line"/>
      <point x="1032" y="1155" type="line"/>
      <point x="826" y="1446" type="line"/>
      <point x="493" y="1446" type="line"/>
    </contour>
  </outline>
</glyph>
<glyph name="breveinvertedcomb" format="2">
  <unicode hex="0311"/>
  <anchor x="424" y="1034" name="_top"/>
  <outline>
    <contour>
      <point x="30" y="1155" type="curve"/>
      <point x="260" y="1155" type="line"/>
      <point x="279" y="1223"/>
      <point x="336" y="1271"/>
      <point x="424" y="1271" type="curve" smooth="yes"/>
      <point x="511" y="1271"/>
      <point x="569" y="1223"/>
      <point x="589" y="1155" type="curve"/>
      <point x="818" y="1155" type="line"/>
      <point x="779" y="1350"/>
      <point x="609" y="1445"/>
      <point x="424" y="1445" type="curve" smooth="yes"/>
      <point x="238" y="1445"/>
      <point x="69" y="1350"/>
    </contour>
  </outline>
</glyph>
<glyph name="commaturnedabovecomb" format="2">
  <unicode hex="0312"/>
  <anchor x="260" y="1034" name="_top"/>
  <outline>
    <contour>
      <point x="106" y="1155" type="line"/>
      <point x="410" y="1155" type="line"/>
      <point x="410" y="1373" type="line"/>
      <point x="314" y="1387" type="line"/>
      <point x="414" y="1559" type="line"/>
      <point x="286" y="1559" type="line"/>
      <point x="106" y="1335" type="line"/>
    </contour>
  </outline>
</glyph>
<glyph name="horncomb" format="2">
  <unicode hex="031B"/>
  <anchor x="0" y="880" name="_horn"/>
  <anchor x="212" y="1060" name="_topright"/>
  <anchor x="212" y="1060" name="topright"/>
  <outline>
    <contour>
      <point x="0" y="880" type="line"/>
      <point x="358" y="840"/>
      <point x="446" y="952"/>
      <point x="450" y="1278" type="curve"/>
      <point x="216" y="1278" type="line"/>
      <point x="196" y="1040"/>
      <point x="142" y="1056"/>
      <point x="0" y="1058" type="curve"/>
    </contour>
  </outline>
</glyph>
<glyph name="commaaccentcomb" format="2">
  <unicode hex="0326"/>
  <anchor x="169" y="0" name="_bottom"/>
  <outline>
    <contour>
      <point x="10" y="-495" type="line"/>
      <point x="138" y="-495" type="line"/>
      <point x="318" y="-271" type="line"/>
      <point x="318" y="-91" type="line"/>
      <point x="14" y="-91" type="line"/>
      <point x="14" y="-309" type="line"/>
      <point x="110" y="-323" type="line"/>
    </contour>
  </outline>
</glyph>
<glyph name="cedillacomb" format="2">
  <unicode hex="0327"/>
  <anchor x="292" y="0" name="_bottom"/>
  <outline>
    <contour>
      <point x="302" y="-438" type="curve" smooth="yes"/>
      <point x="440" y="-438"/>
      <point x="562" y="-372"/>
      <point x="562" y="-268" type="curve" smooth="yes"/>
      <point x="562" y="-194"/>
      <point x="502" y="-104"/>
      <point x="338" y="-104" type="curve"/>
      <point x="380" y="10" type="line"/>
      <point x="222" y="10" type="line"/>
      <point x="148" y="-162" type="line" smooth="yes"/>
      <point x="138" y="-184"/>
      <point x="148" y="-186"/>
      <point x="168" y="-186" type="curve" smooth="yes"/>
      <point x="302" y="-186"/>
      <point x="346" y="-214"/>
      <point x="346" y="-262" type="curve" smooth="yes"/>
      <point x="346" y="-294"/>
      <point x="308" y="-314"/>
      <point x="254" y="-314" type="curve" smooth="yes"/>
      <point x="196" y="-314"/>
      <point x="132" y="-288"/>
      <point x="84" y="-262" type="curve"/>
      <point x="36" y="-380" type="line"/>
      <point x="114" y="-426"/>
      <point x="208" y="-438"/>
    </contour>
  </outline>
</glyph>
<glyph name="ogonekcomb" format="2">
  <unicode hex="0328"/>
  <anchor x="446" y="20" name="_ogonek"/>
  <outline>
    <contour>
      <point x="278" y="-340" type="curve" smooth="yes"/>
      <point x="378" y="-340"/>
      <point x="470" y="-312"/>
      <point x="510" y="-286" type="curve"/>
      <point x="510" y="-122" type="line"/>
      <point x="462" y="-150"/>
      <point x="422" y="-172"/>
      <point x="364" y="-172" type="curve" smooth="yes"/>
      <point x="328" y="-172"/>
      <point x="310" y="-154"/>
      <point x="310" y="-116" type="curve" smooth="yes"/>
      <point x="310" y="-72"/>
      <point x="344" y="-36"/>
      <point x="490" y="12" type="curve"/>
      <point x="224" y="12" type="line"/>
      <point x="72" y="-42"/>
      <point x="42" y="-104"/>
      <point x="42" y="-170" type="curve" smooth="yes"/>
      <point x="42" y="-286"/>
      <point x="136" y="-340"/>
    </contour>
  </outline>
</glyph>
<glyph name="pi" format="2">
  <advance width="1378"/>
  <unicode hex="03C0"/>
  <outline>
    <contour>
      <point x="90" y="0" type="curve"/>
      <point x="456" y="0" type="line"/>
      <point x="520" y="192"/>
      <point x="574" y="572"/>
      <point x="574" y="770" type="curve"/>
      <point x="790" y="770" type="line"/>
      <point x="790" y="0" type="line"/>
      <point x="1162" y="0" type="line"/>
      <point x="1162" y="770" type="line"/>
      <point x="1318" y="770" type="line"/>
      <point x="1318" y="1034" type="line"/>
      <point x="40" y="1034" type="line"/>
      <point x="40" y="770" type="line"/>
      <point x="182" y="770" type="line" smooth="yes"/>
      <point x="194" y="770"/>
      <point x="200" y="762"/>
      <point x="200" y="750" type="curve" smooth="yes"/>
      <point x="200" y="566"/>
      <point x="148" y="224"/>
    </contour>
  </outline>
</glyph>
<glyph name="endash" format="2">
  <advance width="1252"/>
  <unicode hex="2013"/>
  <outline>
    <contour>
      <point x="117" y="356" type="line"/>
      <point x="1135" y="356" type="line"/>
      <point x="1135" y="630" type="line"/>
      <point x="117" y="630" type="line"/>
    </contour>
  </outline>
</glyph>
<glyph name="quoteleft" format="2">
  <advance width="568"/>
  <unicode hex="2018"/>
  <outline>
    <contour>
      <point x="50" y="860" type="line"/>
      <point x="404" y="860" type="line"/>
      <point x="404" y="1196" type="line"/>
      <point x="288" y="1210" type="line"/>
      <point x="408" y="1504" type="line"/>
      <point x="280" y="1504" type="line"/>
      <point x="50" y="1158" type="line"/>
    </contour>
  </outline>
</glyph>
<glyph name="quoteright" format="2">
  <advance width="578"/>
  <unicode hex="2019"/>
  <outline>
    <contour>
      <point x="100" y="802" type="line"/>
      <point x="228" y="802" type="line"/>
      <point x="458" y="1148" type="line"/>
      <point x="458" y="1446" type="line"/>
      <point x="104" y="1446" type="line"/>
      <point x="104" y="1110" type="line"/>
      <point x="220" y="1096" type="line"/>
    </contour>
  </outline>
</glyph>
<glyph name="quotesinglbase" format="2">
  <advance width="618"/>
  <unicode hex="201A"/>
  <outline>
    <contour>
      <point x="100" y="-302" type="line"/>
      <point x="228" y="-302" type="line"/>
      <point x="458" y="44" type="line"/>
      <point x="458" y="344" type="line"/>
      <point x="104" y="344" type="line"/>
      <point x="104" y="6" type="line"/>
      <point x="220" y="-8" type="line"/>
    </contour>
  </outline>
</glyph>
<glyph name="quotedblleft" format="2">
  <advance width="1068"/>
  <unicode hex="201C"/>
  <outline>
    <contour>
      <point x="50" y="802" type="line"/>
      <point x="404" y="802" type="line"/>
      <point x="404" y="1138" type="line"/>
      <point x="288" y="1152" type="line"/>
      <point x="408" y="1446" type="line"/>
      <point x="280" y="1446" type="line"/>
      <point x="50" y="1100" type="line"/>
    </contour>
    <contour>
      <point x="550" y="802" type="line"/>
      <point x="904" y="802" type="line"/>
      <point x="904" y="1138" type="line"/>
      <point x="788" y="1152" type="line"/>
      <point x="908" y="1446" type="line"/>
      <point x="780" y="1446" type="line"/>
      <point x="550" y="1100" type="line"/>
    </contour>
  </outline>
</glyph>
<glyph name="quotedblright" format="2">
  <advance width="1078"/>
  <unicode hex="201D"/>
  <outline>
    <contour>
      <point x="598" y="802" type="line"/>
      <point x="728" y="802" type="line"/>
      <point x="958" y="1148" type="line"/>
      <point x="958" y="1446" type="line"/>
      <point x="602" y="1446" type="line"/>
      <point x="602" y="1110" type="line"/>
      <point x="720" y="1096" type="line"/>
    </contour>
    <contour>
      <point x="100" y="802" type="line"/>
      <point x="228" y="802" type="line"/>
      <point x="458" y="1148" type="line"/>
      <point x="458" y="1446" type="line"/>
      <point x="104" y="1446" type="line"/>
      <point x="104" y="1110" type="line"/>
      <point x="220" y="1096" type="line"/>
    </contour>
  </outline>
</glyph>
<glyph name="dagger" format="2">
  <advance width="1156"/>
  <unicode hex="2020"/>
  <outline>
    <contour>
      <point x="388" y="-322" type="line"/>
      <point x="748" y="-322" type="line"/>
      <point x="676" y="750" type="line"/>
      <point x="1046" y="694" type="line"/>
      <point x="1046" y="1022" type="line"/>
      <point x="688" y="972" type="line"/>
      <point x="750" y="1446" type="line"/>
      <point x="384" y="1446" type="line"/>
      <point x="446" y="972" type="line"/>
      <point x="90" y="1022" type="line"/>
      <point x="90" y="694" type="line"/>
      <point x="458" y="750" type="line"/>
    </contour>
  </outline>
</glyph>
<glyph name="daggerdbl" format="2">
  <advance width="1156"/>
  <unicode hex="2021"/>
  <outline>
    <contour>
      <point x="384" y="-322" type="line"/>
      <point x="750" y="-322" type="line"/>
      <point x="686" y="114" type="line"/>
      <point x="1046" y="62" type="line"/>
      <point x="1046" y="390" type="line"/>
      <point x="680" y="336" type="line"/>
      <point x="680" y="708" type="line"/>
      <point x="1046" y="654" type="line"/>
      <point x="1046" y="980" type="line"/>
      <point x="688" y="930" type="line"/>
      <point x="748" y="1446" type="line"/>
      <point x="384" y="1446" type="line"/>
      <point x="446" y="930" type="line"/>
      <point x="90" y="980" type="line"/>
      <point x="90" y="654" type="line"/>
      <point x="454" y="708" type="line"/>
      <point x="454" y="336" type="line"/>
      <point x="90" y="390" type="line"/>
      <point x="90" y="62" type="line"/>
      <point x="448" y="114" type="line"/>
    </contour>
  </outline>
</glyph>
<glyph name="bullet" format="2">
  <advance width="772"/>
  <unicode hex="2022"/>
  <outline>
    <contour>
      <point x="370" y="434" type="curve" smooth="yes"/>
      <point x="536" y="434"/>
      <point x="672" y="570"/>
      <point x="672" y="736" type="curve" smooth="yes"/>
      <point x="672" y="900"/>
      <point x="536" y="1036"/>
      <point x="370" y="1036" type="curve" smooth="yes"/>
      <point x="204" y="1036"/>
      <point x="70" y="900"/>
      <point x="70" y="736" type="curve" smooth="yes"/>
      <point x="70" y="570"/>
      <point x="204" y="434"/>
    </contour>
  </outline>
</glyph>
<glyph name="perthousand" format="2">
  <advance width="2792"/>
  <unicode hex="2030"/>
  <outline>
    <contour>
      <point x="403" y="-8" type="line"/>
      <point x="621" y="-8" type="line"/>
      <point x="1593" y="1462" type="line"/>
      <point x="1380" y="1462" type="line"/>
    </contour>
    <contour>
      <point x="468" y="652" type="curve" smooth="yes"/>
      <point x="686" y="652"/>
      <point x="852" y="844"/>
      <point x="852" y="1054" type="curve" smooth="yes"/>
      <point x="852" y="1268"/>
      <point x="682" y="1468"/>
      <point x="468" y="1468" type="curve" smooth="yes"/>
      <point x="252" y="1468"/>
      <point x="80" y="1268"/>
      <point x="80" y="1054" type="curve" smooth="yes"/>
      <point x="80" y="844"/>
      <point x="248" y="652"/>
    </contour>
    <contour>
      <point x="466" y="842" type="curve" smooth="yes"/>
      <point x="386" y="842"/>
      <point x="362" y="914"/>
      <point x="362" y="1054" type="curve" smooth="yes"/>
      <point x="362" y="1200"/>
      <point x="388" y="1280"/>
      <point x="466" y="1280" type="curve" smooth="yes"/>
      <point x="544" y="1280"/>
      <point x="570" y="1202"/>
      <point x="570" y="1054" type="curve" smooth="yes"/>
      <point x="570" y="914"/>
      <point x="548" y="842"/>
    </contour>
    <contour>
      <point x="1456" y="-20" type="curve" smooth="yes"/>
      <point x="1676" y="-20"/>
      <point x="1842" y="174"/>
      <point x="1842" y="384" type="curve" smooth="yes"/>
      <point x="1842" y="596"/>
      <point x="1672" y="798"/>
      <point x="1456" y="798" type="curve" smooth="yes"/>
      <point x="1240" y="798"/>
      <point x="1068" y="596"/>
      <point x="1068" y="384" type="curve" smooth="yes"/>
      <point x="1068" y="174"/>
      <point x="1236" y="-20"/>
    </contour>
    <contour>
      <point x="1454" y="172" type="curve" smooth="yes"/>
      <point x="1374" y="172"/>
      <point x="1352" y="244"/>
      <point x="1352" y="382" type="curve" smooth="yes"/>
      <point x="1352" y="528"/>
      <point x="1376" y="608"/>
      <point x="1454" y="608" type="curve" smooth="yes"/>
      <point x="1532" y="608"/>
      <point x="1558" y="530"/>
      <point x="1558" y="382" type="curve" smooth="yes"/>
      <point x="1558" y="244"/>
      <point x="1536" y="172"/>
    </contour>
    <contour>
      <point x="2308" y="-20" type="curve" smooth="yes"/>
      <point x="2526" y="-20"/>
      <point x="2692" y="174"/>
      <point x="2692" y="384" type="curve" smooth="yes"/>
      <point x="2692" y="596"/>
      <point x="2522" y="798"/>
      <point x="2308" y="798" type="curve" smooth="yes"/>
      <point x="2090" y="798"/>
      <point x="1920" y="596"/>
      <point x="1920" y="384" type="curve" smooth="yes"/>
      <point x="1920" y="174"/>
      <point x="2086" y="-20"/>
    </contour>
    <contour>
      <point x="2306" y="172" type="curve" smooth="yes"/>
      <point x="2226" y="172"/>
      <point x="2202" y="244"/>
      <point x="2202" y="382" type="curve" smooth="yes"/>
      <point x="2202" y="528"/>
      <point x="2228" y="608"/>
      <point x="2306" y="608" type="curve" smooth="yes"/>
      <point x="2384" y="608"/>
      <point x="2408" y="530"/>
      <point x="2408" y="382" type="curve" smooth="yes"/>
      <point x="2408" y="244"/>
      <point x="2388" y="172"/>
    </contour>
  </outline>
</glyph>
<glyph name="guilsinglright" format="2">
  <advance width="674"/>
  <unicode hex="203A"/>
  <outline>
    <contour>
      <point x="268" y="502" type="line"/>
      <point x="140" y="118" type="line"/>
      <point x="340" y="118" type="line"/>
      <point x="554" y="502" type="line"/>
      <point x="342" y="902" type="line"/>
      <point x="140" y="902" type="line"/>
    </contour>
  </outline>
</glyph>
<glyph name="fraction" format="2">
  <advance width="483"/>
  <unicode hex="2044"/>
  <outline>
    <contour>
      <point x="835" y="1462" type="line"/>
      <point x="622" y="1462" type="line"/>
      <point x="-352" y="-4" type="line"/>
      <point x="-137" y="-8" type="line"/>
    </contour>
  </outline>
</glyph>
<glyph name="colonsign" format="2">
  <advance width="1490"/>
  <unicode hex="20A1"/>
  <anchor x="777" y="0" name="bottom"/>
  <anchor x="777" y="1446" name="top"/>
  <outline>
    <contour>
      <point x="744" y="1560" type="line"/>
      <point x="424" y="-122" type="line"/>
      <point x="578" y="-122" type="line"/>
      <point x="898" y="1560" type="line"/>
    </contour>
    <contour>
      <point x="988" y="1560" type="line"/>
      <point x="668" y="-122" type="line"/>
      <point x="822" y="-122" type="line"/>
      <point x="1142" y="1560" type="line"/>
    </contour>
    <component base="C"/>
  </outline>
</glyph>
<glyph name="franc" format="2">
  <advance width="1278"/>
  <unicode hex="20A3"/>
  <outline>
    <contour>
      <point x="108" y="0" type="line"/>
      <point x="550" y="0" type="line"/>
      <point x="550" y="558" type="line"/>
      <point x="980" y="558" type="line"/>
      <point x="980" y="868" type="line"/>
      <point x="550" y="868" type="line"/>
      <point x="550" y="1128" type="line"/>
      <point x="1216" y="1128" type="line"/>
      <point x="1218" y="1446" type="line"/>
      <point x="108" y="1446" type="line"/>
    </contour>
    <contour>
      <point x="-60" y="212" type="line"/>
      <point x="822" y="212" type="line"/>
      <point x="822" y="410" type="line"/>
      <point x="-60" y="410" type="line"/>
    </contour>
  </outline>
</glyph>
<glyph name="lira" format="2">
  <advance width="1360"/>
  <unicode hex="20A4"/>
  <outline>
    <contour>
      <point x="50" y="0" type="line"/>
      <point x="798" y="0" type="line" smooth="yes"/>
      <point x="1046" y="0"/>
      <point x="1230" y="146"/>
      <point x="1290" y="412" type="curve"/>
      <point x="964" y="476" type="line"/>
      <point x="930" y="364"/>
      <point x="876" y="320"/>
      <point x="766" y="320" type="curve"/>
      <point x="560" y="320" type="line"/>
      <point x="622" y="360"/>
      <point x="666" y="414"/>
      <point x="690" y="478" type="curve"/>
      <point x="912" y="478" type="line"/>
      <point x="912" y="674" type="line"/>
      <point x="702" y="674" type="line"/>
      <point x="694" y="770" type="line"/>
      <point x="912" y="770" type="line"/>
      <point x="912" y="968" type="line"/>
      <point x="684" y="968" type="line" smooth="yes"/>
      <point x="670" y="968"/>
      <point x="662" y="976"/>
      <point x="660" y="992" type="curve" smooth="yes"/>
      <point x="658" y="1012"/>
      <point x="656" y="1030"/>
      <point x="656" y="1046" type="curve" smooth="yes"/>
      <point x="656" y="1122"/>
      <point x="692" y="1166"/>
      <point x="752" y="1166" type="curve" smooth="yes"/>
      <point x="820" y="1166"/>
      <point x="850" y="1104"/>
      <point x="874" y="1038" type="curve"/>
      <point x="1212" y="1134" type="line"/>
      <point x="1114" y="1372"/>
      <point x="884" y="1466"/>
      <point x="690" y="1466" type="curve" smooth="yes"/>
      <point x="426" y="1466"/>
      <point x="182" y="1332"/>
      <point x="202" y="1064" type="curve"/>
      <point x="208" y="968" type="line"/>
      <point x="52" y="968" type="line"/>
      <point x="52" y="770" type="line"/>
      <point x="236" y="770" type="line"/>
      <point x="248" y="674" type="line"/>
      <point x="52" y="674" type="line"/>
      <point x="52" y="478" type="line"/>
      <point x="256" y="478" type="line" smooth="yes"/>
      <point x="268" y="478"/>
      <point x="274" y="474"/>
      <point x="274" y="462" type="curve" smooth="yes"/>
      <point x="274" y="440"/>
      <point x="272" y="422"/>
      <point x="266" y="406" type="curve" smooth="yes"/>
      <point x="246" y="344"/>
      <point x="190" y="318"/>
      <point x="112" y="318" type="curve" smooth="yes"/>
      <point x="50" y="318" type="line"/>
    </contour>
  </outline>
</glyph>
<glyph name="naira" format="2">
  <advance width="1790"/>
  <unicode hex="20A6"/>
  <anchor x="901" y="0" name="bottom"/>
  <anchor x="901" y="1446" name="top"/>
  <outline>
    <contour>
      <point x="229" y="0" type="line"/>
      <point x="618" y="0" type="line"/>
      <point x="618" y="862" type="line"/>
      <point x="1223" y="0" type="line"/>
      <point x="1574" y="0" type="line"/>
      <point x="1574" y="1446" type="line"/>
      <point x="1185" y="1446" type="line"/>
      <point x="1185" y="640" type="line"/>
      <point x="621" y="1446" type="line"/>
      <point x="229" y="1446" type="line"/>
    </contour>
    <contour>
      <point x="20" y="420" type="line"/>
      <point x="1770" y="420" type="line"/>
      <point x="1770" y="596" type="line"/>
      <point x="20" y="596" type="line"/>
    </contour>
    <contour>
      <point x="20" y="888" type="line"/>
      <point x="1770" y="888" type="line"/>
      <point x="1770" y="1064" type="line"/>
      <point x="20" y="1064" type="line"/>
    </contour>
  </outline>
</glyph>
<glyph name="won" format="2">
  <advance width="2400"/>
  <unicode hex="20A9"/>
  <anchor x="1180" y="1446" name="top"/>
  <outline>
    <contour>
      <point x="664" y="0" type="line"/>
      <point x="950" y="0" type="line"/>
      <point x="1180" y="786" type="line"/>
      <point x="1410" y="0" type="line"/>
      <point x="1700" y="0" type="line"/>
      <point x="2132" y="1446" type="line"/>
      <point x="1756" y="1446" type="line"/>
      <point x="1540" y="670" type="line"/>
      <point x="1316" y="1446" type="line"/>
      <point x="1044" y="1446" type="line"/>
      <point x="828" y="670" type="line"/>
      <point x="604" y="1446" type="line"/>
      <point x="228" y="1446" type="line"/>
    </contour>
    <contour>
      <point x="20" y="810" type="line"/>
      <point x="2360" y="810" type="line"/>
      <point x="2360" y="1006" type="line"/>
      <point x="20" y="1006" type="line"/>
    </contour>
    <contour>
      <point x="20" y="1122" type="line"/>
      <point x="2360" y="1122" type="line"/>
      <point x="2360" y="1318" type="line"/>
      <point x="20" y="1318" type="line"/>
    </contour>
  </outline>
</glyph>
<glyph name="dong" format="2">
  <advance width="1122"/>
  <unicode hex="20AB"/>
  <outline>
    <contour>
      <point x="394" y="250" type="curve" smooth="yes"/>
      <point x="506" y="250"/>
      <point x="574" y="288"/>
      <point x="644" y="362" type="curve"/>
      <point x="644" y="266" type="line"/>
      <point x="962" y="266" type="line"/>
      <point x="962" y="1446" type="line"/>
      <point x="640" y="1446" type="line"/>
      <point x="640" y="1064" type="line" smooth="yes"/>
      <point x="640" y="1040"/>
      <point x="626" y="1040"/>
      <point x="608" y="1052" type="curve" smooth="yes"/>
      <point x="544" y="1116"/>
      <point x="482" y="1134"/>
      <point x="410" y="1134" type="curve" smooth="yes"/>
      <point x="232" y="1134"/>
      <point x="70" y="960"/>
      <point x="70" y="688" type="curve" smooth="yes"/>
      <point x="70" y="398"/>
      <point x="204" y="250"/>
    </contour>
    <contour>
      <point x="132" y="0" type="line"/>
      <point x="962" y="0" type="line"/>
      <point x="962" y="174" type="line"/>
      <point x="132" y="174" type="line"/>
    </contour>
    <contour>
      <point x="526" y="442" type="curve" smooth="yes"/>
      <point x="442" y="442"/>
      <point x="396" y="506"/>
      <point x="396" y="690" type="curve" smooth="yes"/>
      <point x="396" y="878"/>
      <point x="450" y="936"/>
      <point x="526" y="936" type="curve" smooth="yes"/>
      <point x="576" y="936"/>
      <point x="604" y="914"/>
      <point x="638" y="874" type="curve"/>
      <point x="638" y="550" type="line" smooth="yes"/>
      <point x="638" y="486"/>
      <point x="590" y="442"/>
    </contour>
    <contour>
      <point x="450" y="1192" type="line"/>
      <point x="1082" y="1192" type="line"/>
      <point x="1082" y="1348" type="line"/>
      <point x="450" y="1348" type="line"/>
    </contour>
  </outline>
</glyph>
<glyph name="euro" format="2">
  <advance width="1398"/>
  <unicode hex="20AC"/>
  <outline>
    <contour>
      <point x="804" y="-20" type="curve" smooth="yes"/>
      <point x="1018" y="-20"/>
      <point x="1204" y="94"/>
      <point x="1312" y="238" type="curve"/>
      <point x="1106" y="452" type="line"/>
      <point x="1060" y="380"/>
      <point x="956" y="300"/>
      <point x="856" y="300" type="curve" smooth="yes"/>
      <point x="734" y="300"/>
      <point x="618" y="414"/>
      <point x="618" y="736" type="curve" smooth="yes"/>
      <point x="618" y="1054"/>
      <point x="712" y="1166"/>
      <point x="844" y="1166" type="curve" smooth="yes"/>
      <point x="942" y="1166"/>
      <point x="998" y="1098"/>
      <point x="1052" y="1032" type="curve"/>
      <point x="1318" y="1220" type="line"/>
      <point x="1210" y="1370"/>
      <point x="1026" y="1466"/>
      <point x="808" y="1466" type="curve" smooth="yes"/>
      <point x="438" y="1466"/>
      <point x="170" y="1182"/>
      <point x="170" y="742" type="curve" smooth="yes"/>
      <point x="170" y="302"/>
      <point x="438" y="-20"/>
    </contour>
    <contour>
      <point x="20" y="458" type="line"/>
      <point x="920" y="458" type="line"/>
      <point x="920" y="656" type="line"/>
      <point x="20" y="656" type="line"/>
    </contour>
    <contour>
      <point x="20" y="790" type="line"/>
      <point x="920" y="790" type="line"/>
      <point x="920" y="986" type="line"/>
      <point x="20" y="986" type="line"/>
    </contour>
  </outline>
</glyph>
<glyph name="rupeeIndian" format="2">
  <advance width="1392"/>
  <unicode hex="20B9"/>
  <outline>
    <contour>
      <point x="698" y="0" type="line"/>
      <point x="1178" y="0" type="line"/>
      <point x="906" y="632" type="line" smooth="yes"/>
      <point x="900" y="648"/>
      <point x="900" y="664"/>
      <point x="912" y="668" type="curve" smooth="yes"/>
      <point x="1062" y="728"/>
      <point x="1168" y="866"/>
      <point x="1168" y="1044" type="curve" smooth="yes"/>
      <point x="1168" y="1296"/>
      <point x="948" y="1446"/>
      <point x="574" y="1446" type="curve" smooth="yes"/>
      <point x="60" y="1446" type="line"/>
      <point x="60" y="1256" type="line"/>
      <point x="506" y="1256" type="line" smooth="yes"/>
      <point x="634" y="1256"/>
      <point x="710" y="1198"/>
      <point x="710" y="1058" type="curve" smooth="yes"/>
      <point x="710" y="932"/>
      <point x="656" y="870"/>
      <point x="516" y="870" type="curve" smooth="yes"/>
      <point x="60" y="870" type="line"/>
      <point x="60" y="598" type="line"/>
      <point x="490" y="598" type="line"/>
    </contour>
    <contour>
      <point x="60" y="976" type="line"/>
      <point x="1332" y="976" type="line"/>
      <point x="1332" y="1152" type="line"/>
      <point x="60" y="1152" type="line"/>
    </contour>
    <contour>
      <point x="60" y="1270" type="line"/>
      <point x="1332" y="1270" type="line"/>
      <point x="1332" y="1446" type="line"/>
      <point x="60" y="1446" type="line"/>
    </contour>
  </outline>
</glyph>
<glyph name="liraTurkish" format="2">
  <advance width="1472"/>
  <unicode hex="20BA"/>
  <outline>
    <contour>
      <point x="300" y="0" type="line"/>
      <point x="616" y="0" type="line" smooth="yes"/>
      <point x="1122" y="0"/>
      <point x="1328" y="266"/>
      <point x="1432" y="542" type="curve"/>
      <point x="1094" y="612" type="line"/>
      <point x="1028" y="434"/>
      <point x="914" y="326"/>
      <point x="790" y="320" type="curve" smooth="yes"/>
      <point x="744" y="320" type="line"/>
      <point x="744" y="1446" type="line"/>
      <point x="300" y="1446" type="line"/>
    </contour>
    <contour>
      <point x="138" y="368" type="line"/>
      <point x="1064" y="706" type="line"/>
      <point x="998" y="892" type="line"/>
      <point x="70" y="554" type="line"/>
    </contour>
    <contour>
      <point x="98" y="678" type="line"/>
      <point x="1028" y="1018" type="line"/>
      <point x="960" y="1202" type="line"/>
      <point x="30" y="864" type="line"/>
    </contour>
  </outline>
</glyph>
<glyph name="literSign" format="2">
  <advance width="1257"/>
  <unicode hex="2113"/>
  <outline>
    <contour>
      <point x="670" y="-20" type="curve" smooth="yes"/>
      <point x="1012" y="-20"/>
      <point x="1147" y="207"/>
      <point x="1182" y="302" type="curve"/>
      <point x="1062" y="430" type="line"/>
      <point x="959" y="319"/>
      <point x="864" y="262"/>
      <point x="766" y="262" type="curve" smooth="yes"/>
      <point x="632" y="262"/>
      <point x="606" y="317"/>
      <point x="606" y="458" type="curve"/>
      <point x="852" y="650"/>
      <point x="1066" y="816"/>
      <point x="1066" y="1110" type="curve" smooth="yes"/>
      <point x="1066" y="1302"/>
      <point x="976" y="1466"/>
      <point x="692" y="1466" type="curve" smooth="yes"/>
      <point x="402" y="1466"/>
      <point x="208" y="1292"/>
      <point x="208" y="940" type="curve" smooth="yes"/>
      <point x="208" y="550" type="line"/>
      <point x="40" y="422" type="line"/>
      <point x="120" y="218" type="line"/>
      <point x="212" y="280" type="line"/>
      <point x="269" y="78"/>
      <point x="409" y="-20"/>
    </contour>
    <contour>
      <point x="606" y="754" type="curve"/>
      <point x="606" y="974" type="line" smooth="yes"/>
      <point x="606" y="1192"/>
      <point x="658" y="1248"/>
      <point x="726" y="1248" type="curve" smooth="yes"/>
      <point x="792" y="1248"/>
      <point x="818" y="1198"/>
      <point x="818" y="1126" type="curve" smooth="yes"/>
      <point x="818" y="1000"/>
      <point x="742" y="886"/>
    </contour>
  </outline>
</glyph>
<glyph name="published" format="2">
  <advance width="1686"/>
  <unicode hex="2117"/>
  <outline>
    <contour>
      <point x="832" y="-20" type="curve" smooth="yes"/>
      <point x="1242" y="-20"/>
      <point x="1576" y="310"/>
      <point x="1576" y="724" type="curve" smooth="yes"/>
      <point x="1576" y="1132"/>
      <point x="1242" y="1466"/>
      <point x="832" y="1466" type="curve" smooth="yes"/>
      <point x="422" y="1466"/>
      <point x="90" y="1132"/>
      <point x="90" y="724" type="curve" smooth="yes"/>
      <point x="90" y="310"/>
      <point x="422" y="-20"/>
    </contour>
    <contour>
      <point x="832" y="178" type="curve" smooth="yes"/>
      <point x="510" y="178"/>
      <point x="308" y="390"/>
      <point x="308" y="724" type="curve" smooth="yes"/>
      <point x="308" y="1054"/>
      <point x="510" y="1272"/>
      <point x="832" y="1272" type="curve" smooth="yes"/>
      <point x="1150" y="1272"/>
      <point x="1358" y="1054"/>
      <point x="1358" y="724" type="curve" smooth="yes"/>
      <point x="1358" y="390"/>
      <point x="1150" y="178"/>
    </contour>
    <contour>
      <point x="532" y="340" type="line"/>
      <point x="768" y="340" type="line"/>
      <point x="768" y="586" type="line"/>
      <point x="934" y="586" type="line" smooth="yes"/>
      <point x="1104" y="586"/>
      <point x="1220" y="676"/>
      <point x="1220" y="842" type="curve" smooth="yes"/>
      <point x="1220" y="1026"/>
      <point x="1078" y="1108"/>
      <point x="908" y="1108" type="curve" smooth="yes"/>
      <point x="532" y="1108" type="line"/>
    </contour>
    <contour>
      <point x="768" y="750" type="line"/>
      <point x="768" y="940" type="line"/>
      <point x="894" y="940" type="line" smooth="yes"/>
      <point x="940" y="940"/>
      <point x="980" y="912"/>
      <point x="980" y="846" type="curve" smooth="yes"/>
      <point x="980" y="786"/>
      <point x="950" y="750"/>
      <point x="900" y="750" type="curve" smooth="yes"/>
    </contour>
  </outline>
</glyph>
<glyph name="Ohm" format="2">
  <advance width="1538"/>
  <unicode hex="2126"/>
  <outline>
    <contour>
      <point x="82" y="0" type="line"/>
      <point x="724" y="0" type="line"/>
      <point x="724" y="280" type="line"/>
      <point x="610" y="360"/>
      <point x="510" y="538"/>
      <point x="510" y="780" type="curve" smooth="yes"/>
      <point x="510" y="1096"/>
      <point x="646" y="1196"/>
      <point x="776" y="1196" type="curve" smooth="yes"/>
      <point x="912" y="1196"/>
      <point x="1028" y="1084"/>
      <point x="1028" y="790" type="curve" smooth="yes"/>
      <point x="1028" y="518"/>
      <point x="922" y="358"/>
      <point x="816" y="280" type="curve"/>
      <point x="816" y="0" type="line"/>
      <point x="1456" y="0" type="line"/>
      <point x="1456" y="328" type="line"/>
      <point x="1204" y="328" type="line"/>
      <point x="1378" y="478"/>
      <point x="1468" y="634"/>
      <point x="1468" y="838" type="curve" smooth="yes"/>
      <point x="1468" y="1134"/>
      <point x="1242" y="1504"/>
      <point x="776" y="1504" type="curve" smooth="yes"/>
      <point x="328" y="1504"/>
      <point x="70" y="1164"/>
      <point x="70" y="836" type="curve" smooth="yes"/>
      <point x="70" y="608"/>
      <point x="196" y="434"/>
      <point x="324" y="328" type="curve"/>
      <point x="82" y="328" type="line"/>
    </contour>
  </outline>
</glyph>
<glyph name="partialdiff" format="2">
  <advance width="1238"/>
  <unicode hex="2202"/>
  <outline>
    <contour>
      <point x="582" y="-20" type="curve" smooth="yes"/>
      <point x="974" y="-20"/>
      <point x="1158" y="276"/>
      <point x="1158" y="708" type="curve" smooth="yes"/>
      <point x="1158" y="1226"/>
      <point x="890" y="1466"/>
      <point x="526" y="1466" type="curve" smooth="yes"/>
      <point x="306" y="1466"/>
      <point x="154" y="1374"/>
      <point x="100" y="1330" type="curve"/>
      <point x="202" y="1106" type="line"/>
      <point x="258" y="1142"/>
      <point x="336" y="1190"/>
      <point x="464" y="1190" type="curve" smooth="yes"/>
      <point x="728" y="1190"/>
      <point x="816" y="980"/>
      <point x="816" y="878" type="curve" smooth="yes"/>
      <point x="816" y="856"/>
      <point x="812" y="836"/>
      <point x="780" y="862" type="curve" smooth="yes"/>
      <point x="726" y="906"/>
      <point x="664" y="952"/>
      <point x="532" y="952" type="curve" smooth="yes"/>
      <point x="244" y="952"/>
      <point x="70" y="734"/>
      <point x="70" y="464" type="curve" smooth="yes"/>
      <point x="70" y="190"/>
      <point x="252" y="-20"/>
    </contour>
    <contour>
      <point x="576" y="246" type="line" smooth="yes"/>
      <point x="494" y="246"/>
      <point x="432" y="310"/>
      <point x="432" y="448" type="curve" smooth="yes"/>
      <point x="432" y="592"/>
      <point x="502" y="704"/>
      <point x="608" y="704" type="curve" smooth="yes"/>
      <point x="684" y="704"/>
      <point x="740" y="650"/>
      <point x="768" y="598" type="curve" smooth="yes"/>
      <point x="782" y="576"/>
      <point x="784" y="566"/>
      <point x="780" y="528" type="curve" smooth="yes"/>
      <point x="762" y="362"/>
      <point x="696" y="246"/>
      <point x="578" y="246" type="curve" smooth="yes"/>
    </contour>
  </outline>
</glyph>
<glyph name="emptyset" format="2">
  <advance width="1228"/>
  <unicode hex="2205"/>
  <outline>
    <contour>
      <point x="178" y="210" type="line"/>
      <point x="1138" y="1104" type="line"/>
      <point x="1024" y="1226" type="line"/>
      <point x="60" y="334" type="line"/>
    </contour>
    <contour>
      <point x="606" y="246" type="curve" smooth="yes"/>
      <point x="872" y="246"/>
      <point x="1088" y="462"/>
      <point x="1088" y="728" type="curve" smooth="yes"/>
      <point x="1088" y="992"/>
      <point x="872" y="1208"/>
      <point x="606" y="1208" type="curve" smooth="yes"/>
      <point x="342" y="1208"/>
      <point x="126" y="992"/>
      <point x="126" y="728" type="curve" smooth="yes"/>
      <point x="126" y="462"/>
      <point x="342" y="246"/>
    </contour>
    <contour>
      <point x="606" y="410" type="curve" smooth="yes"/>
      <point x="432" y="410"/>
      <point x="290" y="552"/>
      <point x="290" y="728" type="curve" smooth="yes"/>
      <point x="290" y="900"/>
      <point x="432" y="1044"/>
      <point x="606" y="1044" type="curve" smooth="yes"/>
      <point x="782" y="1044"/>
      <point x="924" y="900"/>
      <point x="924" y="728" type="curve" smooth="yes"/>
      <point x="924" y="552"/>
      <point x="782" y="410"/>
    </contour>
  </outline>
</glyph>
<glyph name="increment" format="2">
  <advance width="1664"/>
  <unicode hex="2206"/>
  <outline>
    <contour>
      <point x="30" y="0" type="line"/>
      <point x="1634" y="0" type="line"/>
      <point x="852" y="1446" type="line"/>
    </contour>
    <contour>
      <point x="592" y="318" type="line"/>
      <point x="852" y="772" type="line"/>
      <point x="1090" y="318" type="line"/>
    </contour>
  </outline>
</glyph>
<glyph name="product" format="2">
  <advance width="1472"/>
  <unicode hex="220F"/>
  <outline>
    <contour>
      <point x="202" y="0" type="line"/>
      <point x="600" y="0" type="line"/>
      <point x="600" y="1132" type="line"/>
      <point x="850" y="1132" type="line"/>
      <point x="850" y="0" type="line"/>
      <point x="1248" y="0" type="line"/>
      <point x="1248" y="1132" type="line"/>
      <point x="1412" y="1132" type="line"/>
      <point x="1412" y="1446" type="line"/>
      <point x="40" y="1446" type="line"/>
      <point x="40" y="1132" type="line"/>
      <point x="202" y="1132" type="line"/>
    </contour>
  </outline>
</glyph>
<glyph name="summation" format="2">
  <advance width="1224"/>
  <unicode hex="2211"/>
  <outline>
    <contour>
      <point x="60" y="0" type="line"/>
      <point x="1144" y="0" type="line"/>
      <point x="1144" y="324" type="line"/>
      <point x="566" y="324" type="line"/>
      <point x="946" y="760" type="line"/>
      <point x="608" y="1140" type="line"/>
      <point x="1108" y="1140" type="line"/>
      <point x="1108" y="1446" type="line"/>
      <point x="80" y="1446" type="line"/>
      <point x="80" y="1190" type="line"/>
      <point x="464" y="714" type="line"/>
      <point x="60" y="228" type="line"/>
    </contour>
  </outline>
</glyph>
<glyph name="minus" format="2">
  <advance width="1238"/>
  <unicode hex="2212"/>
  <outline>
    <contour>
      <point x="110" y="590" type="line"/>
      <point x="1128" y="590" type="line"/>
      <point x="1128" y="866" type="line"/>
      <point x="110" y="866" type="line"/>
    </contour>
  </outline>
</glyph>
<glyph name="divisionslash" format="2">
  <advance width="1247"/>
  <unicode hex="2215"/>
  <outline>
    <contour>
      <point x="295" y="-8" type="line"/>
      <point x="1167" y="1462" type="line"/>
      <point x="954" y="1462" type="line"/>
      <point x="80" y="-4" type="line"/>
    </contour>
  </outline>
</glyph>
<glyph name="bulletoperator" format="2">
  <advance width="774"/>
  <unicode hex="2219"/>
  <outline>
    <contour>
      <point x="372" y="550" type="curve" smooth="yes"/>
      <point x="472" y="550"/>
      <point x="554" y="632"/>
      <point x="554" y="732" type="curve" smooth="yes"/>
      <point x="554" y="832"/>
      <point x="472" y="914"/>
      <point x="372" y="914" type="curve" smooth="yes"/>
      <point x="272" y="914"/>
      <point x="190" y="832"/>
      <point x="190" y="732" type="curve" smooth="yes"/>
      <point x="190" y="632"/>
      <point x="272" y="550"/>
    </contour>
  </outline>
</glyph>
<glyph name="radical" format="2">
  <advance width="1466"/>
  <unicode hex="221A"/>
  <outline>
    <contour>
      <point x="548" y="-322" type="line"/>
      <point x="936" y="-322" type="line"/>
      <point x="1456" y="1652" type="line"/>
      <point x="1136" y="1652" type="line"/>
      <point x="736" y="24" type="line"/>
      <point x="476" y="748" type="line"/>
      <point x="30" y="590" type="line"/>
      <point x="106" y="382" type="line"/>
      <point x="270" y="442" type="line"/>
    </contour>
  </outline>
</glyph>
